<?xml version="1.0" encoding="utf-8"?>
<!-- Generator: Adobe Illustrator 27.5.0, SVG Export Plug-In . SVG Version: 6.00 Build 0)  -->
<svg version="1.1" id="Layer_2_00000091717957773043465390000006190881432499128756_"
	 xmlns="http://www.w3.org/2000/svg" xmlns:xlink="http://www.w3.org/1999/xlink" x="0px" y="0px" viewBox="0 0 1236 666.8"
	 style="enable-background:new 0 0 1236 666.8;" xml:space="preserve">
<style type="text/css">
	.st0{opacity:0.3;}
	.st1{fill:#73ADC9;}
	.st2{opacity:0.8;fill:#73ADC9;enable-background:new    ;}
	.st3{opacity:0.3;fill:#73ADC9;enable-background:new    ;}
	.st4{fill:none;}
	.st5{fill:#6D6E70;}
	.st6{fill:#FFFFFF;}
	.st7{fill:#636668;}
	.st8{opacity:0.1;fill:#231F20;enable-background:new    ;}
	.st9{fill:#6E6F72;}
	.st10{display:none;fill:#73ADC9;}
	.st11{display:none;fill:#636668;}
	.st12{enable-background:new    ;}
	.st13{fill:#636569;}
	.st14{fill:none;stroke:#636569;stroke-width:2;stroke-miterlimit:10;}
</style>
<g class="st0">
	<path class="st1" d="M523.2,442.3c0.1-1.8-1.4-3.4-3.2-3.4l-73.7-1.9c-18.9,10.4-40.5,15.9-63,15.9c-38.6,0-73.1-16.5-96.4-42.5
		l-3.9,63.1c-0.1,1.8-1.7,3.2-3.5,3.1l-61.9-4.3c2.9,3.1,5.9,6.2,9,9.2c41.9,40,97.6,62,156.8,62c50.7,0,98.6-16.1,137.6-45.7
		L523.2,442.3z"/>
	<path class="st1" d="M267.3,462.8c1.8,0.1,3.4-1.3,3.5-3.1l3.5-66c-11.3-18.1-17.9-39.3-17.9-61.9c0-36.6,17.1-69.5,44-91.7
		l-67.3-2.8c-1.8-0.1-3.3-1.6-3.2-3.5l2.8-57.5c-2.1,1.9-4.2,3.8-6.2,5.7c-41.9,40-64.9,93.2-64.9,149.7
		c0,46.3,15.5,90.3,44.1,126.7L267.3,462.8L267.3,462.8z"/>
	<path class="st1" d="M243.7,221.4c-0.1,1.8,1.3,3.4,3.2,3.5l72.4,2.4c18.8-10.6,40.8-16.7,64.2-16.7c33.4,0,64.8,12.2,88.6,34.5
		l8.2,8.9l4.6-66.9c0.1-1.8,1.7-3.2,3.6-3.1l57.8,4.4l-4.3-4.6l-0.1-0.1c-0.3-0.4-0.7-0.7-1-1c-0.2-0.2-0.5-0.5-0.7-0.7
		c-0.1-0.1-0.1-0.1-0.2-0.2c-42-39.9-97.5-61.8-156.6-61.8c-50.3,0-98.1,15.9-137,45.2L243.7,221.4L243.7,221.4z"/>
	<path class="st1" d="M674.4,402.2c0.1-1.8,1.7-3.2,3.6-3.1l68.1,5.2l-67.2-72.6l76-82.3l5.5-63.3c0.2-1.8-1.2-3.4-3-3.6l-61.4-4.9
		c-0.1,0.1-0.2,0.1-0.2,0.2c-2.4,1.8-4.7,3.8-6.9,6.1l-73.3,79.4l-56.3-60.8l-58.7-4.5c-1.8-0.1-3.4,1.2-3.6,3.1l-4.2,66.4
		l59.5,64.3l-78.9,85.5c-2.5,2.4-5.1,4.7-7.7,6.8l68,2.2c1.8,0.1,3.3,1.6,3.2,3.4l-2.3,57c2.5-2.2,5-4.5,7.4-6.9l1.8-1.8l71.9-77.9
		l54.9,59.3L674.4,402.2z"/>
</g>
<path class="st1" d="M293.9,428.3c24.6,20.9,56.3,32.6,89.5,32.6c22.8,0,45.2-5.5,64.9-15.9l66.8,1.7l-1.9,47
	c-37.4,27.4-82.1,41.8-129.8,41.8c-54.1,0-105-19-144.6-53.7l40.1,2.8h0.8c6,0,10.9-4.7,11.3-10.6L293.9,428.3 M287,410.4l-3.9,63.1
	c-0.1,1.8-1.6,3.1-3.3,3.1h-0.2l-61.9-4.3c2.9,3.1,5.9,6.2,9,9.2c41.9,40,97.6,62,156.8,62c50.7,0,98.6-16.1,137.6-45.7l2.2-55.6
	c0.1-1.8-1.4-3.4-3.2-3.4l-73.7-1.9c-18.9,10.4-40.5,15.9-63,15.9C344.8,452.9,310.2,436.4,287,410.4L287,410.4L287,410.4z"/>
<path class="st1" d="M223.9,196.1l-1.8,37.3c-0.1,3,0.9,5.9,3,8.2c2.1,2.2,4.9,3.5,7.9,3.7l48.5,2c-21.1,23.3-32.9,53.2-32.9,84.5
	c0,22.5,6.1,44.5,17.7,64l-3.1,58.7l-53.3-3.7c-26.3-34.7-40.2-75.8-40.2-119C169.6,281.2,188.8,233.5,223.9,196.1 M232.8,176.3
	L232.8,176.3z M232.8,176.3c-2.1,1.9-4.2,3.8-6.2,5.7c-41.9,40-64.9,93.2-64.9,149.7c0,46.3,15.5,90.3,44.1,126.7l61.6,4.3h0.2
	c1.7,0,3.2-1.4,3.3-3.1l3.5-66c-11.3-18.1-17.9-39.3-17.9-61.9c0-36.6,17.1-69.5,44-91.7l-67.3-2.8c-1.8-0.1-3.3-1.6-3.2-3.5
	L232.8,176.3L232.8,176.3L232.8,176.3z"/>
<path class="st1" d="M383.4,128c52.5,0,102.1,17.9,141.2,50.7L489,176h-0.9c-5.9,0-10.9,4.6-11.3,10.5l-3.4,49.1
	c-24.8-21.3-56.6-33-90.1-33c-23.2,0-46,5.7-66.1,16.6l-65.4-2.2l2.3-47.6c17.9-13,37.7-23.2,58.9-30.2
	C335.6,131.8,359.3,128,383.4,128 M383.4,120c-50.3,0-98.1,15.9-137,45.2l-2.7,56.1c-0.1,1.8,1.3,3.4,3.2,3.5l72.4,2.4
	c18.8-10.6,40.8-16.7,64.2-16.7c33.4,0,64.8,12.2,88.6,34.5l8.2,8.9l4.6-66.9c0.1-1.8,1.6-3.1,3.3-3.1h0.3l57.8,4.4l-4.3-4.6
	l-0.1-0.1c-0.3-0.4-0.7-0.7-1-1c-0.2-0.2-0.5-0.5-0.7-0.7c-0.1-0.1-0.1-0.1-0.2-0.2C498,141.9,442.5,120,383.4,120L383.4,120
	L383.4,120z"/>
<path class="st1" d="M698.4,185.8l53.6,4.3l-4.9,55.9l-74.2,80.3c-2.8,3.1-2.8,7.8,0,10.9l53.4,57.7l-47.7-3.7h-0.9
	c-5.9,0-10.9,4.6-11.3,10.5l-2.7,38.8l-42.3-45.7c-1.5-1.6-3.6-2.6-5.9-2.6l0,0c-2.2,0-4.4,0.9-5.9,2.6l-66.4,71.9l1.5-36.6
	c0.1-3-0.9-5.9-3-8.2c-2.1-2.2-4.9-3.5-7.9-3.6l-49.1-1.6l73.4-79.5c2.8-3.1,2.8-7.8,0-10.9l-57.2-61.8l3.7-58.2l50.9,3.9l54.2,58.5
	c1.5,1.6,3.6,2.6,5.9,2.6l0,0c2.2,0,4.4-0.9,5.9-2.6l73.3-79.4C695.8,188,697.1,186.9,698.4,185.8 M504.9,201.6L504.9,201.6
	 M695.9,177.6c-0.1,0.1-0.2,0.1-0.2,0.2c-2.4,1.8-4.7,3.8-6.9,6.1l-73.3,79.4l-56.3-60.8l-58.7-4.5h-0.3c-1.7,0-3.2,1.3-3.3,3.1
	l-4.2,66.4l59.5,64.3l-78.9,85.5c-2.5,2.4-5.1,4.7-7.7,6.8l68,2.2c1.8,0.1,3.3,1.6,3.2,3.4l-2.3,57c2.5-2.2,5-4.5,7.4-6.9l1.8-1.8
	l71.9-77.9l54.9,59.3l4-57.3c0.1-1.8,1.6-3.1,3.3-3.1h0.3l68.1,5.2L679,331.6l76-82.3l5.5-63.3c0.2-1.8-1.2-3.4-3-3.6L695.9,177.6
	L695.9,177.6L695.9,177.6z"/>
<rect x="538.4" y="287.9" transform="matrix(0.6866 -0.7271 0.7271 0.6866 -32.6581 515.8385)" class="st2" width="87.2" height="15.8"/>
<rect x="608.4" y="359.8" transform="matrix(0.6866 -0.7271 0.7271 0.6866 -66.3015 590.7704)" class="st2" width="87.2" height="24.9"/>
<polygon class="st3" points="499.5,240.5 666.8,426.5 666.8,448.5 499.5,265.8 "/>
<path class="st3" d="M477.5,217.8c0,0-83.8-75.3-196.6,3.3h35.2c0,0,71.3-52,161.3,22.7L477.5,217.8L477.5,217.8L477.5,217.8z"/>
<path class="st3" d="M260.1,243.8c0,0-32.5,28-33.5,92.8l25.5-17.1c0,0,11-53,37.5-75.7H260.1L260.1,243.8z"/>
<path class="st3" d="M191.6,356.5l-22,15c0,0,17,63.5,37.5,82.5l36.5,3C243.7,457,208.4,422.5,191.6,356.5z"/>
<path class="st3" d="M261.1,478.3c0,0,122.3,92.3,255-8.3v26.5c0,0-146.1,111.5-285-18.2H261.1L261.1,478.3z"/>
<g>
	<path class="st4" d="M477,185.4c-0.4,2.4-111.7-57.4-211,20.6"/>
	<path class="st5" d="M313.8,163l3.8-1.2c3.9-1.3,7.5,0.8,8.8,4.7c1.3,3.8-0.5,7.7-4.4,9l-3.8,1.2L313.8,163z M320.2,173.5l0.4-0.1
		c3.3-1.1,3.9-3.3,3-6c-1-3-3-4-6-3l-0.4,0.1L320.2,173.5z"/>
	<path class="st5" d="M331.4,160.2l0.8,3.1l4.3-1.1l0.6,2.4l-4.3,1.1l1,3.8l4.5-1.1l0.6,2.4l-7.2,1.8l-3.5-13.9l7.2-1.8l0.6,2.4
		L331.4,160.2L331.4,160.2z"/>
	<path class="st5" d="M346.8,157.6c-0.7-0.6-1.4-0.9-2.3-0.8c-0.9,0.2-1.6,1-1.4,1.9c0.4,2.4,5.8,0.3,6.7,5c0.5,2.8-0.8,5.1-3.7,5.7
		c-1.9,0.4-3.6-0.5-4.8-1.9l1.4-2.1c0.6,1,1.8,1.8,2.9,1.6s1.6-1.3,1.4-2.4c-0.3-1.5-1.7-1.6-2.9-1.8c-2-0.4-3.5-1.1-3.9-3.2
		c-0.4-2.3,0.9-4.5,3.3-5c1.2-0.2,3.1,0,4.1,0.8L346.8,157.6L346.8,157.6z"/>
	<path class="st5" d="M356.6,167.4l-2.8,0.4l-2-14.2l2.8-0.4L356.6,167.4z"/>
	<path class="st5" d="M372.4,158.2v0.4c0.3,4-1.5,7.8-5.9,8.1c-4.2,0.3-7.1-3-7.4-6.9c-0.3-4.1,2.1-7.8,6.4-8.1
		c2.4-0.2,4.6,0.9,5.9,3l-2.4,1.5c-0.7-1.2-2-2.1-3.4-2c-2.7,0.2-3.8,3.1-3.6,5.4c0.2,2.4,1.7,4.9,4.4,4.7c1.7-0.1,3.1-1.8,3-3.5
		l-3,0.2l-0.2-2.3L372.4,158.2L372.4,158.2z"/>
	<path class="st5" d="M376,151h2l7.5,10l0,0v-9.6h2.8V166h-2l-7.5-10l0,0v9.7H376V151z"/>
</g>
<g>
	<path class="st4" d="M224.1,252.9c0,0-55.5,89.6,32,188.6"/>
	<path class="st5" d="M210,379.4c-0.3-0.7-0.8-2.3-0.2-3.7c0.5-1.1,1.6-1.6,2.1-1.9c0.5-0.2,1.1-0.3,1.8-0.2
		c0.7,0.1,1.1,0.5,1.4,0.8c-0.1-0.7-0.1-1.5,0.2-2.1s0.9-1.3,2-1.7c1.3-0.5,2.3-0.3,3,0.1c1.4,0.7,2.1,2.3,2.4,3.1l1.8,5l-13.2,4.8
		L210,379.4L210,379.4z M215.7,378.5l-0.2-0.5c-0.2-0.4-0.5-1.1-0.9-1.4c-0.3-0.2-0.8-0.3-1.4-0.1c-0.6,0.2-0.8,0.6-0.9,0.9
		c-0.2,0.6,0,1.1,0.2,1.7l0.2,0.5L215.7,378.5L215.7,378.5z M221.1,376.6l-0.3-0.7c-0.3-0.8-0.6-1.7-1.4-2.1c-0.4-0.2-0.8-0.2-1.3,0
		s-0.8,0.5-0.9,0.8c-0.3,0.7,0.1,1.7,0.3,2.3l0.3,0.8L221.1,376.6L221.1,376.6z"/>
	<path class="st5" d="M211.4,355.1c1.3-0.3,3-0.6,4.7,0.4s2.3,2.4,2.6,3.8c0.4,1.4,0.5,3-0.5,4.6c-1,1.7-2.6,2.3-3.9,2.6l-8,2
		l-0.8-3.1l8-2c0.6-0.2,1.6-0.4,2.1-1.3c0.5-0.7,0.4-1.5,0.2-2.1s-0.5-1.3-1.2-1.7c-0.9-0.5-1.9-0.3-2.5-0.1l-8,2l-0.8-3.1
		L211.4,355.1L211.4,355.1z"/>
	<path class="st5" d="M201.7,347.9l13.8-2.3l0.5,3.2l-13.8,2.3L201.7,347.9z"/>
	<path class="st5" d="M200.5,338.6l11.2-1.1l-0.4-4.3l2.7-0.3l0.7,7.5l-13.9,1.4L200.5,338.6z"/>
	<path class="st5" d="M199.8,324.8c0-1.8,0.3-3.8,1.9-5.5c1.2-1.2,2.8-2,5-2s3.8,0.7,5,1.9c2,1.9,2.1,4.3,2.1,5.5v4.5l-14,0.1V324.8
		z M211.1,326v-0.9c0-0.7-0.1-2.1-1-3.2c-0.6-0.8-1.8-1.4-3.4-1.4c-1.5,0-2.5,0.6-3,1.2c-1,1.1-1.2,2.4-1.2,3.4v0.9H211.1L211.1,326
		z"/>
</g>
<g>
	<path class="st4" d="M295.6,473.3c0,0,94.5,58.8,201-15.5"/>
	<path class="st5" d="M378.5,491l-0.4,11.3l-3.2-0.1l0.4-11.3l-3-0.1l0.1-2.7l9.3,0.3l-0.1,2.7L378.5,491L378.5,491z"/>
	<path class="st5" d="M393.3,490.8l-4.7,0.2l0.1,2.7l4.4-0.2l0.1,2.7l-4.4,0.2l0.1,3.1l4.7-0.2l0.1,2.7l-7.9,0.3l-0.5-14l7.9-0.3
		L393.3,490.8L393.3,490.8z"/>
	<path class="st5" d="M405.4,490.4c-1.1-0.8-2-0.8-2.4-0.7c-0.4,0-1,0.2-1.3,0.6c-0.2,0.2-0.3,0.6-0.3,0.9s0.2,0.6,0.4,0.7
		c0.4,0.3,0.9,0.4,1.8,0.6l1.1,0.3c0.6,0.2,1.4,0.4,2,0.9c0.9,0.7,1.2,1.7,1.3,2.5c0.2,1.4-0.2,2.7-0.9,3.6
		c-1.1,1.4-2.9,1.7-3.8,1.8c-1,0.1-1.9,0.1-2.8-0.3c-0.7-0.3-1.6-0.8-2.2-1.3l1.4-2.5c0.4,0.3,1,0.7,1.4,0.9
		c0.6,0.3,1.2,0.4,1.8,0.3c0.4,0,1-0.2,1.4-0.6c0.2-0.3,0.4-0.7,0.4-1.2s-0.3-0.7-0.6-1c-0.4-0.3-1.3-0.5-1.7-0.6l-1.2-0.3
		c-0.7-0.2-1.5-0.4-2.1-0.9c-0.8-0.7-1-1.7-1.1-2.3c-0.1-1.2,0.1-2.3,0.9-3.3c0.9-1.1,2-1.5,3.3-1.6c1-0.1,2.5-0.1,4.3,0.9
		L405.4,490.4L405.4,490.4z"/>
	<path class="st5" d="M416.6,487.9l2,11.1l-3.2,0.6l-2-11.1l-3,0.5l-0.5-2.7l9.2-1.7l0.5,2.7L416.6,487.9z"/>
</g>
<g>
	<path class="st5" d="M535.2,232c0.9,0.9,1.7,1.9,1.8,3.4c0.1,1.6-0.8,2.7-1.4,3.4c-1.2,1.2-2.4,1.5-3.2,1.5c-1.6,0-2.7-1-3.4-1.6
		l-1.4-1.4l-3.5,3.5l-2.3-2.3l9.9-9.9L535.2,232L535.2,232z M529.4,235.4l0.8,0.8c0.3,0.3,0.9,0.8,1.6,0.9c0.4,0,0.9-0.2,1.4-0.6
		c0.4-0.4,0.6-0.9,0.6-1.3c0-0.7-0.5-1.2-0.9-1.6l-0.8-0.8L529.4,235.4L529.4,235.4z"/>
	<path class="st5" d="M544.3,241.1l-8,8l3.1,3.1l-1.9,1.9l-5.4-5.4l9.9-9.9L544.3,241.1L544.3,241.1z"/>
	<path class="st5" d="M548.7,261.5l-3.7-3.7l-2.6,1.1l-2.4-2.4l13.9-5.9l2.1,2.1l-6,13.8l-2.4-2.4L548.7,261.5L548.7,261.5z
		 M549.8,259.2l2.1-4.5l-4.6,2.1L549.8,259.2z"/>
	<path class="st5" d="M552.8,269.4l9.9-9.9l2,2l-1,11.8l6.4-6.4l2.3,2.3l-9.9,9.9l-2-2l1-11.8l-6.4,6.4L552.8,269.4z"/>
</g>
<g>
	<path class="st6" d="M917.2,225.6c-20.8-12.5-44.7-19-69.3-19c-26.9,0-52.4,7.6-74.2,22l4.7-54.1c0.2-2-0.4-3.9-1.7-5.4
		s-3-2.4-5-2.6l-50.3-4c37-25.2,80.4-38.5,126.5-38.5c53.2,0,104.3,18.4,144,51.9l-3.6,55.1L917.2,225.6L917.2,225.6z"/>
	<path class="st7" d="M847.9,128c26.5,0,52.3,4.5,76.8,13.5c23.1,8.5,44.3,20.6,63.1,36.2l-3.2,49l-66.2-5
		c-21.2-12.5-45.6-19.1-70.6-19.1s-48.6,6.3-69.5,18.4l4-46.1c0.3-3-0.7-6-2.6-8.3c-2-2.3-4.7-3.7-7.7-4l-38.5-3.1
		c13.7-8.3,28.3-15.1,43.7-20.2C799.9,131.8,823.6,128,847.9,128 M847.9,120c-50.6,0-98.6,16.1-137.6,45.7l61.1,4.9
		c1.8,0.1,3.2,1.8,3,3.6l-5.5,62.7c22.4-17,49.9-26.3,78.9-26.3c25,0,48.4,7,68.1,19l72.8,5.5h0.2c1.7,0,3.2-1.3,3.3-3.1l3.7-57.8
		C955.3,139.2,903.1,120,847.9,120L847.9,120L847.9,120z"/>
</g>
<g>
	<path class="st6" d="M938.3,479.4l5-62c22.9-23.3,35.5-53.7,35.5-85.6s-11.5-59.8-32.7-82.7l54.5,3.9h0.5c3.8,0,7.1-3,7.3-6.8
		l3.3-51.2c34.8,37.9,53.9,86.1,53.9,136.8c0,55.5-22.6,107.6-63.7,146.8c-1.7,1.6-3.5,3.3-5.5,5.1L938.3,479.4z"/>
	<path class="st7" d="M1015.1,204.8c30.1,36,46.5,80.4,46.5,126.9c0,54.4-22.2,105.5-62.5,143.9c-1.3,1.3-2.7,2.5-4.1,3.8l-52.5-3.8
		L947,419c23-23.9,35.7-54.8,35.7-87.4c0-17.9-3.8-35.3-11.3-51.7c-4.3-9.4-9.7-18.2-16.2-26.4l45,3.2h0.8c5.9,0,10.9-4.7,11.3-10.6
		L1015.1,204.8 M1008.3,185.6l-3.9,60.3c-0.1,1.8-1.6,3.1-3.3,3.1h-0.2l-65.3-4.7c24.1,22.1,39.2,53.1,39.2,87.4
		c0,32.5-13.5,62.1-35.4,83.9l-5.2,64.2c-0.1,1.8,1.2,3.4,3.1,3.6l60.5,4.4c2.3-2,4.6-4.1,6.9-6.3c41.9-40,64.9-93.2,64.9-149.7
		S1047.9,225.1,1008.3,185.6L1008.3,185.6L1008.3,185.6z"/>
</g>
<g>
	<path class="st6" d="M847.9,539.5c-58.2,0-112.9-21.6-154-60.9c-0.1-0.1-0.2-0.2-0.4-0.4l-0.4-0.4c-0.8-0.8-1.5-1.4-2-2l-4.3-4.7
		l3.7-54l67.3,5.4c24.4,22.2,56.4,34.4,90.1,34.4c26.2,0,51.2-7.3,72.8-21.2l-4.5,55.8c-0.2,2,0.5,3.9,1.7,5.4
		c1.3,1.5,3.1,2.4,5,2.5l48.5,3.5C935.2,526.9,892.7,539.5,847.9,539.5L847.9,539.5z"/>
	<path class="st7" d="M694.5,416.7L694.5,416.7 M694.2,421.4l62,5c25,22.3,57.5,34.5,91.8,34.5c24.3,0,47.6-6.1,68.2-17.7l-3.9,48
		c-0.2,3,0.7,6,2.7,8.3s4.7,3.7,7.8,3.9L959,506c-33.3,19.4-71.2,29.5-111,29.5c-57.2,0-110.9-21.2-151.3-59.8
		c-0.1-0.1-0.2-0.2-0.3-0.3c-0.1-0.1-0.2-0.2-0.3-0.3c-0.1-0.1-0.1-0.1-0.2-0.2c-0.7-0.7-1.3-1.3-1.9-1.9l-3.2-3.4L694.2,421.4
		 M689.8,413c-1.7,0-3.2,1.3-3.3,3.1l-3.9,56.4l5.5,6c0.7,0.8,1.5,1.5,2.2,2.2l0.7,0.7c41.9,40,97.6,62,156.8,62
		c49.5,0,96.5-15.4,135.1-43.8l-59.7-4.4c-1.8-0.1-3.2-1.7-3.1-3.6l5.2-64.2c-21.4,15.8-48.3,25.3-77.5,25.3
		c-33.3,0-64.6-12.2-88.4-34.3l-69.4-5.6C690,413,689.9,413,689.8,413L689.8,413z M925.4,427.6L925.4,427.6z"/>
</g>
<path class="st8" d="M775.6,204.5c0,0,94.5-56.5,181,22.5h-34.5l-48-18.5l-49.5,0.5l-51.9,18L775.6,204.5z"/>
<path class="st8" d="M947.1,249l27.5,2.5c0,0,29.6,30.3,27.3,85.2l-24.1-16.6l-0.6-12.6l-7-21.5L947.1,249L947.1,249z"/>
<path class="st8" d="M1039.6,361.5l20,14c0,0-17.2,78-63.6,108l-32.4-2.5C963.6,481,1026.1,436,1039.6,361.5z"/>
<path class="st8" d="M927.1,500.5c0,0-134.5,59-238-58l-2.5,29.5c0,0,118.5,130.5,282.5,32L927.1,500.5z"/>
<g>
	<path class="st6" d="M540.8,429.9c0.1-2-0.6-3.8-2-5.3c-1.3-1.4-3.2-2.3-5.1-2.3l-57.9-1.9l0.3-0.3l0.2-0.2l215.5-233.3
		c1.6-1.8,3.4-3.4,5.4-4.9l59.2,4.8l-5.4,61.2L540.7,475.3c-0.6,0.6-1.1,1.2-1.6,1.7l-0.2,0.2L540.8,429.9L540.8,429.9z"/>
	<path class="st7" d="M698.4,185.8l53.6,4.3l-4.9,55.9L543.3,466.6l1.5-36.6c0.1-3-0.9-5.9-3-8.2c-2.1-2.2-4.9-3.5-7.9-3.6
		l-49.1-1.6l210-227.4C695.8,188,697.1,186.9,698.4,185.8 M695.9,177.6c-0.1,0.1-0.2,0.1-0.2,0.2c-2.4,1.8-4.7,3.8-6.9,6.1
		L473.3,417.2c-2.5,2.4-5.1,4.7-7.7,6.8l68,2.2c1.8,0.1,3.3,1.6,3.2,3.4l-2.3,57c2.5-2.2,5-4.5,7.4-6.9l1.8-1.8l211.2-228.7
		l5.5-63.3c0.2-1.8-1.2-3.4-3-3.6L695.9,177.6L695.9,177.6L695.9,177.6z"/>
</g>
<polygon class="st8" points="750.1,246.8 540,475.4 540.5,445.7 753.1,214.5 "/>
<g>
	<path class="st4" d="M784.6,170c0,0,116.9-36.8,190,45.6"/>
	<path class="st9" d="M847.5,154.8c1.8,0,3.8,0.3,5.5,2c1.2,1.2,2,2.9,2,5s-0.8,3.8-2,4.9c-2,1.9-4.4,2-5.5,2l-4.5-0.1l0.2-14
		L847.5,154.8L847.5,154.8z M846.2,166h0.9c0.7,0,2.1,0,3.2-0.9c0.8-0.6,1.4-1.8,1.4-3.4c0-1.5-0.6-2.5-1.1-3
		c-1-1.1-2.4-1.2-3.4-1.2h-0.9L846.2,166L846.2,166z"/>
	<path class="st9" d="M868.2,158.6l-4.7-0.4l-0.2,2.7l4.4,0.4l-0.2,2.7l-4.4-0.4l-0.3,3.1l4.7,0.4l-0.2,2.7l-7.9-0.6l1.2-14l7.9,0.6
		L868.2,158.6z"/>
	<path class="st9" d="M878.8,157.2c1.2,0.2,2.5,0.5,3.5,1.7s1,2.6,0.8,3.6c-0.3,1.7-1.1,2.6-1.7,3.1c-1.3,1-2.7,0.8-3.7,0.7l-2-0.3
		l-0.7,4.9l-3.2-0.5l2.1-13.9L878.8,157.2L878.8,157.2z M876.2,163.4l1.1,0.2c0.4,0.1,1.2,0.2,1.8-0.3c0.3-0.2,0.6-0.7,0.7-1.3
		c0.1-0.6,0-1.1-0.3-1.4c-0.4-0.5-1.1-0.7-1.7-0.8l-1.1-0.2L876.2,163.4z"/>
	<path class="st9" d="M891.9,159.7l-2.5,11l4.2,1l-0.6,2.7l-7.4-1.7l3.1-13.7L891.9,159.7z"/>
	<path class="st9" d="M911.9,167.2c0.9,1.6,1.1,3.6,0.5,5.7c-0.6,1.8-1.8,3.4-3.7,4.3c-1.6,0.8-3.5,1-5.8,0.3
		c-2.5-0.8-3.9-2.3-4.6-3.6c-0.9-1.6-1.1-3.7-0.5-5.6s2.1-3.6,3.7-4.4c1.2-0.6,3.2-1.1,5.8-0.3C909.4,164.2,911,165.4,911.9,167.2z
		 M903.1,166.6c-0.8,0.4-1.7,1.2-2.1,2.6c-0.4,1.2-0.3,2.3,0.3,3.4c0.6,1.1,1.5,1.7,2.5,2c1.4,0.4,2.5,0.2,3.3-0.2
		c0.7-0.3,1.6-1.1,2.1-2.6c0.4-1.4,0.2-2.6-0.2-3.4c-0.5-0.9-1.4-1.7-2.6-2.1C905.3,166,904.1,166.1,903.1,166.6z"/>
	<path class="st9" d="M918.8,176.1l-1.6-8.9l3.5,1.5l0.9,5.1l4.3-2.9l3.5,1.5l-7.6,4.9l-2.6,6l-3-1.3L918.8,176.1L918.8,176.1z"/>
</g>
<g>
	<path class="st4" d="M1007.6,260.5c0,0,58.5,103.5-54.5,208.5"/>
	<path class="st9" d="M1028,335.2c-1.3,1.3-3.2,2.1-5.3,2.1c-1.9,0-3.8-0.7-5.2-2.3c-1.2-1.3-2-3.1-2-5.4c0-2.6,1.1-4.4,2.1-5.4
		c1.3-1.3,3.2-2.1,5.2-2.1c2,0,4,1,5.3,2.2c0.9,1,2,2.7,2,5.5C1030,332,1029.4,333.8,1028,335.2L1028,335.2z M1025.9,326.7
		c-0.6-0.6-1.6-1.3-3.2-1.3c-1.3,0-2.3,0.4-3.2,1.2c-0.9,0.9-1.2,1.9-1.2,3c0,1.4,0.5,2.4,1.2,3.1c0.5,0.6,1.5,1.2,3.1,1.3
		c1.4,0,2.5-0.6,3.2-1.2c0.7-0.7,1.2-1.8,1.2-3.1C1027.1,328.5,1026.7,327.4,1025.9,326.7L1025.9,326.7z"/>
	<path class="st9" d="M1028.5,347.9c-0.1,1.2-0.5,2.5-1.6,3.5c-1.2,1.1-2.6,1.1-3.5,0.9c-1.8-0.2-2.7-1-3.1-1.6
		c-1-1.2-0.9-2.7-0.8-3.7l0.2-2l-4.9-0.6l0.4-3.2l13.9,1.7L1028.5,347.9L1028.5,347.9z M1022.3,345.5l-0.1,1.1
		c-0.1,0.4-0.1,1.2,0.3,1.8c0.3,0.3,0.7,0.6,1.3,0.7c0.6,0.1,1.1-0.1,1.4-0.4c0.5-0.4,0.7-1.1,0.7-1.7l0.1-1.1L1022.3,345.5
		L1022.3,345.5z"/>
	<path class="st9" d="M1022.7,365.2l1-4.6l-2.7-0.6l-0.9,4.4l-2.7-0.6l0.9-4.4l-3-0.6l-1,4.6l-2.7-0.6l1.6-7.7l13.8,2.9l-1.6,7.7
		L1022.7,365.2L1022.7,365.2z"/>
	<path class="st9" d="M1022.6,376.1c-0.5,1.7-1.4,2.6-2.2,3.1c-0.7,0.4-1.9,0.7-3.3,0.3c-0.8-0.3-1.8-0.7-2.4-1.9
		c-0.3-0.6-0.5-1.4-0.5-2.2l-6.7,2.5l1.1-3.8l6.4-2l-5.3-1.6l0.9-3.1l13.4,4L1022.6,376.1z M1017,372.6l-0.2,0.7
		c-0.2,0.6-0.3,1.3,0,2c0.2,0.3,0.5,0.7,1.2,0.9c0.8,0.2,1.3,0,1.6-0.2c0.5-0.4,0.8-1.2,0.9-1.6l0.2-0.7L1017,372.6L1017,372.6z"/>
	<path class="st9" d="M1005.5,390.1l2-4.9l-2.1-2l1.3-3.1l10.9,10.5l-1.1,2.7l-15.1-0.1l1.3-3.1H1005.5L1005.5,390.1z M1008.1,390.2
		l5,0.2l-3.7-3.4L1008.1,390.2L1008.1,390.2z"/>
	<path class="st9" d="M1008.1,405l-10.1-5l1.4-2.9l10.1,5l1.3-2.7l2.4,1.2l-4.1,8.4l-2.4-1.2L1008.1,405L1008.1,405z"/>
	<path class="st9" d="M1000.6,418.6l2.3-4.1l-2.3-1.4l-2.2,3.9l-2.4-1.4l2.2-3.9l-2.7-1.6l-2.3,4.1l-2.4-1.4l4-6.9l12.1,7l-4,6.9
		L1000.6,418.6L1000.6,418.6z"/>
</g>
<g>
	<path class="st4" d="M906.6,487c0,0-126.5,34-204-59"/>
	<path class="st9" d="M743,472.1l8.6-11.3l2.4,1.3l-0.9,9l7-5.7l2.4,1.3l-4.7,13.4l-2.8-1.5l3-7.9l-7.1,5.7l-1-0.5l0.9-9l-4.9,6.8
		L743,472.1L743,472.1z"/>
	<path class="st9" d="M779.1,475.6c0.8,1.7,0.9,3.7,0.1,5.7c-0.7,1.7-2,3.3-4,4.1c-1.7,0.7-3.6,0.8-5.8-0.1c-2.4-1-3.7-2.6-4.3-3.9
		c-0.8-1.7-0.9-3.7-0.1-5.6c0.8-1.9,2.3-3.4,4-4.1c1.2-0.5,3.3-0.9,5.9,0.1C776.9,472.5,778.3,473.8,779.1,475.6L779.1,475.6z
		 M770.4,474.4c-0.8,0.3-1.8,1-2.3,2.5c-0.5,1.2-0.5,2.3,0,3.4s1.3,1.8,2.4,2.2c1.3,0.5,2.5,0.4,3.3,0c0.7-0.3,1.7-1,2.3-2.5
		c0.5-1.3,0.4-2.6,0-3.4c-0.4-0.9-1.2-1.8-2.4-2.3C772.6,474,771.4,474,770.4,474.4L770.4,474.4z"/>
	<path class="st9" d="M781.9,489.6l3.9-13.5l2.7,0.8l4.8,10.8l2.5-8.7l3.1,0.9l-3.9,13.5l-2.7-0.8l-4.8-10.8l-2.5,8.7L781.9,489.6z"
		/>
	<path class="st9" d="M807.1,481.7l-2.9,13.7l-3.2-0.7l3-13.7L807.1,481.7L807.1,481.7z"/>
	<path class="st9" d="M816.8,486.1l-1.8,11.1l-3.2-0.5l1.8-11.1l-3-0.5l0.4-2.7l9.2,1.5l-0.4,2.7L816.8,486.1z"/>
	<path class="st9" d="M835.7,487.3c1.2,1.4,1.9,3.3,1.7,5.5c-0.2,1.9-1,3.7-2.7,5c-1.4,1.1-3.2,1.8-5.6,1.5
		c-2.6-0.2-4.3-1.5-5.2-2.6c-1.2-1.4-1.9-3.3-1.7-5.4c0.2-2,1.3-4,2.6-5.1c1-0.9,2.9-1.8,5.6-1.5C832.7,485,834.4,485.8,835.7,487.3
		L835.7,487.3z M827,488.6c-0.7,0.5-1.4,1.5-1.5,3c-0.1,1.3,0.2,2.3,1,3.3c0.8,0.9,1.8,1.3,2.9,1.4c1.4,0.1,2.5-0.3,3.2-0.9
		c0.6-0.5,1.4-1.4,1.5-3c0.1-1.4-0.4-2.6-0.9-3.2c-0.6-0.7-1.7-1.4-3-1.5C829,487.6,827.9,488,827,488.6L827,488.6z"/>
	<path class="st9" d="M847.4,486c1.8,0,2.9,0.6,3.5,1.3c0.6,0.6,1.2,1.6,1.2,3.2c0,0.9-0.2,2-1.2,2.8c-0.5,0.5-1.2,0.9-2,1l4.2,5.8
		l-3.9-0.1l-3.7-5.6l-0.1,5.5l-3.2-0.1l0.3-14L847.4,486L847.4,486z M845.6,492.3h0.7c0.6,0,1.4,0,1.9-0.6c0.2-0.2,0.5-0.7,0.6-1.4
		c0-0.8-0.4-1.2-0.6-1.4c-0.5-0.4-1.4-0.5-1.8-0.5h-0.8L845.6,492.3L845.6,492.3z"/>
</g>
<g>
	<path class="st5" d="M527.7,402.3c-1.2-0.1-2.4,0.4-3.3,1.3c-1.8,2-1.1,4.8,0.8,6.5c1.8,1.6,4.6,2.1,6.4,0.2c0.8-0.9,1.2-2.2,1-3.4
		l2.4,2.3c-0.3,1.1-0.8,2.1-1.6,3c-2.7,3-7.3,2.8-10.2,0.1c-3-2.8-3.7-7.3-0.8-10.4c0.8-0.8,1.7-1.4,2.8-1.8L527.7,402.3
		L527.7,402.3z"/>
	<path class="st5" d="M542.6,402.3c-3,3.2-7.3,2.9-10.4,0.1c-3.1-2.9-3.6-7.2-0.7-10.3c2.9-3.1,7.2-3,10.3-0.1
		C545,394.8,545.6,399.1,542.6,402.3L542.6,402.3z M533.6,393.9c-1.8,1.9-1.1,4.7,0.6,6.2c1.6,1.5,4.4,2.5,6.5,0.3
		c2.1-2.3,0.9-4.9-0.8-6.4C538.2,392.4,535.4,392,533.6,393.9z"/>
	<path class="st5" d="M538.6,384.5l1.4-1.5l12.5,1.3l0,0l-7.1-6.6l1.9-2l10.7,9.9l-1.4,1.5l-12.5-1.3l0,0l7.1,6.6l-1.9,2
		L538.6,384.5z"/>
	<path class="st5" d="M563.7,379.1l-1.9,2l-8.7-8.1l-2,2.1l-1.8-1.7l5.8-6.3l1.8,1.7l-2,2.1L563.7,379.1L563.7,379.1z"/>
	<path class="st5" d="M569.5,372.8l-1.9,2l-10.5-9.7l1.9-2L569.5,372.8z"/>
	<path class="st5" d="M561.4,359.9l1.4-1.5l12.5,1.3l0,0l-7.1-6.6l1.9-2l10.7,9.9l-1.4,1.5l-12.5-1.3l0,0l7.1,6.6l-1.9,2
		L561.4,359.9z"/>
	<path class="st5" d="M572.8,348.2l1.9-2l5.9,5.5c1.3,1.2,3.2,2.8,4.8,1c1.6-1.7-0.1-3.5-1.4-4.7l-5.9-5.5l1.9-2l6.3,5.8
		c2.6,2.4,3.5,5.3,0.9,8.1s-5.6,2.1-8.1-0.3L572.8,348.2L572.8,348.2z"/>
	<path class="st5" d="M597.8,342.9c-3,3.2-7.3,2.9-10.4,0.1c-3.1-2.9-3.6-7.2-0.7-10.3s7.2-3,10.3-0.1
		C600.1,335.4,600.7,339.7,597.8,342.9L597.8,342.9z M588.7,334.5c-1.8,1.9-1.1,4.7,0.6,6.2c1.6,1.5,4.4,2.5,6.5,0.3
		c2.1-2.3,0.9-4.9-0.8-6.4C593.3,333,590.5,332.6,588.7,334.5z"/>
	<path class="st5" d="M594,325.4l1.9-2l5.9,5.5c1.3,1.2,3.2,2.8,4.8,1c1.6-1.7-0.1-3.5-1.4-4.7l-5.9-5.5l1.9-2l6.3,5.8
		c2.6,2.4,3.5,5.3,0.9,8.1c-2.6,2.8-5.6,2.1-8.1-0.3L594,325.4L594,325.4z"/>
	<path class="st5" d="M610.7,311.9c-0.9-0.1-1.7,0.1-2.3,0.8c-0.6,0.7-0.7,1.7,0,2.4c1.8,1.6,4.9-3.2,8.4,0.1c2.1,2,2.4,4.6,0.4,6.8
		c-1.3,1.4-3.2,1.7-5,1.3l-0.1-2.5c1.1,0.5,2.5,0.4,3.3-0.5c0.8-0.8,0.5-2-0.3-2.8c-1.1-1-2.3-0.3-3.4,0.2c-1.8,0.8-3.4,1.2-5-0.3
		c-1.7-1.6-1.9-4.2-0.3-6c0.9-0.9,2.5-1.8,3.8-1.8L610.7,311.9L610.7,311.9z"/>
	<path class="st5" d="M629.4,308.3l-1.9,2l-10.5-9.7l1.9-2L629.4,308.3z"/>
	<path class="st5" d="M621.3,295.4l1.4-1.5l12.5,1.3l0,0l-7.1-6.6l1.9-2l10.7,9.9l-1.4,1.5l-12.5-1.3l0,0l7.1,6.6l-1.9,2
		L621.3,295.4z"/>
	<path class="st5" d="M646.3,290l-1.9,2l-8.7-8.1l-2,2.1l-1.8-1.7l5.8-6.3l1.8,1.7l-2,2.1L646.3,290L646.3,290z"/>
	<path class="st5" d="M643.4,275.6l2.3,2.1l3-3.3l1.8,1.7l-3,3.3l2.8,2.6l3.1-3.4l1.8,1.7l-5,5.4l-10.5-9.7l5-5.4l1.8,1.7
		L643.4,275.6L643.4,275.6z"/>
	<path class="st5" d="M660.9,263.1l0.3,0.2c3,2.8,4.2,6.7,1.2,10c-2.8,3.1-7.2,2.6-10.1-0.1c-3-2.8-3.7-7.2-0.8-10.3
		c1.7-1.8,4-2.5,6.4-1.8l-0.7,2.7c-1.3-0.5-2.9-0.2-3.9,0.8c-1.8,2-0.7,4.8,1,6.4s4.6,2.4,6.4,0.4c1.2-1.3,1.1-3.4-0.2-4.6l-2.1,2.2
		l-1.7-1.6L660.9,263.1L660.9,263.1z"/>
	<path class="st5" d="M675.3,258.8l-2.3,2.5l-6.6-1.4l0,0l4.2,3.9l-1.9,2l-10.5-9.7l2.6-2.8c1.9-2.1,4.2-2.7,6.4-0.6
		c1.3,1.2,2,3.2,0.9,4.8L675.3,258.8L675.3,258.8z M664.9,258.6l0.2-0.3c1-1.1,1.4-2.2,0.2-3.4c-1.3-1.2-2.3-0.6-3.3,0.5l-0.3,0.3
		L664.9,258.6L664.9,258.6z"/>
	<path class="st5" d="M677,252.5l1.4,2.9l-2,2.2l-7-14.1l1.5-1.6l14.5,6l-2,2.2l-3-1.2L677,252.5L677,252.5z M673.1,245.7
		L673.1,245.7l2.7,4.7l2.3-2.5L673.1,245.7z"/>
	<path class="st5" d="M689.4,243.6l-1.9,2l-8.7-8.1l-2,2.1L675,238l5.8-6.3l1.8,1.7l-2,2.1L689.4,243.6L689.4,243.6z"/>
	<path class="st5" d="M695.2,237.3l-1.9,2l-10.5-9.7l1.9-2L695.2,237.3z"/>
	<path class="st5" d="M702.5,230c-3,3.2-7.3,2.9-10.4,0.1c-3.1-2.9-3.6-7.2-0.7-10.3c2.9-3.1,7.2-3,10.3-0.1
		C704.9,222.5,705.5,226.8,702.5,230L702.5,230z M693.5,221.6c-1.8,1.9-1.1,4.7,0.6,6.2c1.6,1.5,4.4,2.5,6.5,0.3
		c2.1-2.3,0.9-4.9-0.8-6.4C698.1,220.1,695.3,219.7,693.5,221.6z"/>
	<path class="st5" d="M698.5,212.2l1.4-1.5l12.5,1.3l0,0l-7.1-6.6l1.9-2l10.7,9.9l-1.4,1.5l-12.5-1.3l0,0l7.1,6.6l-1.9,2
		L698.5,212.2z"/>
	<path class="st5" d="M559.6,401.5c-1.2-0.1-2.4,0.4-3.3,1.3c-1.8,2-1.1,4.8,0.8,6.5c1.8,1.6,4.6,2.1,6.4,0.2c0.8-0.9,1.2-2.2,1-3.4
		l2.4,2.3c-0.3,1.1-0.8,2.1-1.6,3c-2.7,3-7.3,2.8-10.2,0.1c-3-2.8-3.7-7.3-0.8-10.4c0.8-0.8,1.7-1.4,2.8-1.8L559.6,401.5
		L559.6,401.5z"/>
	<path class="st5" d="M574.5,401.5c-3,3.2-7.3,2.9-10.4,0.1c-3.1-2.9-3.6-7.2-0.7-10.3c2.9-3.1,7.2-3,10.3-0.1
		C576.9,394,577.5,398.3,574.5,401.5L574.5,401.5z M565.5,393.1c-1.8,1.9-1.1,4.7,0.6,6.2c1.6,1.5,4.4,2.5,6.5,0.3
		c2.1-2.3,0.9-4.9-0.8-6.4C570.1,391.6,567.3,391.1,565.5,393.1z"/>
	<path class="st5" d="M570.5,383.6l1.4-1.5l12.5,1.3l0,0l-7.1-6.6l1.9-2l10.7,9.9l-1.4,1.5l-12.5-1.3l0,0l7.1,6.6l-1.9,2
		L570.5,383.6z"/>
	<path class="st5" d="M595.6,378.2l-1.9,2l-8.7-8.1l-2,2.1l-1.8-1.7l5.8-6.3l1.8,1.7l-2,2.1L595.6,378.2L595.6,378.2z"/>
	<path class="st5" d="M601.4,371.9l-1.9,2l-10.5-9.7l1.9-2L601.4,371.9z"/>
	<path class="st5" d="M593.3,359l1.4-1.5l12.5,1.3l0,0l-7.1-6.6l1.9-2l10.7,9.9l-1.4,1.5l-12.5-1.3l0,0l7.1,6.6l-1.9,2L593.3,359z"
		/>
	<path class="st5" d="M604.6,347.4l1.9-2l5.9,5.5c1.3,1.2,3.2,2.8,4.8,1s-0.1-3.5-1.4-4.7l-5.9-5.5l1.9-2l6.3,5.8
		c2.6,2.4,3.5,5.3,0.9,8.1s-5.6,2.1-8.1-0.3L604.6,347.4L604.6,347.4z"/>
	<path class="st5" d="M629.7,342.1c-3,3.2-7.3,2.9-10.4,0.1c-3.1-2.9-3.6-7.2-0.7-10.3c2.9-3.1,7.2-3,10.3-0.1
		C632,334.6,632.6,338.9,629.7,342.1L629.7,342.1z M620.6,333.7c-1.8,1.9-1.1,4.7,0.6,6.2c1.6,1.5,4.4,2.5,6.5,0.3s0.9-4.9-0.8-6.4
		C625.2,332.2,622.4,331.7,620.6,333.7z"/>
	<path class="st5" d="M625.9,324.5l1.9-2l5.9,5.5c1.3,1.2,3.2,2.8,4.8,1s-0.1-3.5-1.4-4.7l-5.9-5.5l1.9-2l6.3,5.8
		c2.6,2.4,3.5,5.3,0.9,8.1s-5.6,2.1-8.1-0.3L625.9,324.5L625.9,324.5z"/>
	<path class="st5" d="M642.6,311.1c-0.9-0.1-1.7,0.1-2.3,0.8c-0.6,0.7-0.7,1.7,0,2.4c1.8,1.6,4.9-3.2,8.4,0.1c2.1,2,2.4,4.6,0.4,6.8
		c-1.3,1.4-3.2,1.7-5,1.3L644,320c1.1,0.5,2.5,0.4,3.3-0.5c0.8-0.8,0.5-2-0.3-2.8c-1.1-1-2.3-0.3-3.4,0.2c-1.8,0.8-3.4,1.2-5-0.3
		c-1.7-1.6-1.9-4.2-0.3-6c0.9-0.9,2.5-1.8,3.8-1.8L642.6,311.1L642.6,311.1z"/>
	<path class="st5" d="M648.9,299.7l2.7-2.9c2.8-3,7-3,10-0.2c3,2.7,3.3,6.9,0.5,9.9l-2.7,2.9L648.9,299.7L648.9,299.7z M659.5,305.8
		l0.3-0.3c2.3-2.5,1.9-4.8-0.2-6.7c-2.3-2.1-4.6-2-6.7,0.3l-0.3,0.3L659.5,305.8L659.5,305.8z"/>
	<path class="st5" d="M662.2,289l2.3,2.1l3-3.3l1.8,1.7l-3,3.3l2.8,2.6l3.1-3.4l1.8,1.7l-5,5.4l-10.5-9.7l5-5.4l1.8,1.7L662.2,289
		L662.2,289z"/>
	<path class="st5" d="M676.7,287.2l2.7-2.9l1.8,1.7l-4.6,4.9l-10.5-9.7l1.9-2L676.7,287.2L676.7,287.2z"/>
	<path class="st5" d="M685,281.9l-1.9,2l-10.5-9.7l1.9-2L685,281.9z"/>
	<path class="st5" d="M687.7,272L687.7,272l-4.9-8.9l2-2.2l7,14.1l-1.1,1.2l-14.5-6l2-2.2L687.7,272z"/>
	<path class="st5" d="M690.4,258.6l2.3,2.1l3-3.3l1.8,1.7l-3,3.3l2.8,2.6l3.1-3.4l1.8,1.7l-5,5.4l-10.5-9.7l5-5.4l1.8,1.7
		L690.4,258.6L690.4,258.6z"/>
	<path class="st5" d="M711.4,253.4l-2.3,2.5l-6.6-1.4l0,0l4.2,3.9l-1.9,2l-10.5-9.7l2.6-2.8c1.9-2.1,4.2-2.7,6.4-0.6
		c1.3,1.2,2,3.2,0.9,4.8L711.4,253.4L711.4,253.4z M701,253.2l0.2-0.3c1-1.1,1.4-2.2,0.2-3.4c-1.3-1.2-2.3-0.6-3.3,0.5l-0.3,0.3
		L701,253.2L701,253.2z"/>
	<path class="st5" d="M701.7,242.9l2.2-2.4l5.4,1.5l-1.8-5.4l2.2-2.4l2.6,8.6l4.8,4.5l-1.9,2l-4.8-4.5L701.7,242.9L701.7,242.9z"/>
</g>
<g>
	<rect x="286.6" y="307.2" class="st4" width="203.1" height="83.8"/>
	<path class="st1" d="M311.2,309.9h5.9c6.1,0,10.2,4.6,10.2,10.6s-4.2,10.5-10.2,10.5h-5.9V309.9z M315.4,327.4h0.7c5.1,0,7-2.8,7-7
		c0-4.6-2.4-7-7-7h-0.7V327.4z"/>
	<path class="st1" d="M332.4,324.7c0,1.7,0.7,3.7,2.7,3.7c1.3,0,2.1-0.8,2.6-1.9l3.6,0.6c-1,2.7-3.4,4.3-6.2,4.3
		c-4.3,0-6.9-3-6.9-7.2s2.2-7.4,6.7-7.4s6.5,3.3,6.5,7.5v0.5h-9L332.4,324.7L332.4,324.7L332.4,324.7z M337.7,322.3
		c-0.2-1.4-1.1-2.8-2.6-2.8c-1.6,0-2.4,1.3-2.6,2.8H337.7z"/>
	<path class="st1" d="M348.9,325l2.8-7.8h4.3l-6.3,14h-2l-6.3-14h4.3L348.9,325z"/>
	<path class="st1" d="M360.1,324.7c0,1.7,0.7,3.7,2.7,3.7c1.3,0,2.1-0.8,2.6-1.9l3.6,0.6c-1,2.7-3.4,4.3-6.2,4.3
		c-4.3,0-6.9-3-6.9-7.2s2.2-7.4,6.7-7.4s6.5,3.3,6.5,7.5v0.5h-9L360.1,324.7L360.1,324.7L360.1,324.7z M365.4,322.3
		c-0.2-1.4-1.1-2.8-2.6-2.8c-1.6,0-2.4,1.3-2.6,2.8H365.4z"/>
	<path class="st1" d="M374.9,331H371v-23.7h3.9V331z"/>
	<path class="st1" d="M391.1,324.1c0,4.3-2.9,7.3-7.2,7.3s-7.2-3.1-7.2-7.3s2.9-7.3,7.2-7.3S391.1,319.8,391.1,324.1z M380.7,324.1
		c0,1.8,1.2,3.8,3.2,3.8s3.2-2,3.2-3.8c0-1.9-1.2-3.9-3.2-3.9S380.7,322.2,380.7,324.1z"/>
	<path class="st1" d="M396.9,318.5c0.9-1.1,2.4-1.7,3.8-1.7c3.9,0,6.3,3.6,6.3,7.3s-2.3,7.4-6.4,7.4c-1.4,0-2.9-0.6-3.7-1.7h-0.1
		v8.6H393v-21.1h3.9V318.5L396.9,318.5z M403,324.1c0-1.8-1.2-3.8-3.2-3.8s-3.2,2-3.2,3.8s1.2,3.9,3.2,3.9
		C401.8,327.9,403,325.9,403,324.1z"/>
	<path class="st1" d="M412.7,318.5L412.7,318.5c0.8-1.1,2.2-1.7,3.4-1.7c1.7,0,3.1,0.7,3.9,2.2c0.8-1.3,2.4-2.2,4-2.2
		c3.5,0,4.4,2.6,4.4,5.6v8.6h-3.9v-7.2c0-1.3,0.1-3.8-1.8-3.8c-2.1,0-2.1,2.9-2.1,4.3v6.7h-3.9v-7c0-1.3,0.2-4.1-1.9-4.1
		s-2.1,2.9-2.1,4.3v6.7h-3.9v-13.7h3.9V318.5L412.7,318.5z"/>
	<path class="st1" d="M434.4,324.7c0,1.7,0.7,3.7,2.7,3.7c1.3,0,2.1-0.8,2.6-1.9l3.6,0.6c-1,2.7-3.4,4.3-6.2,4.3
		c-4.3,0-6.9-3-6.9-7.2s2.2-7.4,6.7-7.4s6.5,3.3,6.5,7.5v0.5h-9L434.4,324.7L434.4,324.7L434.4,324.7z M439.8,322.3
		c-0.2-1.4-1.1-2.8-2.6-2.8c-1.6,0-2.4,1.3-2.6,2.8H439.8z"/>
	<path class="st1" d="M449.2,318.5L449.2,318.5c0.9-1.2,2.2-1.7,3.6-1.7c3.7,0,4.8,2.6,4.8,5.8v8.4h-3.9v-7.3c0-1.7,0.1-3.8-2.1-3.8
		s-2.4,2.6-2.4,4.3v6.8h-3.9v-13.7h3.9V318.5L449.2,318.5z"/>
	<path class="st1" d="M464.8,331h-3.9v-10.4h-1.3v-3.3h1.3v-4.6h3.9v4.6h2.4v3.3h-2.4V331z"/>
	<path class="st10" d="M331.6,342.9c-1.7,3.8-2.3,8.5-2.3,12.6s0.6,8.9,2.3,12.6l-2.4,1.7c-2.1-4.1-2.8-9.8-2.8-14.4
		s0.8-10,2.8-14.1L331.6,342.9L331.6,342.9z"/>
	<path class="st10" d="M337.8,345.1c0,1.3-1,2.3-2.3,2.3s-2.3-1-2.3-2.3s1-2.3,2.3-2.3C336.7,342.7,337.8,343.8,337.8,345.1z
		 M337.4,364.6h-3.9v-13.7h3.9V364.6z"/>
	<path class="st10" d="M344.3,352.1L344.3,352.1c0.9-1.2,2.2-1.7,3.6-1.7c3.7,0,4.8,2.6,4.8,5.8v8.4h-3.9v-7.3
		c0-1.7,0.1-3.8-2.1-3.8s-2.4,2.6-2.4,4.3v6.8h-3.9v-13.7h3.9V352.1L344.3,352.1L344.3,352.1z"/>
	<path class="st10" d="M364.8,355c-0.8-0.8-1.7-1.3-2.9-1.3c-2.2,0-3.5,2.1-3.5,4.1c0,2.2,1.4,3.9,3.6,3.9c1.1,0,2-0.5,2.7-1.3v3.8
		c-1.1,0.6-2.2,0.8-3.4,0.8c-4.1,0-6.9-3.3-6.9-7.3s3-7.4,7.1-7.4c1.1,0,2.2,0.3,3.2,0.9L364.8,355L364.8,355L364.8,355z"/>
	<path class="st10" d="M372.4,362.6c0,1.4-1.1,2.5-2.5,2.5s-2.5-1.1-2.5-2.5s1.1-2.5,2.5-2.5S372.4,361.2,372.4,362.6z"/>
	<path class="st10" d="M387.9,360.1l-1.7,4.5h-4.3l8.2-21.7h3.2l8,21.7h-4.4l-1.6-4.5H387.9L387.9,360.1z M391.4,349.1L391.4,349.1
		l-2.4,7.7h5L391.4,349.1z"/>
	<path class="st10" d="M415.3,363.7c0,4.5-1.5,8.2-6.7,8.2c-3.4,0-6.7-2-6.9-5.7h4.1c0.2,1.5,1.2,2.4,2.7,2.4c2.8,0,2.8-2.4,2.8-4.5
		v-0.9h-0.1c-0.8,1.1-2.3,1.8-3.8,1.8c-4,0-6.2-3.5-6.2-7.2s2.3-7.4,6.4-7.4c1.4,0,2.8,0.7,3.6,1.8h0.1v-1.3h3.9v12.8L415.3,363.7
		L415.3,363.7z M411.9,357.7c0-1.8-1.2-3.9-3.2-3.9s-3.2,2-3.2,3.9c0,1.8,1.2,3.8,3.2,3.8S411.9,359.6,411.9,357.7z"/>
	<path class="st10" d="M422.6,345.1c0,1.3-1,2.3-2.3,2.3s-2.3-1-2.3-2.3s1-2.3,2.3-2.3S422.6,343.8,422.6,345.1z M422.2,364.6h-3.9
		v-13.7h3.9V364.6z"/>
	<path class="st10" d="M429.1,364.6h-3.9v-23.7h3.9V364.6z"/>
	<path class="st10" d="M435.1,358.3c0,1.7,0.7,3.7,2.7,3.7c1.3,0,2.1-0.8,2.6-1.9l3.6,0.6c-1,2.7-3.4,4.3-6.2,4.3
		c-4.3,0-6.9-3-6.9-7.2s2.2-7.4,6.7-7.4s6.5,3.3,6.5,7.5v0.5h-9L435.1,358.3L435.1,358.3L435.1,358.3z M440.4,355.9
		c-0.2-1.4-1.1-2.8-2.6-2.8c-1.6,0-2.4,1.3-2.6,2.8H440.4z"/>
	<path class="st10" d="M447.2,341.3c2,4.1,2.8,9.5,2.8,14.1s-0.7,10.2-2.8,14.4l-2.4-1.7c1.7-3.7,2.3-8.6,2.3-12.6
		s-0.6-8.8-2.3-12.6L447.2,341.3L447.2,341.3z"/>
</g>
<g>
	<rect x="767" y="307.2" class="st4" width="203.1" height="83.8"/>
	<path class="st7" d="M784.9,331.5c-6.4,0-10.4-4.9-10.4-11.1s4.1-11.1,10.4-11.1s10.4,4.8,10.4,11.1
		C795.3,326.6,791.3,331.5,784.9,331.5z M784.9,313.4c-3.9,0-6.2,3.4-6.2,6.9c0,3.2,1.6,7.3,6.2,7.3s6.2-4,6.2-7.3
		C791,316.8,788.7,313.4,784.9,313.4z"/>
	<path class="st7" d="M801.1,318.5c0.9-1.1,2.4-1.7,3.8-1.7c3.9,0,6.3,3.6,6.3,7.3s-2.3,7.4-6.4,7.4c-1.4,0-2.9-0.6-3.7-1.7H801v8.6
		h-3.9v-21.1h3.9L801.1,318.5L801.1,318.5L801.1,318.5z M807.2,324.1c0-1.8-1.2-3.8-3.2-3.8s-3.2,2-3.2,3.8s1.2,3.9,3.2,3.9
		C806,327.9,807.2,325.9,807.2,324.1z"/>
	<path class="st7" d="M816.2,324.7c0,1.7,0.7,3.7,2.7,3.7c1.3,0,2.1-0.8,2.6-1.9l3.6,0.6c-1,2.7-3.4,4.3-6.2,4.3
		c-4.3,0-6.9-3-6.9-7.2s2.2-7.4,6.7-7.4s6.5,3.3,6.5,7.5v0.5h-9L816.2,324.7L816.2,324.7L816.2,324.7z M821.5,322.3
		c-0.2-1.4-1.1-2.8-2.6-2.8c-1.6,0-2.4,1.3-2.6,2.8H821.5L821.5,322.3z"/>
	<path class="st7" d="M831,318.6L831,318.6c0.8-1.2,2-1.9,3.5-1.9c0.6,0,1.1,0.1,1.6,0.3l-0.5,3.6c-0.5-0.3-1-0.5-1.6-0.5
		c-2.7,0-3,2.4-3,4.5v6.2h-4v-13.7h3.9L831,318.6L831,318.6z"/>
	<path class="st7" d="M850.3,331h-3.9v-1.3h-0.1c-0.8,1.1-2.3,1.7-3.7,1.7c-4,0-6.3-3.7-6.3-7.4s2.3-7.3,6.3-7.3
		c1.4,0,2.9,0.6,3.8,1.7v-1.3h3.9V331L850.3,331z M846.8,324.1c0-1.8-1.3-3.8-3.3-3.8s-3.2,2-3.2,3.8s1.2,3.9,3.2,3.9
		C845.6,327.9,846.8,325.9,846.8,324.1z"/>
	<path class="st7" d="M857.5,331h-3.9v-10.4h-1.3v-3.3h1.3v-4.6h3.9v4.6h2.4v3.3h-2.4V331z"/>
	<path class="st7" d="M865.3,311.5c0,1.3-1,2.3-2.3,2.3s-2.3-1-2.3-2.3s1-2.3,2.3-2.3S865.3,310.2,865.3,311.5z M864.9,331H861
		v-13.7h3.9V331z"/>
	<path class="st7" d="M881.4,324.1c0,4.3-2.9,7.3-7.2,7.3s-7.2-3.1-7.2-7.3s2.9-7.3,7.2-7.3S881.4,319.8,881.4,324.1z M870.9,324.1
		c0,1.8,1.2,3.8,3.2,3.8s3.2-2,3.2-3.8c0-1.9-1.2-3.9-3.2-3.9S870.9,322.2,870.9,324.1z"/>
	<path class="st7" d="M887.2,318.5L887.2,318.5c0.9-1.2,2.2-1.7,3.6-1.7c3.7,0,4.8,2.6,4.8,5.8v8.4h-3.9v-7.3c0-1.7,0.1-3.8-2.1-3.8
		s-2.4,2.6-2.4,4.3v6.8h-3.9v-13.7h3.9L887.2,318.5L887.2,318.5L887.2,318.5z"/>
	<path class="st7" d="M905.4,320.5c-0.6-0.5-1.3-1-2.1-1c-0.6,0-1.3,0.5-1.3,1.2c0,1,1.4,1.3,2.8,1.9c1.4,0.6,2.8,1.6,2.8,3.9
		c0,3.1-2.5,4.9-5.3,4.9c-1.8,0-3.6-0.8-4.8-2.3l1.8-2.3c0.8,0.8,1.8,1.6,2.9,1.6c0.9,0,1.6-0.6,1.6-1.5c0-1.2-1.4-1.5-2.7-2.1
		c-1.4-0.6-2.7-1.4-2.7-3.6c0-2.6,1.8-4.5,4.4-4.5c1.5,0,3.3,0.4,4.4,1.4L905.4,320.5L905.4,320.5z"/>
	<path class="st11" d="M930.9,331H927v-1.3l0,0c-0.8,1.1-2.3,1.7-3.7,1.7c-4,0-6.3-3.7-6.3-7.4s2.3-7.3,6.3-7.3
		c1.4,0,2.9,0.6,3.8,1.7v-1.3h3.9L930.9,331L930.9,331L930.9,331z M927.5,324.1c0-1.8-1.3-3.8-3.3-3.8s-3.2,2-3.2,3.8
		s1.2,3.9,3.2,3.9C926.2,327.9,927.5,325.9,927.5,324.1z"/>
	<path class="st11" d="M937.7,318.5L937.7,318.5c0.9-1.2,2.2-1.7,3.6-1.7c3.7,0,4.8,2.6,4.8,5.8v8.4h-3.9v-7.3
		c0-1.7,0.1-3.8-2.1-3.8s-2.4,2.6-2.4,4.3v6.8h-3.9v-13.7h3.9L937.7,318.5L937.7,318.5L937.7,318.5z"/>
	<path class="st11" d="M958,329.7L958,329.7c-0.9,1.1-2.3,1.7-3.8,1.7c-4,0-6.3-3.7-6.3-7.4s2.3-7.3,6.3-7.3c1.4,0,2.9,0.6,3.8,1.7
		h0.1v-11.3h3.9V331h-4V329.7L958,329.7z M958.4,324.1c0-1.8-1.2-3.8-3.2-3.8s-3.2,2-3.2,3.8s1.2,3.9,3.2,3.9
		C957.1,327.9,958.4,325.9,958.4,324.1z"/>
	<path class="st11" d="M808.4,351.5L808.4,351.5l-4.8,13.4h-1.4l-4.6-13.4h-0.1l-1.9,13.1h-4.1l3.6-21.7h2.9l5.2,13.9l5-13.9h3
		l3.2,21.7h-4.1L808.4,351.5L808.4,351.5z"/>
	<path class="st11" d="M828.9,364.6H825v-1.3l0,0c-0.8,1.1-2.3,1.7-3.7,1.7c-4,0-6.3-3.7-6.3-7.4s2.3-7.3,6.3-7.3
		c1.4,0,2.9,0.6,3.8,1.7v-1.3h3.9L828.9,364.6L828.9,364.6L828.9,364.6z M825.4,357.7c0-1.8-1.3-3.8-3.3-3.8s-3.2,2-3.2,3.8
		s1.2,3.9,3.2,3.9C824.2,361.5,825.4,359.5,825.4,357.7z"/>
	<path class="st11" d="M836.2,345.1c0,1.3-1,2.3-2.3,2.3s-2.3-1-2.3-2.3s1-2.3,2.3-2.3C835.2,342.7,836.2,343.8,836.2,345.1z
		 M835.8,364.6h-3.9v-13.7h3.9V364.6z"/>
	<path class="st11" d="M842.7,352.1L842.7,352.1c0.9-1.2,2.2-1.7,3.6-1.7c3.7,0,4.8,2.6,4.8,5.8v8.4h-3.9v-7.3
		c0-1.7,0.1-3.8-2.1-3.8s-2.4,2.6-2.4,4.3v6.8h-3.9v-13.7h3.9L842.7,352.1L842.7,352.1L842.7,352.1z"/>
	<path class="st11" d="M858.3,364.6h-3.9v-10.4h-1.3v-3.3h1.3v-4.6h3.9v4.6h2.4v3.3h-2.4V364.6z"/>
	<path class="st11" d="M864.8,358.3c0,1.7,0.7,3.7,2.7,3.7c1.3,0,2.1-0.8,2.6-1.9l3.6,0.6c-1,2.7-3.4,4.3-6.2,4.3
		c-4.3,0-6.9-3-6.9-7.2s2.2-7.4,6.7-7.4s6.5,3.3,6.5,7.5v0.5h-9L864.8,358.3L864.8,358.3L864.8,358.3z M870.1,355.9
		c-0.2-1.4-1.1-2.8-2.6-2.8c-1.6,0-2.4,1.3-2.6,2.8H870.1L870.1,355.9z"/>
	<path class="st11" d="M879.5,352.1L879.5,352.1c0.9-1.2,2.2-1.7,3.6-1.7c3.7,0,4.8,2.6,4.8,5.8v8.4H884v-7.3c0-1.7,0.1-3.8-2.1-3.8
		s-2.4,2.6-2.4,4.3v6.8h-3.9v-13.7h3.9V352.1L879.5,352.1z"/>
	<path class="st11" d="M903.7,364.6h-3.9v-1.3h-0.1c-0.8,1.1-2.3,1.7-3.7,1.7c-4,0-6.3-3.7-6.3-7.4s2.3-7.3,6.3-7.3
		c1.4,0,2.9,0.6,3.8,1.7v-1.3h3.9V364.6L903.7,364.6z M900.3,357.7c0-1.8-1.3-3.8-3.3-3.8s-3.2,2-3.2,3.8s1.2,3.9,3.2,3.9
		C899,361.5,900.3,359.5,900.3,357.7z"/>
	<path class="st11" d="M910.5,352.1L910.5,352.1c0.9-1.2,2.2-1.7,3.6-1.7c3.7,0,4.8,2.6,4.8,5.8v8.4H915v-7.3c0-1.7,0.1-3.8-2.1-3.8
		s-2.4,2.6-2.4,4.3v6.8h-3.9v-13.7h3.9V352.1L910.5,352.1z"/>
	<path class="st11" d="M931,355c-0.8-0.8-1.7-1.3-2.9-1.3c-2.2,0-3.5,2.1-3.5,4.1c0,2.2,1.4,3.9,3.6,3.9c1.1,0,2-0.5,2.7-1.3v3.8
		c-1.1,0.6-2.2,0.8-3.4,0.8c-4.1,0-6.9-3.3-6.9-7.3s3-7.4,7.1-7.4c1.1,0,2.2,0.3,3.2,0.9v3.8H931L931,355z"/>
	<path class="st11" d="M936.6,358.3c0,1.7,0.7,3.7,2.7,3.7c1.3,0,2.1-0.8,2.6-1.9l3.6,0.6c-1,2.7-3.4,4.3-6.2,4.3
		c-4.3,0-6.9-3-6.9-7.2s2.2-7.4,6.7-7.4s6.5,3.3,6.5,7.5v0.5h-9L936.6,358.3L936.6,358.3L936.6,358.3z M942,355.9
		c-0.2-1.4-1.1-2.8-2.6-2.8c-1.6,0-2.4,1.3-2.6,2.8H942L942,355.9z"/>
</g>
<g class="st12">
	<path class="st13" d="M199.3,59.9h8.5v1.8h-6.5v4.4h6.3v1.8h-6.3v6h6.5v1.8h-8.5V59.9z"/>
	<path class="st13" d="M209.2,65.9h2.2l2.3,3.2l2.5-3.2h2.3l-3.6,4.5l4.2,5.3H217l-3.2-4l-3.1,4h-2.3l4.4-5.3L209.2,65.9z"/>
	<path class="st13" d="M222,67.5L222,67.5c0.8-1.2,2-1.9,3.5-1.9c2.8,0,4.6,2.5,4.6,5.1c0,2.8-1.7,5.3-4.7,5.3
		c-1.4,0-2.6-0.8-3.3-1.9l0,0v7.2h-1.9V65.9h1.9v1.6H222z M228.2,70.8c0-1.9-1.2-3.5-3.2-3.5s-3.1,1.7-3.1,3.5s1.1,3.6,3.1,3.6
		C227.1,74.4,228.2,72.7,228.2,70.8z"/>
	<path class="st13" d="M233.9,75.7H232V57.5h1.9V75.7z"/>
	<path class="st13" d="M246.2,70.8c0,3-2.3,5.2-5.2,5.2s-5.2-2.3-5.2-5.2c0-3,2.3-5.2,5.2-5.2S246.2,67.9,246.2,70.8z M237.6,70.8
		c0,1.8,1.5,3.4,3.4,3.4s3.4-1.6,3.4-3.4c0-1.9-1.5-3.4-3.4-3.4S237.6,68.9,237.6,70.8z"/>
	<path class="st13" d="M249.9,67.5L249.9,67.5c0.5-1.2,1.5-1.9,2.8-1.9c0.5,0,1.1,0.2,1.6,0.5l-0.9,1.7c-0.3-0.3-0.7-0.4-1.2-0.4
		c-2,0-2.3,1.9-2.3,3.5v4.8H248v-9.8h1.9L249.9,67.5L249.9,67.5z"/>
	<path class="st13" d="M256.4,71.1c0,1.7,1.2,3.3,3,3.3c1.4,0,2.2-0.7,2.9-1.9l1.6,0.9c-0.9,1.7-2.6,2.7-4.6,2.7
		c-3,0-4.8-2.3-4.8-5.2c0-3,1.6-5.3,4.8-5.3c3.1,0,4.6,2.3,4.6,5.2v0.3H256.4z M262,69.7c-0.2-1.5-1.2-2.5-2.7-2.5s-2.6,1-2.8,2.5
		H262z"/>
</g>
<g class="st12">
	<path class="st13" d="M211.2,85.1h3.3c4.9,0,8.9,2.6,8.9,7.8c0,5.4-3.9,8-8.9,8h-3.2V85.1H211.2z M213.1,99.1h0.7
		c4,0,7.5-1.5,7.5-6.1s-3.5-6.1-7.5-6.1h-0.7V99.1z"/>
	<path class="st13" d="M234.3,100.9h-1.9v-1.5l0,0c-0.8,1.1-1.9,1.9-3.3,1.9c-3,0-4.7-2.5-4.7-5.3c0-2.7,1.8-5.1,4.6-5.1
		c1.4,0,2.6,0.8,3.4,1.9l0,0v-1.6h1.9V100.9z M232.5,96c0-1.9-1.2-3.5-3.2-3.5s-3.1,1.7-3.1,3.5s1.1,3.6,3.1,3.6
		C231.4,99.6,232.5,97.9,232.5,96z"/>
	<path class="st13" d="M238.9,100.9H237v-8.1h-1V91h1v-3.8h1.9V91h1.8v1.8h-1.8V100.9z"/>
	<path class="st13" d="M251,100.9h-1.9v-1.5l0,0c-0.8,1.1-1.9,1.9-3.3,1.9c-3,0-4.7-2.5-4.7-5.3c0-2.7,1.8-5.1,4.6-5.1
		c1.4,0,2.6,0.8,3.4,1.9l0,0v-1.6h1.9V100.9z M249.2,96c0-1.9-1.2-3.5-3.2-3.5s-3.1,1.7-3.1,3.5s1.1,3.6,3.1,3.6
		C248.1,99.6,249.2,97.9,249.2,96z"/>
</g>
<line class="st14" x1="266" y1="87.1" x2="324" y2="139"/>
<g class="st12">
	<path class="st13" d="M468.5,47.4c-1.1-1-2.7-1.6-4.2-1.6c-3.5,0-6.3,3-6.3,6.5s2.7,6.4,6.2,6.4c1.6,0,3-0.6,4.2-1.6v2.3
		c-1.2,0.7-2.8,1.1-4.2,1.1c-4.5,0-8.3-3.6-8.3-8.2c0-4.7,3.8-8.3,8.4-8.3c1.4,0,2.8,0.3,4,1.1v2.3H468.5z"/>
	<path class="st13" d="M472.7,52L472.7,52c0.5-1.2,1.5-1.9,2.8-1.9c0.5,0,1.1,0.2,1.6,0.5l-0.9,1.7c-0.3-0.3-0.7-0.4-1.2-0.4
		c-2,0-2.3,1.9-2.3,3.5v4.8h-1.9v-9.8h1.9V52z"/>
	<path class="st13" d="M479.1,55.7c0,1.7,1.2,3.3,3,3.3c1.4,0,2.2-0.7,2.9-1.9l1.6,0.9c-0.9,1.7-2.6,2.7-4.6,2.7
		c-3,0-4.8-2.3-4.8-5.2c0-3,1.6-5.3,4.8-5.3c3.1,0,4.6,2.3,4.6,5.2v0.3H479.1z M484.8,54.2c-0.2-1.5-1.2-2.5-2.7-2.5s-2.6,1-2.8,2.5
		H484.8z"/>
	<path class="st13" d="M497.5,60.2h-1.9v-1.5l0,0c-0.8,1.1-1.9,1.9-3.3,1.9c-3,0-4.7-2.5-4.7-5.3c0-2.7,1.8-5.1,4.6-5.1
		c1.4,0,2.6,0.8,3.4,1.9l0,0v-1.6h1.9V60.2z M495.7,55.3c0-1.9-1.2-3.5-3.2-3.5s-3.1,1.7-3.1,3.5s1.1,3.6,3.1,3.6
		C494.6,58.9,495.7,57.3,495.7,55.3z"/>
	<path class="st13" d="M502.1,60.2h-1.9v-8.1h-1v-1.8h1v-3.8h1.9v3.8h1.8v1.8h-1.8V60.2z"/>
	<path class="st13" d="M506.1,55.7c0,1.7,1.2,3.3,3,3.3c1.4,0,2.2-0.7,2.9-1.9l1.6,0.9c-0.9,1.7-2.6,2.7-4.6,2.7
		c-3,0-4.8-2.3-4.8-5.2c0-3,1.6-5.3,4.8-5.3c3.1,0,4.6,2.3,4.6,5.2v0.3H506.1z M511.7,54.2c-0.2-1.5-1.2-2.5-2.7-2.5s-2.6,1-2.8,2.5
		H511.7z"/>
</g>
<g class="st12">
	<path class="st13" d="M461,75L461,75l-1.9,10.5h-2l3.2-16.5l5.4,12.5l5.4-12.5l3.2,16.5h-2L470.5,75l0,0l-4.7,10.8L461,75z"/>
	<path class="st13" d="M485.6,80.6c0,3-2.3,5.2-5.2,5.2s-5.2-2.3-5.2-5.2c0-3,2.3-5.2,5.2-5.2S485.6,77.6,485.6,80.6z M477,80.6
		c0,1.8,1.5,3.4,3.4,3.4s3.4-1.6,3.4-3.4c0-1.9-1.5-3.4-3.4-3.4S477,78.7,477,80.6z"/>
	<path class="st13" d="M494.6,83.9L494.6,83.9c-0.8,1.1-2,1.9-3.4,1.9c-3,0-4.7-2.5-4.7-5.3c0-2.7,1.8-5.1,4.6-5.1
		c1.5,0,2.6,0.8,3.4,1.9l0,0v-10h1.9v18.2h-1.9v-1.6H494.6z M494.7,80.5c0-1.9-1.2-3.5-3.2-3.5s-3.1,1.7-3.1,3.5s1.1,3.6,3.1,3.6
		C493.6,84.1,494.7,82.5,494.7,80.5z"/>
	<path class="st13" d="M500.1,80.9c0,1.7,1.2,3.3,3,3.3c1.4,0,2.2-0.7,2.9-1.9l1.6,0.9c-0.9,1.7-2.6,2.7-4.6,2.7
		c-3,0-4.8-2.3-4.8-5.2c0-3,1.6-5.3,4.8-5.3c3.1,0,4.6,2.3,4.6,5.2v0.3H500.1z M505.7,79.4c-0.2-1.5-1.2-2.5-2.7-2.5s-2.6,1-2.8,2.5
		H505.7z"/>
	<path class="st13" d="M511.2,85.5h-1.9V67.2h1.9V85.5z"/>
</g>
<line class="st14" x1="386.1" y1="133.2" x2="443" y2="70.1"/>
<g class="st12">
	<path class="st13" d="M972.7,60.7h3.3c4.9,0,8.9,2.6,8.9,7.8c0,5.4-3.9,8-8.9,8h-3.2L972.7,60.7L972.7,60.7z M974.7,74.8h0.7
		c4,0,7.5-1.5,7.5-6.1s-3.5-6.1-7.5-6.1h-0.7V74.8z"/>
	<path class="st13" d="M987.8,72c0,1.7,1.2,3.3,3,3.3c1.4,0,2.2-0.7,2.9-1.9l1.6,0.9c-0.9,1.7-2.6,2.7-4.6,2.7c-3,0-4.8-2.3-4.8-5.2
		c0-3,1.6-5.3,4.8-5.3c3.1,0,4.6,2.3,4.6,5.2V72H987.8z M993.4,70.5c-0.2-1.5-1.2-2.5-2.7-2.5s-2.6,1-2.8,2.5H993.4z"/>
	<path class="st13" d="M998.6,68.4L998.6,68.4c0.8-1.2,2-1.9,3.5-1.9c2.8,0,4.6,2.5,4.6,5.1c0,2.8-1.7,5.3-4.7,5.3
		c-1.4,0-2.6-0.8-3.3-1.9l0,0v7.2h-1.9V66.7h1.9L998.6,68.4L998.6,68.4z M1004.8,71.6c0-1.9-1.2-3.5-3.2-3.5s-3.1,1.7-3.1,3.5
		s1.1,3.6,3.1,3.6C1003.7,75.2,1004.8,73.6,1004.8,71.6z"/>
	<path class="st13" d="M1010.5,76.6h-1.9V58.3h1.9V76.6z"/>
	<path class="st13" d="M1022.8,71.7c0,3-2.3,5.2-5.2,5.2s-5.2-2.3-5.2-5.2c0-3,2.3-5.2,5.2-5.2S1022.8,68.7,1022.8,71.7z
		 M1014.2,71.7c0,1.8,1.5,3.4,3.4,3.4s3.4-1.6,3.4-3.4c0-1.9-1.5-3.4-3.4-3.4C1015.7,68.2,1014.2,69.8,1014.2,71.7z"/>
	<path class="st13" d="M1023,66.7h2.2l3.3,6.2l3.1-6.2h2.1l-8,15.5h-2.1l3.9-7.3L1023,66.7z"/>
</g>
<g class="st12">
	<path class="st13" d="M978.7,91.3L978.7,91.3l-1.9,10.5h-2l3.2-16.5l5.4,12.5l5.4-12.5l3.2,16.5h-2l-1.8-10.5l0,0l-4.7,10.8
		L978.7,91.3z"/>
	<path class="st13" d="M1003.3,96.9c0,3-2.3,5.2-5.2,5.2s-5.2-2.3-5.2-5.2c0-3,2.3-5.2,5.2-5.2S1003.3,93.9,1003.3,96.9z
		 M994.7,96.9c0,1.8,1.5,3.4,3.4,3.4s3.4-1.6,3.4-3.4c0-1.9-1.5-3.4-3.4-3.4C996.2,93.4,994.7,95,994.7,96.9z"/>
	<path class="st13" d="M1012.3,100.2L1012.3,100.2c-0.8,1.1-2,1.9-3.4,1.9c-3,0-4.7-2.5-4.7-5.3c0-2.7,1.8-5.1,4.6-5.1
		c1.5,0,2.6,0.8,3.4,1.9l0,0v-10h1.9v18.2h-1.9v-1.6H1012.3z M1012.4,96.8c0-1.9-1.2-3.5-3.2-3.5s-3.1,1.7-3.1,3.5s1.1,3.6,3.1,3.6
		C1011.3,100.4,1012.4,98.8,1012.4,96.8z"/>
	<path class="st13" d="M1017.8,97.2c0,1.7,1.2,3.3,3,3.3c1.4,0,2.2-0.7,2.9-1.9l1.6,0.9c-0.9,1.7-2.6,2.7-4.6,2.7
		c-3,0-4.8-2.3-4.8-5.2c0-3,1.6-5.3,4.8-5.3c3.1,0,4.6,2.3,4.6,5.2v0.3H1017.8z M1023.4,95.7c-0.2-1.5-1.2-2.5-2.7-2.5
		s-2.6,1-2.8,2.5H1023.4z"/>
	<path class="st13" d="M1028.9,101.8h-1.9V83.5h1.9V101.8z"/>
</g>
<line class="st14" x1="903.8" y1="149.5" x2="960.7" y2="86.4"/>
<g class="st12">
	<path class="st13" d="M967.8,571.1L967.8,571.1l-1.9,10.5h-2l3.2-16.5l5.4,12.5L978,565l3.2,16.5h-2l-1.8-10.5l0,0l-4.7,10.8
		L967.8,571.1z"/>
	<path class="st13" d="M992.4,576.6c0,3-2.3,5.2-5.2,5.2s-5.2-2.3-5.2-5.2c0-3,2.3-5.2,5.2-5.2S992.4,573.7,992.4,576.6z
		 M983.8,576.6c0,1.8,1.5,3.4,3.4,3.4s3.4-1.6,3.4-3.4c0-1.9-1.5-3.4-3.4-3.4C985.3,573.2,983.8,574.8,983.8,576.6z"/>
	<path class="st13" d="M996,573L996,573c0.6-1,1.8-1.6,3-1.6c2.8,0,3.5,1.9,3.5,4.3v5.9h-1.9V576c0-1.7-0.2-2.8-2.2-2.8
		c-2.4,0-2.4,2.1-2.4,3.9v4.5h-1.9v-9.8h1.9L996,573L996,573z"/>
	<path class="st13" d="M1007.8,567.2c0,0.7-0.6,1.3-1.3,1.3s-1.3-0.6-1.3-1.3s0.6-1.3,1.3-1.3S1007.8,566.5,1007.8,567.2z
		 M1007.4,581.5h-1.9v-9.8h1.9V581.5z"/>
	<path class="st13" d="M1012.6,581.5h-1.9v-8.1h-1v-1.8h1v-3.8h1.9v3.8h1.8v1.8h-1.8V581.5z"/>
	<path class="st13" d="M1025.1,576.6c0,3-2.3,5.2-5.2,5.2s-5.2-2.3-5.2-5.2c0-3,2.3-5.2,5.2-5.2S1025.1,573.7,1025.1,576.6z
		 M1016.5,576.6c0,1.8,1.5,3.4,3.4,3.4s3.4-1.6,3.4-3.4c0-1.9-1.5-3.4-3.4-3.4C1018,573.2,1016.5,574.8,1016.5,576.6z"/>
	<path class="st13" d="M1028.9,573.3L1028.9,573.3c0.5-1.2,1.5-1.9,2.8-1.9c0.5,0,1.1,0.2,1.6,0.5l-0.9,1.7
		c-0.3-0.3-0.7-0.4-1.2-0.4c-2,0-2.3,1.9-2.3,3.5v4.8h-1.9v-9.8h1.9V573.3z"/>
	<path class="st13" d="M1049.5,581.5h-1.9V580l0,0c-0.8,1.1-1.9,1.9-3.3,1.9c-3,0-4.7-2.5-4.7-5.3c0-2.7,1.8-5.1,4.6-5.1
		c1.4,0,2.6,0.8,3.4,1.9l0,0v-1.6h1.9V581.5z M1047.7,576.6c0-1.9-1.2-3.5-3.2-3.5s-3.1,1.7-3.1,3.5s1.1,3.6,3.1,3.6
		C1046.6,580.2,1047.7,578.5,1047.7,576.6z"/>
	<path class="st13" d="M1053.8,573L1053.8,573c0.6-1,1.8-1.6,3-1.6c2.8,0,3.5,1.9,3.5,4.3v5.9h-1.9V576c0-1.7-0.2-2.8-2.2-2.8
		c-2.4,0-2.4,2.1-2.4,3.9v4.5h-1.9v-9.8h1.9V573z"/>
	<path class="st13" d="M1070.3,580L1070.3,580c-0.8,1.1-2,1.9-3.4,1.9c-3,0-4.7-2.5-4.7-5.3c0-2.7,1.8-5.1,4.6-5.1
		c1.5,0,2.6,0.8,3.4,1.9l0,0v-10h1.9v18.2h-1.9L1070.3,580L1070.3,580z M1070.4,576.6c0-1.9-1.2-3.5-3.2-3.5s-3.1,1.7-3.1,3.5
		s1.1,3.6,3.1,3.6C1069.2,580.2,1070.4,578.5,1070.4,576.6z"/>
</g>
<g class="st12">
	<path class="st13" d="M969.4,606.7h-2v-14h-3.8v-1.8h9.5v1.8h-3.8L969.4,606.7L969.4,606.7z"/>
</g>
<g class="st12">
	<path class="st13" d="M974.8,598.5L974.8,598.5c0.5-1.2,1.5-1.9,2.8-1.9c0.5,0,1.1,0.2,1.6,0.5l-0.9,1.7c-0.3-0.3-0.7-0.4-1.2-0.4
		c-2,0-2.3,1.9-2.3,3.5v4.8H973v-9.8h1.9v1.6H974.8z"/>
	<path class="st13" d="M989.4,606.7h-1.9v-1.5l0,0c-0.8,1.1-1.9,1.9-3.3,1.9c-3,0-4.7-2.5-4.7-5.3c0-2.7,1.8-5.1,4.6-5.1
		c1.4,0,2.6,0.8,3.4,1.9l0,0V597h1.9V606.7z M987.6,601.8c0-1.9-1.2-3.5-3.2-3.5s-3.1,1.7-3.1,3.5s1.1,3.6,3.1,3.6
		C986.5,605.4,987.6,603.7,987.6,601.8z"/>
	<path class="st13" d="M999.1,599.7c-0.8-0.9-1.7-1.3-2.8-1.3c-1.8,0-3.3,1.6-3.3,3.4c0,2,1.4,3.5,3.4,3.5c1.1,0,2-0.5,2.7-1.3v2.4
		c-0.9,0.5-1.7,0.7-2.7,0.7c-2.9,0-5.3-2.2-5.3-5.2s2.4-5.3,5.4-5.3c0.9,0,1.8,0.2,2.6,0.7L999.1,599.7L999.1,599.7z"/>
	<path class="st13" d="M1003.2,600.6l3.7-3.7h2.5l-4.2,4.1l4.6,5.8h-2.5l-3.5-4.5l-0.7,0.7v3.8h-1.9v-18.2h1.9v12H1003.2z"/>
	<path class="st13" d="M1019.8,596.3L1019.8,596.3l-1.9,10.5h-2l3.2-16.5l5.4,12.5l5.4-12.5l3.2,16.5h-2l-1.8-10.5l0,0l-4.7,10.8
		L1019.8,596.3z"/>
	<path class="st13" d="M1035.9,602.1c0,1.7,1.2,3.3,3,3.3c1.4,0,2.2-0.7,2.9-1.9l1.6,0.9c-0.9,1.7-2.6,2.7-4.6,2.7
		c-3,0-4.8-2.3-4.8-5.2c0-3,1.6-5.3,4.8-5.3c3.1,0,4.6,2.3,4.6,5.2v0.3H1035.9z M1041.5,600.7c-0.2-1.5-1.2-2.5-2.7-2.5
		s-2.6,1-2.8,2.5H1041.5z"/>
	<path class="st13" d="M1047.2,606.7h-1.9v-8.1h-1v-1.8h1V593h1.9v3.8h1.8v1.8h-1.8V606.7z"/>
	<path class="st13" d="M1052.1,598.5L1052.1,598.5c0.5-1.2,1.5-1.9,2.8-1.9c0.5,0,1.1,0.2,1.6,0.5l-0.9,1.7
		c-0.3-0.3-0.7-0.4-1.2-0.4c-2,0-2.3,1.9-2.3,3.5v4.8h-1.9v-9.8h1.9V598.5z"/>
	<path class="st13" d="M1060.1,592.4c0,0.7-0.6,1.3-1.3,1.3s-1.3-0.6-1.3-1.3s0.6-1.3,1.3-1.3S1060.1,591.7,1060.1,592.4z
		 M1059.7,606.7h-1.9v-9.8h1.9V606.7z"/>
	<path class="st13" d="M1070,599.7c-0.8-0.9-1.7-1.3-2.8-1.3c-1.8,0-3.3,1.6-3.3,3.4c0,2,1.4,3.5,3.4,3.5c1.1,0,2-0.5,2.7-1.3v2.4
		c-0.9,0.5-1.7,0.7-2.7,0.7c-2.9,0-5.3-2.2-5.3-5.2s2.4-5.3,5.4-5.3c0.9,0,1.8,0.2,2.6,0.7L1070,599.7L1070,599.7z"/>
	<path class="st13" d="M1076,599.1c-0.2-0.5-0.7-0.9-1.3-0.9c-0.5,0-1,0.4-1,1c0,0.9,1.1,1.2,2.3,1.8c1.2,0.5,2.3,1.2,2.3,2.8
		c0,1.9-1.6,3.3-3.4,3.3c-1.4,0-2.9-0.8-3.4-2.2l1.6-0.7c0.4,0.7,0.9,1.3,1.8,1.3c0.8,0,1.5-0.5,1.5-1.4c0-0.5-0.3-0.8-0.7-1.1
		l-1.8-1c-1.1-0.6-1.9-1.1-1.9-2.5c0-1.6,1.3-2.9,2.9-2.9c1.2,0,2.2,0.7,2.7,1.7L1076,599.1z"/>
</g>
<line class="st14" x1="876.5" y1="513.9" x2="950.4" y2="581.5"/>
<g class="st12">
	<path class="st13" d="M118.2,541.4h1.9c3,0,5.8,0.8,5.8,4.3c0,1.2-0.6,2.5-1.7,3l0,0c1.9,0.3,3.2,2.2,3.2,4c0,3.2-2.7,4.4-5.5,4.4
		h-3.7C118.2,557.1,118.2,541.4,118.2,541.4z M120.2,548.4h0.5c1.9,0,3.4-0.4,3.4-2.6c0-2.2-1.5-2.6-3.4-2.6h-0.5V548.4z
		 M120.2,555.5h1.5c1.8,0,3.7-0.5,3.7-2.8c0-2.2-2.3-2.7-4-2.7h-1.2V555.5z"/>
	<path class="st13" d="M131.2,547.4v5.4c0,1.6,0.4,3,2.3,3s2.3-1.4,2.3-3v-5.4h1.9v5.6c0,2.7-1.3,4.5-4.2,4.5s-4.2-1.8-4.2-4.5v-5.6
		H131.2z"/>
	<path class="st13" d="M142.8,542.9c0,0.7-0.6,1.3-1.3,1.3s-1.3-0.6-1.3-1.3s0.6-1.3,1.3-1.3S142.8,542.2,142.8,542.9z M142.5,557.2
		h-1.9v-9.8h1.9V557.2z"/>
	<path class="st13" d="M147.5,557.2h-1.9V539h1.9V557.2z"/>
	<path class="st13" d="M157.5,555.7L157.5,555.7c-0.8,1.1-2,1.9-3.4,1.9c-3,0-4.7-2.5-4.7-5.3c0-2.7,1.8-5.1,4.6-5.1
		c1.5,0,2.6,0.8,3.4,1.9l0,0v-10h1.9v18.2h-1.9L157.5,555.7L157.5,555.7z M157.6,552.3c0-1.9-1.2-3.5-3.2-3.5s-3.1,1.7-3.1,3.5
		s1.1,3.6,3.1,3.6C156.4,555.9,157.6,554.2,157.6,552.3z"/>
	<path class="st13" d="M177.1,557.2h-1.9v-1.5l0,0c-0.8,1.1-1.9,1.9-3.3,1.9c-3,0-4.7-2.5-4.7-5.3c0-2.7,1.8-5.1,4.6-5.1
		c1.4,0,2.6,0.8,3.4,1.9l0,0v-1.6h1.9V557.2z M175.3,552.3c0-1.9-1.2-3.5-3.2-3.5s-3.1,1.7-3.1,3.5s1.1,3.6,3.1,3.6
		C174.2,555.9,175.3,554.2,175.3,552.3z"/>
	<path class="st13" d="M181.5,548.7L181.5,548.7c0.6-1,1.8-1.6,3-1.6c2.8,0,3.5,1.9,3.5,4.3v5.9h-1.9v-5.6c0-1.7-0.2-2.8-2.2-2.8
		c-2.4,0-2.4,2.1-2.4,3.9v4.5h-1.9v-9.8h1.9L181.5,548.7L181.5,548.7z"/>
	<path class="st13" d="M197.9,555.7L197.9,555.7c-0.8,1.1-2,1.9-3.4,1.9c-3,0-4.7-2.5-4.7-5.3c0-2.7,1.8-5.1,4.6-5.1
		c1.5,0,2.6,0.8,3.4,1.9l0,0v-10h1.9v18.2h-1.9L197.9,555.7L197.9,555.7z M198,552.3c0-1.9-1.2-3.5-3.2-3.5s-3.1,1.7-3.1,3.5
		s1.1,3.6,3.1,3.6C196.8,555.9,198,554.2,198,552.3z"/>
</g>
<g class="st12">
	<path class="st13" d="M212.8,557.2h-2v-14H207v-1.8h9.5v1.8h-3.8v14H212.8z"/>
</g>
<g class="st12">
	<path class="st13" d="M216.9,552.6c0,1.7,1.2,3.3,3,3.3c1.4,0,2.2-0.7,2.9-1.9l1.6,0.9c-0.9,1.7-2.6,2.7-4.6,2.7
		c-3,0-4.8-2.3-4.8-5.2c0-3,1.6-5.3,4.8-5.3c3.1,0,4.6,2.3,4.6,5.2v0.3H216.9z M222.5,551.2c-0.2-1.5-1.2-2.5-2.7-2.5
		s-2.6,1-2.8,2.5H222.5z"/>
	<path class="st13" d="M230,549.7c-0.2-0.5-0.7-0.9-1.3-0.9c-0.5,0-1,0.4-1,1c0,0.9,1.1,1.2,2.3,1.8s2.3,1.2,2.3,2.8
		c0,1.9-1.6,3.3-3.4,3.3c-1.4,0-2.9-0.8-3.4-2.2l1.6-0.7c0.4,0.7,0.9,1.3,1.8,1.3c0.8,0,1.5-0.5,1.5-1.4c0-0.5-0.3-0.8-0.7-1.1
		l-1.8-1c-1.1-0.6-1.9-1.1-1.9-2.5c0-1.6,1.3-2.9,2.9-2.9c1.2,0,2.2,0.7,2.7,1.7L230,549.7z"/>
	<path class="st13" d="M236.2,557.2h-1.9v-8.1h-1v-1.8h1v-3.8h1.9v3.8h1.8v1.8h-1.8V557.2z"/>
</g>
<g class="st12">
	<path class="st13" d="M121.5,578.9l2.9-6.8l2.9,6.8l2.9-6.3h2.1l-5,10.2l-2.9-6.6l-2.9,6.6l-5-10.2h2.1L121.5,578.9z"/>
	<path class="st13" d="M135.9,568.1c0,0.7-0.6,1.3-1.3,1.3s-1.3-0.6-1.3-1.3s0.6-1.3,1.3-1.3S135.9,567.4,135.9,568.1z M135.5,582.4
		h-1.9v-9.8h1.9V582.4z"/>
	<path class="st13" d="M140.7,582.4h-1.9v-8.1h-1v-1.8h1v-3.8h1.9v3.8h1.8v1.8h-1.8V582.4z"/>
	<path class="st13" d="M145.5,564.2v9.7l0,0c0.6-1,1.8-1.6,3-1.6c2.8,0,3.5,1.9,3.5,4.3v5.9h-1.9v-5.6c0-1.7-0.2-2.8-2.2-2.8
		c-2.4,0-2.4,2.1-2.4,3.9v4.5h-1.9v-18.2h1.9V564.2z"/>
	<path class="st13" d="M172.4,569.6c-1.1-1-2.7-1.6-4.2-1.6c-3.5,0-6.3,3-6.3,6.5s2.7,6.4,6.2,6.4c1.6,0,3-0.6,4.2-1.6v2.3
		c-1.2,0.7-2.8,1.1-4.2,1.1c-4.5,0-8.3-3.6-8.3-8.2c0-4.7,3.8-8.3,8.4-8.3c1.4,0,2.8,0.3,4,1.1v2.3H172.4z"/>
	<path class="st13" d="M176.7,582.4h-2v-15.8h2V582.4z"/>
	<path class="st13" d="M187.7,582.4h-2v-15.8h2.3c4.9,0,6.4,1.7,6.4,4.6c0,3.3-2.5,4.6-5.5,4.6h-1.1L187.7,582.4L187.7,582.4z
		 M187.7,574h0.6c2,0,4.2-0.4,4.2-2.9s-2.4-2.8-4.3-2.8h-0.5V574z"/>
	<path class="st13" d="M198.5,568.1c0,0.7-0.6,1.3-1.3,1.3s-1.3-0.6-1.3-1.3s0.6-1.3,1.3-1.3S198.5,567.4,198.5,568.1z M198.2,582.4
		h-1.9v-9.8h1.9V582.4z"/>
	<path class="st13" d="M203,574.2L203,574.2c0.8-1.2,2-1.9,3.5-1.9c2.8,0,4.6,2.5,4.6,5.1c0,2.8-1.7,5.3-4.7,5.3
		c-1.4,0-2.6-0.8-3.3-1.9l0,0v7.2h-1.9v-15.5h1.9v1.7H203z M209.2,577.5c0-1.9-1.2-3.5-3.2-3.5s-3.1,1.7-3.1,3.5s1.1,3.6,3.1,3.6
		S209.2,579.4,209.2,577.5z"/>
	<path class="st13" d="M214,577.8c0,1.7,1.2,3.3,3,3.3c1.4,0,2.2-0.7,2.9-1.9l1.6,0.9c-0.9,1.7-2.6,2.7-4.6,2.7
		c-3,0-4.8-2.3-4.8-5.2c0-3,1.6-5.3,4.8-5.3c3.1,0,4.6,2.3,4.6,5.2v0.3H214z M219.6,576.4c-0.2-1.5-1.2-2.5-2.7-2.5s-2.6,1-2.8,2.5
		H219.6z"/>
	<path class="st13" d="M225.1,582.4h-1.9v-18.2h1.9V582.4z"/>
	<path class="st13" d="M230.5,568.1c0,0.7-0.6,1.3-1.3,1.3s-1.3-0.6-1.3-1.3s0.6-1.3,1.3-1.3S230.5,567.4,230.5,568.1z M230.1,582.4
		h-1.9v-9.8h1.9V582.4z"/>
	<path class="st13" d="M235,573.9L235,573.9c0.6-1,1.8-1.6,3-1.6c2.8,0,3.5,1.9,3.5,4.3v5.9h-1.9v-5.6c0-1.7-0.2-2.8-2.2-2.8
		c-2.4,0-2.4,2.1-2.4,3.9v4.5h-1.9v-9.8h1.9L235,573.9L235,573.9z"/>
	<path class="st13" d="M245.3,577.8c0,1.7,1.2,3.3,3,3.3c1.4,0,2.2-0.7,2.9-1.9l1.6,0.9c-0.9,1.7-2.6,2.7-4.6,2.7
		c-3,0-4.8-2.3-4.8-5.2c0-3,1.6-5.3,4.8-5.3c3.1,0,4.6,2.3,4.6,5.2v0.3H245.3z M250.9,576.4c-0.2-1.5-1.2-2.5-2.7-2.5
		s-2.6,1-2.8,2.5H250.9z"/>
</g>
<g class="st12">
	<path class="st13" d="M1069.8,191.5L1069.8,191.5l-1.9,10.5h-2l3.2-16.5l5.4,12.5l5.4-12.5l3.2,16.5h-2l-1.8-10.5l0,0l-4.7,10.8
		L1069.8,191.5z"/>
	<path class="st13" d="M1094,202h-1.9v-1.5l0,0c-0.8,1.1-1.9,1.9-3.3,1.9c-3,0-4.7-2.5-4.7-5.3c0-2.7,1.8-5.1,4.6-5.1
		c1.4,0,2.6,0.8,3.4,1.9l0,0v-1.6h1.9V202z M1092.2,197.1c0-1.9-1.2-3.5-3.2-3.5s-3.1,1.7-3.1,3.5s1.1,3.6,3.1,3.6
		C1091.1,200.6,1092.2,199,1092.2,197.1z"/>
	<path class="st13" d="M1098.3,193.5L1098.3,193.5c0.6-1,1.8-1.6,3-1.6c2.8,0,3.5,1.9,3.5,4.3v5.9h-1.9v-5.6c0-1.7-0.2-2.8-2.2-2.8
		c-2.4,0-2.4,2.1-2.4,3.9v4.5h-1.9v-9.8h1.9V193.5z"/>
	<path class="st13" d="M1116.6,202h-1.9v-1.5l0,0c-0.8,1.1-1.9,1.9-3.3,1.9c-3,0-4.7-2.5-4.7-5.3c0-2.7,1.8-5.1,4.6-5.1
		c1.4,0,2.6,0.8,3.4,1.9l0,0v-1.6h1.9V202z M1114.9,197.1c0-1.9-1.2-3.5-3.2-3.5s-3.1,1.7-3.1,3.5s1.1,3.6,3.1,3.6
		C1113.7,200.6,1114.9,199,1114.9,197.1z"/>
	<path class="st13" d="M1128.3,201.8c0,3.4-1,5.8-4.8,5.8c-2.7,0-4.7-1.7-4.7-4.5h1.9c0,1.8,1.2,2.8,2.9,2.8c2.3,0,2.8-1.6,2.8-3.6
		v-1.9l0,0c-0.8,1.1-2,1.9-3.3,1.9c-3,0-4.7-2.5-4.7-5.3c0-2.7,1.8-5.1,4.6-5.1c1.5,0,2.6,0.8,3.4,2l0,0v-1.7h1.9L1128.3,201.8
		L1128.3,201.8z M1126.5,197.1c0-1.9-1.2-3.5-3.2-3.5s-3.1,1.7-3.1,3.5s1.1,3.6,3.1,3.6C1125.4,200.6,1126.5,199,1126.5,197.1z"/>
	<path class="st13" d="M1131.9,197.4c0,1.7,1.2,3.3,3,3.3c1.4,0,2.2-0.7,2.9-1.9l1.6,0.9c-0.9,1.7-2.6,2.7-4.6,2.7
		c-3,0-4.8-2.3-4.8-5.2c0-3,1.6-5.3,4.8-5.3c3.1,0,4.6,2.3,4.6,5.2v0.3H1131.9z M1137.5,196c-0.2-1.5-1.2-2.5-2.7-2.5
		s-2.6,1-2.8,2.5H1137.5z"/>
	<path class="st13" d="M1156.3,202h-1.9v-1.5l0,0c-0.8,1.1-1.9,1.9-3.3,1.9c-3,0-4.7-2.5-4.7-5.3c0-2.7,1.8-5.1,4.6-5.1
		c1.4,0,2.6,0.8,3.4,1.9l0,0v-1.6h1.9V202z M1154.5,197.1c0-1.9-1.2-3.5-3.2-3.5s-3.1,1.7-3.1,3.5s1.1,3.6,3.1,3.6
		C1153.4,200.6,1154.5,199,1154.5,197.1z"/>
	<path class="st13" d="M1160.6,193.5L1160.6,193.5c0.6-1,1.8-1.6,3-1.6c2.8,0,3.5,1.9,3.5,4.3v5.9h-1.9v-5.6c0-1.7-0.2-2.8-2.2-2.8
		c-2.4,0-2.4,2.1-2.4,3.9v4.5h-1.9v-9.8h1.9V193.5z"/>
	<path class="st13" d="M1177.1,200.4L1177.1,200.4c-0.8,1.1-2,1.9-3.4,1.9c-3,0-4.7-2.5-4.7-5.3c0-2.7,1.8-5.1,4.6-5.1
		c1.5,0,2.6,0.8,3.4,1.9l0,0v-10h1.9V202h-1.9L1177.1,200.4L1177.1,200.4z M1177.2,197.1c0-1.9-1.2-3.5-3.2-3.5s-3.1,1.7-3.1,3.5
		s1.1,3.6,3.1,3.6C1176,200.6,1177.2,199,1177.2,197.1z"/>
</g>
<g class="st12">
	<path class="st13" d="M1082.6,219.3c0,4.7-3.7,8.3-8.3,8.3s-8.3-3.5-8.3-8.3c0-4.5,3.8-8.3,8.3-8.3S1082.6,214.7,1082.6,219.3z
		 M1080.6,219.3c0-3.5-2.6-6.4-6.3-6.4c-3.7,0-6.3,2.9-6.3,6.4c0,3.6,2.9,6.4,6.3,6.4S1080.6,222.9,1080.6,219.3z"/>
	<path class="st13" d="M1086,219L1086,219c0.8-1.2,2-1.9,3.5-1.9c2.8,0,4.6,2.5,4.6,5.1c0,2.8-1.7,5.3-4.7,5.3
		c-1.4,0-2.6-0.8-3.3-1.9l0,0v7.2h-1.9v-15.5h1.9L1086,219L1086,219z M1092.2,222.3c0-1.9-1.2-3.5-3.2-3.5s-3.1,1.7-3.1,3.5
		s1.1,3.6,3.1,3.6C1091.1,225.8,1092.2,224.2,1092.2,222.3z"/>
	<path class="st13" d="M1097.1,222.6c0,1.7,1.2,3.3,3,3.3c1.4,0,2.2-0.7,2.9-1.9l1.6,0.9c-0.9,1.7-2.6,2.7-4.6,2.7
		c-3,0-4.8-2.3-4.8-5.2c0-3,1.6-5.3,4.8-5.3c3.1,0,4.6,2.3,4.6,5.2v0.3H1097.1z M1102.7,221.2c-0.2-1.5-1.2-2.5-2.7-2.5
		s-2.6,1-2.8,2.5H1102.7z"/>
	<path class="st13" d="M1108.2,218.9L1108.2,218.9c0.5-1.2,1.5-1.9,2.8-1.9c0.5,0,1.1,0.2,1.6,0.5l-0.9,1.7
		c-0.3-0.3-0.7-0.4-1.2-0.4c-2,0-2.3,1.9-2.3,3.5v4.8h-1.9v-9.8h1.9V218.9z"/>
	<path class="st13" d="M1122.8,227.2h-1.9v-1.5l0,0c-0.8,1.1-1.9,1.9-3.3,1.9c-3,0-4.7-2.5-4.7-5.3c0-2.7,1.8-5.1,4.6-5.1
		c1.4,0,2.6,0.8,3.4,1.9l0,0v-1.6h1.9V227.2z M1121,222.3c0-1.9-1.2-3.5-3.2-3.5s-3.1,1.7-3.1,3.5s1.1,3.6,3.1,3.6
		C1119.9,225.8,1121,224.2,1121,222.3z"/>
	<path class="st13" d="M1127.4,227.2h-1.9v-8.1h-1v-1.8h1v-3.8h1.9v3.8h1.8v1.8h-1.8V227.2z"/>
	<path class="st13" d="M1131.4,222.6c0,1.7,1.2,3.3,3,3.3c1.4,0,2.2-0.7,2.9-1.9l1.6,0.9c-0.9,1.7-2.6,2.7-4.6,2.7
		c-3,0-4.8-2.3-4.8-5.2c0-3,1.6-5.3,4.8-5.3c3.1,0,4.6,2.3,4.6,5.2v0.3H1131.4z M1137,221.2c-0.2-1.5-1.2-2.5-2.7-2.5
		s-2.6,1-2.8,2.5H1137z"/>
	<path class="st13" d="M1149.5,216.7L1149.5,216.7l-1.9,10.5h-2l3.2-16.5l5.4,12.5l5.4-12.5l3.2,16.5h-2l-1.8-10.5l0,0l-4.7,10.8
		L1149.5,216.7z"/>
	<path class="st13" d="M1174.1,222.3c0,3-2.3,5.2-5.2,5.2s-5.2-2.3-5.2-5.2c0-3,2.3-5.2,5.2-5.2S1174.1,219.3,1174.1,222.3z
		 M1165.5,222.3c0,1.8,1.5,3.4,3.4,3.4s3.4-1.6,3.4-3.4c0-1.9-1.5-3.4-3.4-3.4C1167,218.9,1165.5,220.4,1165.5,222.3z"/>
	<path class="st13" d="M1183.1,225.6L1183.1,225.6c-0.8,1.1-2,1.9-3.4,1.9c-3,0-4.7-2.5-4.7-5.3c0-2.7,1.8-5.1,4.6-5.1
		c1.5,0,2.6,0.8,3.4,1.9l0,0v-10h1.9v18.2h-1.9L1183.1,225.6L1183.1,225.6z M1183.2,222.3c0-1.9-1.2-3.5-3.2-3.5s-3.1,1.7-3.1,3.5
		s1.1,3.6,3.1,3.6C1182.1,225.8,1183.2,224.2,1183.2,222.3z"/>
	<path class="st13" d="M1188.6,222.6c0,1.7,1.2,3.3,3,3.3c1.4,0,2.2-0.7,2.9-1.9l1.6,0.9c-0.9,1.7-2.6,2.7-4.6,2.7
		c-3,0-4.8-2.3-4.8-5.2c0-3,1.6-5.3,4.8-5.3c3.1,0,4.6,2.3,4.6,5.2v0.3H1188.6z M1194.2,221.2c-0.2-1.5-1.2-2.5-2.7-2.5
		s-2.6,1-2.8,2.5H1194.2z"/>
	<path class="st13" d="M1199.7,227.2h-1.9V209h1.9V227.2z"/>
</g>
<line class="st14" x1="1014.7" y1="262.7" x2="1057.3" y2="213.8"/>
<polyline class="st14" points="213.1,411.6 186,534 301.4,489.3 "/>
</svg>
