<?xml version="1.0" standalone="no"?>
<!DOCTYPE svg PUBLIC "-//W3C//DTD SVG 20010904//EN"
 "http://www.w3.org/TR/2001/REC-SVG-20010904/DTD/svg10.dtd">
<svg version="1.0" xmlns="http://www.w3.org/2000/svg"
 width="320.000000pt" height="320.000000pt" viewBox="0 0 320.000000 320.000000"
 preserveAspectRatio="xMidYMid meet">

<g transform="translate(0.000000,320.000000) scale(0.100000,-0.100000)"
fill="#000000" stroke="none">
<path d="M540 2184 c-108 -21 -229 -84 -307 -161 -49 -48 -109 -137 -119 -175
l-6 -28 142 0 142 0 -6 -77 -7 -78 22 40 c29 54 75 102 124 128 35 19 56 22
167 22 138 0 155 6 202 69 29 39 30 143 0 183 -38 52 -102 75 -222 79 -59 1
-118 0 -132 -2z"/>
<path d="M2962 1938 c-17 -17 -17 -414 1 -447 20 -40 62 -64 119 -69 60 -5 82
10 76 50 -2 18 -12 25 -43 32 -22 4 -46 10 -52 12 -9 2 -13 32 -13 104 l0 100
50 0 c54 0 76 19 59 52 -7 14 -22 18 -59 18 l-50 0 0 68 c0 74 -10 92 -50 92
-14 0 -31 -5 -38 -12z"/>
<path d="M1297 1789 c-84 -19 -117 -72 -117 -185 0 -74 16 -118 55 -154 24
-22 35 -25 110 -25 67 0 87 4 104 19 41 37 14 90 -35 67 -14 -6 -42 -11 -64
-11 -58 0 -83 36 -78 112 5 72 26 98 79 98 21 0 50 -5 65 -12 23 -11 28 -10
40 7 19 26 14 44 -16 65 -31 22 -93 30 -143 19z"/>
<path d="M1651 1790 c-42 -10 -79 -37 -108 -80 -19 -27 -23 -47 -23 -105 0
-82 20 -122 80 -163 29 -20 45 -23 95 -20 99 6 153 61 162 167 12 130 -87 227
-206 201z m86 -102 c33 -31 33 -131 1 -165 -26 -28 -67 -30 -99 -4 -21 17 -24
28 -24 84 0 50 4 70 19 86 25 28 73 27 103 -1z"/>
<path d="M2096 1789 c-16 -5 -39 -17 -51 -29 l-22 -21 -6 20 c-6 26 -29 35
-62 27 l-25 -6 0 -170 c0 -162 1 -170 21 -181 16 -8 28 -8 45 0 23 10 24 15
24 110 0 99 10 149 33 163 26 16 66 8 86 -18 18 -23 21 -41 21 -135 0 -98 2
-109 20 -119 11 -6 31 -8 45 -4 25 6 25 7 25 115 0 61 5 119 12 134 21 46 101
46 118 -1 6 -14 10 -72 10 -129 0 -96 2 -105 21 -116 16 -8 28 -8 45 0 23 10
24 14 24 131 0 82 -5 132 -14 155 -19 45 -69 75 -123 75 -35 0 -50 -7 -81 -34
l-38 -35 -26 33 c-29 37 -58 46 -102 35z"/>
<path d="M2631 1768 c-56 -38 -75 -71 -79 -141 -5 -82 13 -132 61 -171 34 -27
48 -31 111 -34 75 -4 117 8 146 43 11 14 10 19 -7 36 -19 20 -22 20 -51 5 -68
-35 -162 -6 -162 50 0 24 2 24 88 24 111 0 136 12 140 65 7 84 -48 138 -148
143 -55 3 -70 0 -99 -20z m141 -65 c10 -9 18 -27 18 -40 0 -22 -3 -23 -70 -23
-65 0 -70 1 -70 22 0 52 80 79 122 41z"/>
</g>
</svg>
