<svg width="200" height="200" fill="none" xmlns="http://www.w3.org/2000/svg"><g clip-path="url(#a)"><path d="M0 131.108V42.865a2.443 2.443 0 0 1 .734-1.799 2.295 2.295 0 0 1 1.667-.733h32.533c12.889 0 23.911 4.554 33.067 13.663 9.155 9.108 13.733 20.06 13.733 32.857 0 12.886-4.578 23.905-13.733 33.058-9.156 9.153-20.178 13.729-33.067 13.729H2.4a2.296 2.296 0 0 1-1.667-.733A2.447 2.447 0 0 1 0 131.108Zm20.8-17.195h12.8c7.467 0 13.667-2.6 18.6-7.798 4.934-5.199 7.4-11.62 7.4-19.262 0-7.553-2.466-13.93-7.4-19.128-4.933-5.198-11.133-7.797-18.6-7.797H20.8v53.985Z" fill="#13ADC7"/><path d="m95.118 155.723-41.6-89.708c-.445-.889-.423-1.689.066-2.4.49-.71 1.222-1.066 2.2-1.066h17.734c1.155 0 1.91.489 2.266 1.466l22 48.653h.8l22-48.653c.356-.977 1.111-1.466 2.267-1.466h17.733c.978 0 1.711.355 2.2 1.066.489.711.511 1.511.067 2.4l-41.867 89.708c-.533.978-1.289 1.466-2.266 1.466h-1.334c-.978 0-1.733-.488-2.266-1.466Z" fill="#945DD6"/><path d="M128.865 121.111c-9.333-9.331-14-20.661-14-33.991 0-13.33 4.689-24.682 14.067-34.057C138.31 43.688 149.665 39 162.999 39c12.444 0 23.2 4.132 32.266 12.397 1.334 1.244 1.378 2.488.134 3.732l-10.4 10.797c-1.156 1.066-2.267 1.066-3.334 0-5.066-4.532-11.066-6.798-18-6.798-7.466 0-13.689 2.688-18.666 8.064-4.978 5.377-7.467 11.841-7.467 19.395 0 7.464 2.511 13.84 7.533 19.128 5.022 5.287 11.267 7.931 18.734 7.931 6.933 0 12.888-2.133 17.866-6.398 1.245-1.067 2.4-1.022 3.467.133l10.4 11.064c1.155 1.155 1.111 2.355-.133 3.599-8.889 8.62-19.689 12.929-32.4 12.929-13.334 0-24.712-4.62-34.134-13.862Z" fill="#F46737"/></g><defs><clipPath id="a"><path fill="#fff" d="M0 0h200v200H0z"/></clipPath></defs></svg>