<?xml version="1.0" standalone="no"?>
<!DOCTYPE svg PUBLIC "-//W3C//DTD SVG 20010904//EN"
 "http://www.w3.org/TR/2001/REC-SVG-20010904/DTD/svg10.dtd">
<svg version="1.0" xmlns="http://www.w3.org/2000/svg"
 width="734.000000pt" height="219.000000pt" viewBox="0 0 734.000000 219.000000"
 preserveAspectRatio="xMidYMid meet">

<g transform="translate(0.000000,219.000000) scale(0.100000,-0.100000)"
fill="#000000" stroke="none">
<path d="M1210 1070 l0 -570 125 0 125 0 0 570 0 570 -125 0 -125 0 0 -570z"/>
<path d="M780 930 l0 -431 123 3 122 3 3 428 2 427 -125 0 -125 0 0 -430z"/>
<path d="M1800 1060 l0 -280 210 0 210 0 0 45 0 45 -155 0 -155 0 0 75 0 74
133 3 132 3 0 40 0 40 -132 3 -133 3 0 69 0 70 150 0 150 0 0 45 0 45 -205 0
-205 0 0 -280z"/>
<path d="M2220 1323 c0 -10 52 -135 114 -278 l114 -260 52 0 51 0 119 274 c66
151 120 276 120 278 0 2 -22 3 -49 3 l-49 0 -92 -215 c-52 -118 -96 -212 -99
-210 -3 2 -46 98 -96 214 l-90 211 -47 0 c-39 0 -48 -3 -48 -17z"/>
<path d="M2810 1060 l0 -280 50 0 50 0 0 280 0 280 -50 0 -50 0 0 -280z"/>
<path d="M3010 1060 l0 -282 168 4 c186 4 233 17 300 81 60 57 77 101 77 197
0 96 -17 140 -77 197 -67 64 -114 77 -300 81 l-168 4 0 -282z m337 175 c50
-21 72 -42 94 -90 24 -51 24 -119 0 -170 -37 -80 -90 -105 -226 -105 l-95 0 0
190 0 190 95 0 c63 0 108 -5 132 -15z"/>
<path d="M3630 1060 l0 -280 205 0 205 0 0 45 0 45 -155 0 -155 0 0 75 0 75
135 0 135 0 0 45 0 45 -135 0 -135 0 0 70 0 70 150 0 150 0 0 45 0 45 -200 0
-200 0 0 -280z"/>
<path d="M4120 1060 l0 -280 50 0 50 0 2 187 3 186 150 -184 c149 -181 151
-184 193 -187 l42 -3 0 280 0 281 -50 0 -50 0 0 -191 0 -191 -156 191 c-154
189 -156 191 -195 191 l-39 0 0 -280z"/>
<path d="M4642 1298 l3 -43 93 -3 92 -3 0 -234 0 -235 50 0 50 0 0 235 0 234
93 3 92 3 3 43 3 42 -241 0 -241 0 3 -42z"/>
<path d="M5150 1060 l0 -280 195 0 195 0 0 45 0 45 -145 0 -145 0 0 235 0 235
-50 0 -50 0 0 -280z"/>
<path d="M5456 1313 c10 -16 60 -98 111 -183 l93 -155 0 -97 0 -98 50 0 50 0
0 100 0 100 110 180 110 180 -50 0 -49 0 -82 -135 c-45 -74 -85 -132 -89 -130
-4 3 -42 63 -85 135 l-77 130 -55 0 -55 0 18 -27z"/>
<path d="M6353 1328 c-11 -15 -243 -531 -243 -541 0 -4 22 -7 49 -7 l49 0 27
65 28 65 141 0 141 0 26 -63 25 -62 52 -3 c29 -2 52 1 52 5 -1 4 -56 130 -123
278 l-122 270 -46 3 c-29 2 -49 -2 -56 -10z m105 -218 l50 -115 -100 -3 c-55
-1 -102 -1 -104 1 -2 2 14 46 37 98 23 52 45 105 50 118 5 13 11 22 13 20 2
-2 27 -56 54 -119z"/>
<path d="M6737 1334 c-4 -4 -7 -130 -7 -281 l0 -273 55 0 55 0 -2 278 -3 277
-45 3 c-25 2 -49 0 -53 -4z"/>
<path d="M350 785 l0 -285 120 0 120 0 0 285 0 285 -120 0 -120 0 0 -285z"/>
</g>
</svg>
