<?xml version="1.0" standalone="no"?>
<!DOCTYPE svg PUBLIC "-//W3C//DTD SVG 20010904//EN"
 "http://www.w3.org/TR/2001/REC-SVG-20010904/DTD/svg10.dtd">
<svg version="1.0" xmlns="http://www.w3.org/2000/svg"
 width="311.000000pt" height="162.000000pt" viewBox="0 0 311.000000 162.000000"
 preserveAspectRatio="xMidYMid meet">

<g transform="translate(0.000000,162.000000) scale(0.100000,-0.100000)"
fill="#000000" stroke="none">
<path d="M390 1532 l-135 -77 -3 -167 -2 -166 90 -51 c49 -28 92 -51 95 -51 3
0 5 74 5 164 l0 164 112 62 c107 60 112 62 137 47 14 -8 27 -19 28 -24 2 -4
-44 -35 -102 -68 l-105 -60 0 -167 c0 -92 4 -169 9 -172 5 -4 16 -3 25 0 14 5
16 28 16 154 l0 149 93 52 c135 76 167 98 167 113 0 7 -36 34 -79 59 l-80 47
-140 -81 -141 -81 0 -129 c0 -71 -3 -129 -6 -129 -3 0 -19 8 -35 17 l-29 17 0
132 0 132 123 71 c169 98 155 88 132 105 -11 9 -24 15 -30 15 -5 0 -71 -35
-145 -77z"/>
<path d="M2289 1407 c-25 -17 -35 -31 -37 -56 -5 -45 17 -66 95 -92 47 -15 63
-25 61 -37 -6 -29 -54 -38 -103 -21 -42 15 -43 15 -53 -6 -13 -27 6 -41 71
-50 83 -13 147 25 147 86 0 35 -27 57 -97 78 -66 20 -81 43 -38 63 19 9 37 9
66 1 35 -9 41 -8 49 8 14 26 14 27 -27 38 -59 17 -97 13 -134 -12z"/>
<path d="M1140 1285 l0 -135 30 0 c29 0 30 1 30 50 l0 50 65 0 c63 0 65 1 65
25 0 24 -2 25 -66 25 l-65 0 3 38 3 37 60 1 c86 3 85 2 85 24 0 19 -7 20 -105
20 l-105 0 0 -135z"/>
<path d="M1490 1285 l0 -135 111 0 c109 0 110 0 107 23 -3 20 -9 22 -80 25
l-78 3 0 29 0 30 65 0 c63 0 65 1 65 25 0 24 -2 25 -66 25 l-65 0 3 33 3 32
72 0 c69 0 73 1 73 23 0 21 -3 22 -105 22 l-105 0 0 -135z"/>
<path d="M1887 1293 c-31 -71 -57 -132 -57 -136 0 -4 13 -7 29 -7 22 0 31 6
41 30 12 29 15 30 77 30 63 0 65 -1 76 -30 9 -25 17 -30 44 -30 l32 0 -14 33
c-97 228 -99 232 -136 235 l-34 3 -58 -128z m127 -20 c7 -21 4 -23 -33 -23
-47 0 -48 5 -24 68 l17 44 16 -33 c10 -19 21 -44 24 -56z"/>
<path d="M2580 1395 c0 -23 4 -25 45 -25 l45 0 0 -110 0 -110 30 0 30 0 0 110
0 110 45 0 c41 0 45 2 45 25 l0 25 -120 0 -120 0 0 -25z"/>
<path d="M718 1277 c-77 -45 -88 -54 -88 -79 0 -15 3 -28 7 -28 3 0 30 14 60
30 29 17 55 30 58 30 3 0 5 -17 5 -37 0 -36 -3 -40 -63 -73 -54 -31 -62 -40
-65 -69 -2 -18 1 -32 5 -30 5 2 48 26 96 53 l87 50 0 103 c0 57 -3 103 -7 102
-5 0 -47 -24 -95 -52z"/>
</g>
</svg>
