<svg version="1.1" id="Layer_1" xmlns="http://www.w3.org/2000/svg" xmlns:xlink="http://www.w3.org/1999/xlink" x="0px" y="0px"
	 width="100%" viewBox="0 0 1280 789" enable-background="new 0 0 1280 789" xml:space="preserve">
<path fill="#000000" opacity="1.000000" stroke="none" 
	d="
M719.000000,790.000000 
	C479.362183,790.000000 240.224350,790.000000 1.086517,790.000000 
	C1.057678,789.862183 1.003558,789.724365 1.003556,789.586548 
	C0.999996,526.784912 1.000000,263.983276 1.000000,1.090827 
	C427.554657,1.090827 854.109375,1.090827 1280.832031,1.090827 
	C1280.832031,263.999908 1280.832031,526.999939 1280.832031,790.000000 
	C1093.787476,790.000000 906.643738,790.000000 719.000000,790.000000 
M318.255280,234.208328 
	C312.540131,240.597931 306.598724,246.801117 301.152161,253.411972 
	C284.616028,273.482971 272.602142,296.085663 263.966797,320.574860 
	C257.469208,339.001434 253.487350,358.048950 252.247589,377.401764 
	C250.971222,397.325989 251.140106,417.457977 255.168503,437.160400 
	C260.616760,463.807129 269.693268,489.171661 283.873413,512.567749 
	C293.504089,528.457581 304.375610,543.337646 318.226654,556.703918 
	C389.523987,630.298157 521.356079,651.817749 619.741638,574.503052 
	C616.806213,569.477661 613.874756,564.449951 610.934753,559.427246 
	C601.607056,543.491272 592.316406,527.533386 582.932068,511.630859 
	C576.908020,501.422607 570.699341,491.323364 564.679199,481.112854 
	C563.408081,478.956940 562.530029,478.372223 560.246643,480.140106 
	C552.551697,486.097809 544.915100,492.191498 536.784546,497.512665 
	C521.608276,507.445007 504.382172,511.531555 486.582977,512.900879 
	C468.361877,514.302612 450.675354,511.004395 433.908691,503.856781 
	C420.039154,497.944092 407.407654,489.902527 396.738922,478.296875 
	C393.157471,474.213531 389.259979,470.363007 386.049896,466.006042 
	C373.020538,448.321625 365.100555,428.748505 362.775970,406.649567 
	C361.178162,391.460052 362.904663,376.930359 366.870514,362.433197 
	C372.166748,343.072968 382.852112,326.840912 396.703278,311.807434 
	C398.943207,309.896820 401.220428,308.028015 403.416656,306.068420 
	C413.255219,297.289856 424.516815,290.777100 436.722198,286.054321 
	C455.004669,278.980103 473.858978,276.228790 493.515930,278.884399 
	C505.548492,280.509949 517.100952,283.437103 528.029907,288.580566 
	C539.731262,294.087555 550.642822,300.892792 559.715698,310.271912 
	C561.882812,312.512146 563.247925,312.607819 564.846680,309.725800 
	C567.439880,305.051025 570.328247,300.541138 573.016602,295.917786 
	C588.018494,270.117859 602.972290,244.289993 618.028503,218.521866 
	C619.350281,216.259796 619.323669,215.148209 617.044495,213.400406 
	C600.809204,200.950409 583.195190,191.028198 564.147217,183.583435 
	C533.368408,171.553787 501.650024,165.885651 468.485321,167.847321 
	C451.280334,168.864990 434.494263,171.334473 417.879242,175.874161 
	C397.215851,181.519958 377.762146,189.854126 359.652008,201.157700 
	C344.786469,210.436127 330.623596,220.732574 318.255280,234.208328 
M962.824219,233.313278 
	C954.793396,226.287659 947.061768,218.879257 938.667969,212.317978 
	C922.339417,199.554123 904.092102,190.063980 884.868469,182.409592 
	C862.002808,173.305023 838.107178,168.662643 813.691162,167.154495 
	C796.253296,166.077393 778.888489,167.796097 761.593079,170.839661 
	C740.332642,174.580963 720.136353,181.275055 700.838867,190.694946 
	C682.940308,199.431931 666.638855,210.577911 651.579712,223.726517 
	C637.988953,235.593018 626.209900,248.906891 615.794922,263.550140 
	C600.801208,284.631256 589.835632,307.589111 582.754944,332.492096 
	C577.639221,350.484253 574.493591,368.793060 574.166748,387.425201 
	C573.950623,399.747894 574.579102,412.198792 576.206055,424.408875 
	C577.868347,436.883850 580.617004,449.297729 583.945984,461.449097 
	C590.452759,485.200043 600.958130,507.241364 615.698853,526.993591 
	C623.503052,537.451050 632.461182,547.047302 641.167725,557.651917 
	C646.022583,562.161377 650.642639,566.959900 655.774353,571.128540 
	C674.518311,586.355042 694.890869,598.916809 717.434265,607.784180 
	C742.282959,617.558289 768.109680,623.419556 794.737488,623.716553 
	C811.434204,623.902832 828.283997,622.172241 844.842590,619.768738 
	C863.237549,617.098572 880.844177,611.055481 897.726562,603.077515 
	C916.886475,594.023315 934.654541,582.965576 950.707153,568.986572 
	C964.111145,557.314148 976.339111,544.572266 986.786926,530.326538 
	C997.990234,515.050659 1007.208374,498.532410 1014.124268,480.748260 
	C1023.626526,456.312988 1029.602783,431.215820 1029.985352,404.917389 
	C1030.082764,398.226196 1030.567871,391.473663 1029.882324,384.852020 
	C1028.433838,370.859131 1027.133789,356.768982 1024.310303,343.019104 
	C1019.900085,321.543091 1011.747986,301.288361 1000.676941,282.317627 
	C990.303223,264.541809 978.517578,247.816711 962.824219,233.313278 
z"/>
<path fill="#E8710A" opacity="1.000000" stroke="none" 
	d="
M963.110229,233.926819 
	C978.517578,247.816711 990.303223,264.541809 1000.676941,282.317627 
	C1011.747986,301.288361 1019.900085,321.543091 1024.310303,343.019104 
	C1027.133789,356.768982 1028.433838,370.859131 1029.882324,384.852020 
	C1030.567871,391.473663 1030.082764,398.226196 1029.985352,404.917389 
	C1029.602783,431.215820 1023.626526,456.312988 1014.124268,480.748260 
	C1007.208374,498.532410 997.990234,515.050659 986.786926,530.326538 
	C976.339111,544.572266 964.111145,557.314148 950.707153,568.986572 
	C934.654541,582.965576 916.886475,594.023315 897.726562,603.077515 
	C880.844177,611.055481 863.237549,617.098572 844.842590,619.768738 
	C828.283997,622.172241 811.434204,623.902832 794.737488,623.716553 
	C768.109680,623.419556 742.282959,617.558289 717.434265,607.784180 
	C694.890869,598.916809 674.518311,586.355042 655.774353,571.128540 
	C650.642639,566.959900 646.022583,562.161377 641.212646,557.055908 
	C666.653870,531.005615 692.048889,505.550140 717.455872,480.106689 
	C717.918762,479.643188 718.525208,479.323090 719.414001,478.971680 
	C723.278625,481.945221 726.692871,485.014893 730.325073,487.800354 
	C759.890930,510.473694 792.998718,518.292114 829.301819,509.860046 
	C858.429382,503.094635 881.933228,487.273163 899.001221,462.460541 
	C909.981079,446.498444 916.785950,428.969818 919.119629,409.599945 
	C921.057678,393.514618 919.702209,377.932251 915.235291,362.381317 
	C909.687134,343.066467 899.039978,326.889191 886.101379,311.769562 
	C910.443115,287.227844 934.620483,262.983704 958.779358,238.721115 
	C960.297119,237.196869 961.669983,235.528275 963.110229,233.926819 
z"/>
<path fill="#F9AB00" opacity="1.000000" stroke="none" 
	d="
M962.967224,233.620056 
	C961.669983,235.528275 960.297119,237.196869 958.779358,238.721115 
	C934.620483,262.983704 910.443115,287.227844 885.754639,311.736084 
	C881.730591,309.069916 878.231812,306.131897 874.711426,303.219879 
	C857.031250,288.594910 836.519653,280.199219 813.905579,278.246552 
	C796.433472,276.737885 779.122009,278.402863 762.187683,284.786591 
	C738.239197,293.814423 719.227539,308.533264 704.912537,329.482727 
	C690.571289,350.470520 684.043579,373.628387 684.830078,399.194305 
	C685.368164,416.683746 689.194946,433.250580 697.421936,448.335663 
	C703.363403,459.229980 711.761902,468.784210 719.064636,478.936096 
	C718.525208,479.323090 717.918762,479.643188 717.455872,480.106689 
	C692.048889,505.550140 666.653870,531.005615 641.078003,556.746094 
	C632.461182,547.047302 623.503052,537.451050 615.698853,526.993591 
	C600.958130,507.241364 590.452759,485.200043 583.945984,461.449097 
	C580.617004,449.297729 577.868347,436.883850 576.206055,424.408875 
	C574.579102,412.198792 573.950623,399.747894 574.166748,387.425201 
	C574.493591,368.793060 577.639221,350.484253 582.754944,332.492096 
	C589.835632,307.589111 600.801208,284.631256 615.794922,263.550140 
	C626.209900,248.906891 637.988953,235.593018 651.579712,223.726517 
	C666.638855,210.577911 682.940308,199.431931 700.838867,190.694946 
	C720.136353,181.275055 740.332642,174.580963 761.593079,170.839661 
	C778.888489,167.796097 796.253296,166.077393 813.691162,167.154495 
	C838.107178,168.662643 862.002808,173.305023 884.868469,182.409592 
	C904.092102,190.063980 922.339417,199.554123 938.667969,212.317978 
	C947.061768,218.879257 954.793396,226.287659 962.967224,233.620056 
z"/>
<path fill="#E8710A" opacity="1.000000" stroke="none" 
	d="
M396.084808,312.086456 
	C382.852112,326.840912 372.166748,343.072968 366.870514,362.433197 
	C362.904663,376.930359 361.178162,391.460052 362.775970,406.649567 
	C365.100555,428.748505 373.020538,448.321625 386.049896,466.006042 
	C389.259979,470.363007 393.157471,474.213531 396.460938,478.712646 
	C394.544189,480.511505 392.794922,481.783997 391.283112,483.294220 
	C368.441833,506.111694 345.636963,528.965698 322.802643,551.790100 
	C321.281036,553.311096 319.591675,554.664246 317.980316,556.095398 
	C304.375610,543.337646 293.504089,528.457581 283.873413,512.567749 
	C269.693268,489.171661 260.616760,463.807129 255.168503,437.160400 
	C251.140106,417.457977 250.971222,397.325989 252.247589,377.401764 
	C253.487350,358.048950 257.469208,339.001434 263.966797,320.574860 
	C272.602142,296.085663 284.616028,273.482971 301.152161,253.411972 
	C306.598724,246.801117 312.540131,240.597931 318.730835,234.367599 
	C338.063324,253.754669 356.885040,273.017181 375.796143,292.191528 
	C382.446320,298.934326 389.315582,305.461060 396.084808,312.086456 
z"/>
<path fill="#F9AB00" opacity="1.000000" stroke="none" 
	d="
M396.394043,311.946960 
	C389.315582,305.461060 382.446320,298.934326 375.796143,292.191528 
	C356.885040,273.017181 338.063324,253.754669 319.033386,234.233398 
	C330.623596,220.732574 344.786469,210.436127 359.652008,201.157700 
	C377.762146,189.854126 397.215851,181.519958 417.879242,175.874161 
	C434.494263,171.334473 451.280334,168.864990 468.485321,167.847321 
	C501.650024,165.885651 533.368408,171.553787 564.147217,183.583435 
	C583.195190,191.028198 600.809204,200.950409 617.044495,213.400406 
	C619.323669,215.148209 619.350281,216.259796 618.028503,218.521866 
	C602.972290,244.289993 588.018494,270.117859 573.016602,295.917786 
	C570.328247,300.541138 567.439880,305.051025 564.846680,309.725800 
	C563.247925,312.607819 561.882812,312.512146 559.715698,310.271912 
	C550.642822,300.892792 539.731262,294.087555 528.029907,288.580566 
	C517.100952,283.437103 505.548492,280.509949 493.515930,278.884399 
	C473.858978,276.228790 455.004669,278.980103 436.722198,286.054321 
	C424.516815,290.777100 413.255219,297.289856 403.416656,306.068420 
	C401.220428,308.028015 398.943207,309.896820 396.394043,311.946960 
z"/>
<path fill="#F9AB00" opacity="1.000000" stroke="none" 
	d="
M318.103485,556.399658 
	C319.591675,554.664246 321.281036,553.311096 322.802643,551.790100 
	C345.636963,528.965698 368.441833,506.111694 391.283112,483.294220 
	C392.794922,481.783997 394.544189,480.511505 396.505402,479.039734 
	C407.407654,489.902527 420.039154,497.944092 433.908691,503.856781 
	C450.675354,511.004395 468.361877,514.302612 486.582977,512.900879 
	C504.382172,511.531555 521.608276,507.445007 536.784546,497.512665 
	C544.915100,492.191498 552.551697,486.097809 560.246643,480.140106 
	C562.530029,478.372223 563.408081,478.956940 564.679199,481.112854 
	C570.699341,491.323364 576.908020,501.422607 582.932068,511.630859 
	C592.316406,527.533386 601.607056,543.491272 610.934753,559.427246 
	C613.874756,564.449951 616.806213,569.477661 619.743469,574.501953 
	C521.356079,651.817749 389.523987,630.298157 318.103485,556.399658 
z"/>
<path fill="#000000" opacity="1.000000" stroke="none" 
	d="
M719.414001,478.971649 
	C711.761902,468.784210 703.363403,459.229980 697.421936,448.335663 
	C689.194946,433.250580 685.368164,416.683746 684.830078,399.194305 
	C684.043579,373.628387 690.571289,350.470520 704.912537,329.482727 
	C719.227539,308.533264 738.239197,293.814423 762.187683,284.786591 
	C779.122009,278.402863 796.433472,276.737885 813.905579,278.246552 
	C836.519653,280.199219 857.031250,288.594910 874.711426,303.219879 
	C878.231812,306.131897 881.730591,309.069916 885.586060,312.029419 
	C899.039978,326.889191 909.687134,343.066467 915.235291,362.381317 
	C919.702209,377.932251 921.057678,393.514618 919.119629,409.599945 
	C916.785950,428.969818 909.981079,446.498444 899.001221,462.460541 
	C881.933228,487.273163 858.429382,503.094635 829.301819,509.860046 
	C792.998718,518.292114 759.890930,510.473694 730.325073,487.800354 
	C726.692871,485.014893 723.278625,481.945221 719.414001,478.971649 
z"/>
</svg>