<?xml version="1.0" standalone="no"?>
<!DOCTYPE svg PUBLIC "-//W3C//DTD SVG 20010904//EN"
 "http://www.w3.org/TR/2001/REC-SVG-20010904/DTD/svg10.dtd">
<svg version="1.0" xmlns="http://www.w3.org/2000/svg"
 width="222.000000pt" height="227.000000pt" viewBox="0 0 222.000000 227.000000"
 preserveAspectRatio="xMidYMid meet">

<g transform="translate(0.000000,227.000000) scale(0.100000,-0.100000)"
fill="#000000" stroke="none">
<path d="M1124 2217 c-26 -23 -43 -45 -40 -53 3 -8 1 -13 -5 -11 -14 3 -49
-61 -49 -90 0 -12 -5 -25 -12 -29 -7 -4 -8 -3 -4 4 4 7 1 12 -7 12 -23 0 -68
-26 -59 -34 4 -5 0 -7 -8 -6 -28 4 -39 0 -61 -22 -12 -13 -18 -17 -14 -9 6 10
-3 8 -26 -6 -24 -14 -41 -18 -59 -13 -14 5 -18 9 -10 10 8 1 2 6 -15 11 -50
15 -211 7 -200 -11 5 -8 -19 -20 -38 -19 -7 0 -3 4 8 9 14 6 16 9 4 9 -8 1
-23 -5 -34 -13 -16 -11 -17 -22 -12 -87 5 -69 34 -170 52 -187 4 -4 5 -1 0 7
-6 10 -4 12 4 7 7 -4 10 -13 8 -19 -2 -7 5 -25 16 -41 16 -23 17 -30 6 -37 -9
-6 -10 -9 -2 -9 6 0 15 5 18 10 3 6 17 10 31 10 13 0 24 5 24 11 0 5 -4 7 -10
4 -6 -4 -7 1 -3 11 5 15 7 14 17 -2 16 -30 16 -44 -2 -45 -12 0 -10 -3 6 -9
12 -5 22 -12 22 -14 0 -3 -6 -3 -14 0 -8 3 -17 1 -20 -4 -3 -5 5 -9 17 -8 12
0 22 7 22 15 0 25 38 30 57 7 16 -19 17 -19 11 -2 -4 13 -3 17 5 12 7 -4 12
-1 12 7 0 8 7 20 15 27 12 10 18 10 30 0 9 -8 15 -9 15 -2 0 6 -4 14 -10 17
-17 10 -11 23 8 18 20 -5 77 71 65 89 -3 6 -1 8 4 5 6 -4 19 5 29 18 10 14 23
25 27 25 16 0 56 37 49 45 -4 5 -1 5 5 1 16 -9 56 17 45 29 -4 4 1 5 10 2 19
-7 88 10 88 21 0 4 10 8 23 8 86 1 118 5 111 15 -4 7 1 7 16 -1 13 -7 39 -10
59 -7 32 5 163 -31 245 -68 14 -6 17 -5 12 3 -5 8 -2 10 9 5 11 -4 13 -8 5
-13 -7 -4 -2 -13 14 -23 28 -19 40 -22 31 -8 -3 5 0 13 7 17 7 4 10 3 5 -1 -4
-5 0 -17 10 -27 9 -10 12 -18 8 -18 -5 0 8 -18 30 -40 21 -21 42 -37 46 -34 4
2 11 -1 15 -7 4 -8 3 -9 -4 -5 -18 11 -14 -10 5 -25 14 -12 16 -12 8 0 -6 10
-4 12 4 7 7 -5 10 -13 8 -20 -3 -6 7 -27 20 -46 14 -19 23 -27 20 -18 -4 11 2
25 13 36 20 19 20 19 -1 66 -18 41 -23 46 -37 35 -14 -11 -15 -11 -4 1 15 18
16 34 0 24 -7 -4 -8 -3 -4 5 15 23 -76 135 -104 129 -8 -2 -16 5 -18 15 -2 9
1 17 7 17 6 0 8 -8 4 -17 -4 -14 -3 -15 6 -7 21 20 12 162 -10 149 -5 -4 -6 0
-3 8 8 21 -14 32 -56 28 -56 -4 -75 -11 -59 -22 9 -7 5 -7 -13 -3 -17 4 -28 2
-28 -4 0 -6 -17 -10 -39 -9 -22 0 -37 5 -35 9 3 4 -8 10 -23 14 -15 3 -43 10
-62 15 -19 4 -44 7 -55 5 -12 -2 -15 -1 -8 1 17 6 15 23 -9 63 -25 40 -54 71
-63 64 -3 -2 -4 -1 -1 3 3 3 -2 14 -11 24 -12 14 -21 16 -35 9 -12 -7 -20 -6
-25 2 -4 6 -3 8 4 4 6 -3 13 -3 16 2 15 24 -31 4 -70 -31z m27 -14 c13 -16 12
-17 -3 -4 -10 7 -18 15 -18 17 0 8 8 3 21 -13z m-44 -28 c0 -8 -4 -12 -9 -9
-5 3 -6 10 -3 15 9 13 12 11 12 -6z m-7 -50 c-14 -17 -30 -20 -30 -4 0 5 4 8
9 4 5 -3 12 -1 16 5 3 5 9 10 12 10 3 0 0 -7 -7 -15z m327 -81 c-3 -3 -12 -4
-19 -1 -8 3 -5 6 6 6 11 1 17 -2 13 -5z m-507 -64 c8 -5 11 -10 5 -10 -5 0
-17 5 -25 10 -8 5 -10 10 -5 10 6 0 17 -5 25 -10z m774 -26 c3 -8 2 -12 -4 -9
-6 3 -10 10 -10 16 0 14 7 11 14 -7z m-1177 -196 c-3 -8 -6 -5 -6 6 -1 11 2
17 5 13 3 -3 4 -12 1 -19z m326 -83 c-3 -9 -8 -14 -10 -11 -3 3 -2 9 2 15 9
16 15 13 8 -4z m1007 -15 c14 22 12 7 -5 -31 -8 -19 -14 -26 -15 -16 0 9 -6
17 -12 18 -10 0 -10 2 -1 5 7 3 9 13 6 22 -4 15 -3 15 6 2 10 -13 12 -13 21 0z"/>
<path d="M1280 1639 c0 -5 -8 -6 -17 -2 -15 5 -14 3 2 -10 20 -16 20 -16 -2
-17 -13 0 -23 5 -23 10 0 15 -17 12 -36 -7 -10 -10 -21 -19 -26 -19 -4 -1 -11
-2 -14 -3 -4 0 0 -9 7 -18 12 -15 12 -16 -4 -10 -24 9 -57 -9 -56 -31 0 -14 2
-14 6 -2 9 22 25 30 51 23 19 -4 23 -2 20 13 -2 11 2 18 7 18 6 -1 28 -5 50
-8 l40 -7 -28 15 c-15 8 -35 13 -45 10 -14 -5 -15 -4 -2 5 8 6 23 8 34 5 10
-4 56 -7 102 -7 46 -1 84 -5 84 -9 0 -4 7 -8 15 -8 8 0 15 7 15 16 0 9 8 23
18 31 15 13 14 14 -11 8 -18 -4 -26 -2 -22 4 4 7 -25 10 -80 9 -47 -1 -85 -5
-85 -9z"/>
<path d="M1529 1618 c-8 -27 -5 -36 9 -31 10 4 14 3 10 -2 -4 -4 0 -14 8 -22
8 -9 18 -12 22 -8 4 4 1 10 -6 12 -19 7 -4 23 16 17 9 -3 6 1 -7 9 -14 8 -32
12 -40 9 -9 -3 -12 -1 -7 6 4 7 5 12 2 12 -3 0 -6 -1 -7 -2z"/>
<path d="M780 1606 c0 -2 7 -7 16 -10 8 -3 12 -2 9 4 -6 10 -25 14 -25 6z"/>
<path d="M1880 1594 c0 -8 -4 -13 -9 -10 -5 3 -11 -3 -14 -14 -3 -11 -1 -20 4
-20 4 0 6 -8 2 -17 -3 -10 -3 -15 1 -12 4 4 9 15 11 25 2 11 7 29 11 42 3 12
4 22 0 22 -3 0 -6 -7 -6 -16z"/>
<path d="M590 1585 c-8 -9 -8 -15 -2 -15 12 0 26 19 19 26 -2 2 -10 -2 -17
-11z"/>
<path d="M557 1563 c-4 -3 -7 -11 -7 -17 0 -6 5 -5 12 2 6 6 9 14 7 17 -3 3
-9 2 -12 -2z"/>
<path d="M1605 1559 c-4 -6 -5 -12 -2 -15 2 -3 7 2 10 11 7 17 1 20 -8 4z"/>
<path d="M1218 1539 c-20 -11 -24 -29 -7 -29 5 0 7 5 3 12 -5 8 -2 9 9 5 22
-9 44 -15 34 -9 -4 2 0 11 10 19 17 13 16 13 -4 4 -27 -14 -36 -14 -28 -1 8
12 5 12 -17 -1z"/>
<path d="M1410 1545 c0 -2 10 -10 23 -16 20 -11 21 -11 8 4 -13 16 -31 23 -31
12z"/>
<path d="M1642 1536 c7 -8 15 -12 17 -11 5 6 -10 25 -20 25 -5 0 -4 -6 3 -14z"/>
<path d="M1480 1520 c-9 -6 -10 -10 -3 -10 6 0 15 5 18 10 8 12 4 12 -15 0z"/>
<path d="M1606 1522 c-2 -4 4 -8 14 -8 10 0 16 4 14 8 -3 4 -9 8 -14 8 -5 0
-11 -4 -14 -8z"/>
<path d="M1880 1519 c0 -5 5 -7 10 -4 6 3 10 8 10 11 0 2 -4 4 -10 4 -5 0 -10
-5 -10 -11z"/>
<path d="M760 1510 c0 -5 5 -10 11 -10 5 0 7 5 4 10 -3 6 -8 10 -11 10 -2 0
-4 -4 -4 -10z"/>
<path d="M1445 1500 c3 -5 8 -10 11 -10 2 0 4 5 4 10 0 6 -5 10 -11 10 -5 0
-7 -4 -4 -10z"/>
<path d="M1063 1468 c-15 -20 -25 -38 -20 -38 3 0 12 11 21 25 17 26 16 35 -1
13z"/>
<path d="M1497 1469 c7 -7 15 -10 18 -7 3 3 -2 9 -12 12 -14 6 -15 5 -6 -5z"/>
<path d="M1120 1435 c0 -5 5 -17 10 -25 5 -8 10 -10 10 -5 0 6 -5 17 -10 25
-5 8 -10 11 -10 5z"/>
<path d="M171 448 c-65 -14 -145 -97 -159 -164 -32 -152 64 -277 214 -278 110
0 192 70 214 183 5 30 10 55 10 57 0 2 -56 4 -125 4 l-125 0 0 -25 c0 -24 1
-24 96 -27 l95 -3 -24 -45 c-63 -120 -233 -118 -288 4 -33 73 -20 145 37 198
58 54 124 62 194 22 42 -24 45 -24 57 -8 19 26 12 36 -38 60 -56 28 -102 34
-158 22z"/>
<path d="M1113 415 c-17 -7 -36 -22 -42 -34 -7 -12 -11 -89 -11 -195 l0 -176
25 0 25 0 0 125 0 125 50 0 c47 0 50 2 50 25 0 23 -3 25 -50 25 -42 0 -50 3
-50 19 0 26 23 42 65 45 41 4 40 3 49 34 7 20 4 22 -36 22 -24 -1 -57 -7 -75
-15z"/>
<path d="M500 160 l0 -150 24 0 c24 0 24 2 28 99 4 114 18 141 73 141 24 0 34
6 43 25 7 14 12 28 12 30 0 9 -79 5 -107 -6 -19 -7 -29 -7 -31 0 -2 6 -12 11
-23 11 -18 0 -19 -9 -19 -150z"/>
<path d="M760 292 c-23 -12 -43 -35 -59 -65 -70 -141 76 -274 218 -198 17 10
21 9 21 -4 0 -9 9 -15 25 -15 l25 0 0 150 0 150 -25 0 c-18 0 -25 -5 -25 -20
0 -20 0 -20 -32 0 -41 25 -103 26 -148 2z m153 -73 c32 -39 26 -95 -15 -133
-26 -24 -37 -27 -71 -23 -51 7 -77 33 -84 84 -4 32 0 44 21 70 15 18 37 33 49
35 34 6 80 -10 100 -33z"/>
<path d="M1301 288 c-54 -37 -75 -72 -75 -126 0 -92 63 -156 154 -156 27 0 56
7 70 17 30 21 40 21 40 2 0 -8 9 -15 20 -15 19 0 20 7 20 150 l0 150 -26 0
c-21 0 -24 -4 -19 -20 8 -24 -2 -26 -27 -3 -10 9 -41 18 -71 21 -42 3 -58 0
-86 -20z m144 -58 c23 -19 37 -74 26 -102 -12 -33 -57 -68 -87 -68 -79 0 -131
87 -88 149 33 47 106 57 149 21z"/>
<path d="M1600 160 l0 -150 30 0 30 0 0 99 c0 116 14 144 70 144 56 0 70 -28
70 -144 l0 -99 30 0 30 0 -1 93 c0 50 -5 108 -12 127 -22 63 -111 100 -170 69
-16 -9 -22 -9 -25 0 -2 6 -15 11 -28 11 l-24 0 0 -150z"/>
<path d="M1990 292 c-104 -52 -108 -191 -8 -266 35 -25 115 -27 151 -3 32 21
37 21 37 2 0 -9 9 -15 25 -15 l25 0 0 150 0 150 -25 0 c-19 0 -25 -5 -25 -21
l0 -21 -34 21 c-41 26 -99 27 -146 3z m150 -79 c33 -42 23 -98 -24 -135 -54
-44 -147 2 -149 74 -3 97 113 137 173 61z"/>
</g>
</svg>
