<?xml version="1.0" encoding="UTF-8"?>
<svg version="1.1" xmlns="http://www.w3.org/2000/svg" width="576" height="87">
<path d="M0 0 C190.08 0 380.16 0 576 0 C576 28.71 576 57.42 576 87 C385.92 87 195.84 87 0 87 C0 58.29 0 29.58 0 0 Z " fill="#FCFDFD" transform="translate(0,0)"/>
<path d="M0 0 C5.6298064 4.35030495 9.16045927 10.71458314 10.5234375 17.671875 C10.98875325 25.3385059 8.29774105 31.72585742 4 38 C-3.1733825 44.44255199 -10.09510265 45.63628911 -19.51953125 45.4140625 C-26.01654353 44.6411295 -31.47066249 42.01115589 -35.9375 37.1875 C-40.54605541 30.06518709 -42.10136646 23.50835845 -41 15 C-38.96313031 8.24177083 -35.65188709 2.43588544 -29.5 -1.25 C-20.1788998 -5.9105501 -8.8467795 -5.63145838 0 0 Z " fill="#282B2C" transform="translate(426,23)"/>
<path d="M0 0 C5.91169946 3.42214688 9.50461344 7.01528202 11.5 13.625 C12.80167827 21.378896 12.82948751 29.34725918 9 36.375 C5.13734119 41.7479401 0.05365702 45.41092325 -6.5 46.625 C-15.46607093 47.41545965 -23.14184371 47.23829937 -30.5 41.625 C-36.07479232 35.96890862 -38.5233071 30.22559033 -38.875 22.3125 C-38.74423457 15.44731496 -36.29893861 10.66935765 -32.875 4.875 C-23.6501284 -3.86435204 -11.49696605 -5.00674328 0 0 Z " fill="#272A2B" transform="translate(210.5,21.375)"/>
<path d="M0 0 C4.29 0 8.58 0 13 0 C15.48386661 7.96550327 17.8662187 15.93366009 20 24 C20.25394531 22.9378125 20.50789063 21.875625 20.76953125 20.78125 C22.48927086 13.68774316 24.18540524 6.75502741 27 0 C31.62 0 36.24 0 41 0 C43.22390837 7.63541873 45.38802309 15.20877829 47 23 C47.79276039 20.47950607 48.58423465 17.95861986 49.375 15.4375 C49.59671875 14.73302734 49.8184375 14.02855469 50.046875 13.30273438 C51.43105143 8.88558313 52.74689233 4.45614457 54 0 C58.62 0 63.24 0 68 0 C65.61936833 9.42333368 62.90056159 18.6799676 59.9375 27.9375 C59.5971875 29.00282959 59.256875 30.06815918 58.90625 31.16577148 C57.07639292 36.83734943 55.14743231 42.44075936 53 48 C49.04 48 45.08 48 41 48 C40.65066406 46.50726563 40.30132812 45.01453125 39.94140625 43.4765625 C39.48190131 41.52601092 39.02225877 39.57549176 38.5625 37.625 C38.33240234 36.64015625 38.10230469 35.6553125 37.86523438 34.640625 C37.64287109 33.69960938 37.42050781 32.75859375 37.19140625 31.7890625 C36.98717041 30.91975098 36.78293457 30.05043945 36.57250977 29.15478516 C36.0704829 26.97217907 36.0704829 26.97217907 35 25 C34.960008 23.00039988 34.95653201 20.99952758 35 19 C34.34 19 33.68 19 33 19 C32.89816406 20.26714844 32.79632813 21.53429687 32.69140625 22.83984375 C32.08488209 28.29856121 30.58888828 33.34012826 28.9375 38.5625 C28.65583984 39.47580078 28.37417969 40.38910156 28.08398438 41.33007812 C27.39651353 43.55561934 26.69927647 45.77813991 26 48 C22.04 48 18.08 48 14 48 C11.12934731 39.59981139 8.42964511 31.19516031 6.046875 22.640625 C4.65726034 17.80808448 3.13331742 13.02085078 1.57421875 8.24047852 C0.65435296 5.36770583 0 3.03821444 0 0 Z " fill="#282B2C" transform="translate(314,20)"/>
<path d="M0 0 C9.95563237 6.29195966 17.27055295 14.81165885 21 26 C21.93208546 35.88010591 20.63017294 44.17006456 16 53 C14.33203125 54.86328125 14.33203125 54.86328125 13 56 C8.76610248 50.19623036 5.0209354 44.52522047 2 38 C0.81921875 37.95101562 -0.3615625 37.90203125 -1.578125 37.8515625 C-3.13543937 37.77651121 -4.69272991 37.70096439 -6.25 37.625 C-7.02730469 37.5940625 -7.80460937 37.563125 -8.60546875 37.53125 C-16.17149497 37.14324866 -16.17149497 37.14324866 -19 35 C-19.86419223 32.40742331 -20.17580932 30.65962293 -20.31640625 27.98828125 C-20.35830078 27.23095703 -20.40019531 26.47363281 -20.44335938 25.69335938 C-20.48267578 24.90767578 -20.52199219 24.12199219 -20.5625 23.3125 C-20.60568359 22.51521484 -20.64886719 21.71792969 -20.69335938 20.89648438 C-20.79927368 18.93118553 -20.90012551 16.96561504 -21 15 C-21.79664062 14.62488281 -22.59328125 14.24976562 -23.4140625 13.86328125 C-29.21295226 11.06260092 -34.30737001 8.43192833 -39 4 C-28.37635163 -6.25731567 -12.58763863 -6.41685638 0 0 Z " fill="#1EB183" transform="translate(70,4)"/>
<path d="M0 0 C24 0 24 0 32 4 C37.13906586 9.53437862 37.33813719 13.38733042 37.2890625 20.78125 C36.89912833 25.12321969 36.00943544 26.90458069 33 30 C32.01 30.33 31.02 30.66 30 31 C32.38912934 35.48342995 34.79047805 39.84481884 37.8125 43.9375 C40 47 40 47 40 49 C29.83143612 50.68806199 29.83143612 50.68806199 25 49 C21.6283386 46.03741221 19.74000933 42.10876463 17.734375 38.16015625 C16.31639344 34.72795484 16.31639344 34.72795484 13 34 C13 38.95 13 43.9 13 49 C8.71 49 4.42 49 0 49 C0 32.83 0 16.66 0 0 Z " fill="#2B2E2E" transform="translate(444,19)"/>
<path d="M0 0 C4.62 0 9.24 0 14 0 C14 6.27 14 12.54 14 19 C18.62 19 23.24 19 28 19 C28 12.73 28 6.46 28 0 C32.62 0 37.24 0 42 0 C42 16.17 42 32.34 42 49 C37.38 49 32.76 49 28 49 C28 43.06 28 37.12 28 31 C23.38 31 18.76 31 14 31 C14 36.94 14 42.88 14 49 C9.38 49 4.76 49 0 49 C0 32.83 0 16.66 0 0 Z " fill="#333536" transform="translate(122,19)"/>
<path d="M0 0 C1.48831242 0.00667405 2.97660807 0.01863442 4.46484375 0.03515625 C5.22345703 0.03966797 5.98207031 0.04417969 6.76367188 0.04882812 C8.64326246 0.06064945 10.52281274 0.07858547 12.40234375 0.09765625 C11.06002879 3.05772645 9.54891968 5.2286318 7.328125 7.59375 C6.74353516 8.23505859 6.15894531 8.87636719 5.55664062 9.53710938 C4.32531573 10.87289449 3.08563855 12.20102689 1.83789062 13.52148438 C-1.53729203 17.05962775 -1.53729203 17.05962775 -2.7890625 21.5859375 C-1.07641327 25.196539 0.96564446 28.50671288 3.15234375 31.84765625 C4.06288524 33.26845131 4.97175259 34.69032073 5.87890625 36.11328125 C6.31493164 36.79583984 6.75095703 37.47839844 7.20019531 38.18164062 C9.42985226 41.73532619 11.42202224 45.4010561 13.40234375 49.09765625 C2.52792045 50.89894109 2.52792045 50.89894109 -2.59765625 49.09765625 C-7.04027766 45.19962277 -9.42182745 39.47678856 -11.59765625 34.09765625 C-11.59765625 33.43765625 -11.59765625 32.77765625 -11.59765625 32.09765625 C-12.58765625 32.75765625 -13.57765625 33.41765625 -14.59765625 34.09765625 C-14.981769 36.70727725 -15.20058822 39.10346365 -15.28515625 41.72265625 C-15.31931641 42.4290625 -15.35347656 43.13546875 -15.38867188 43.86328125 C-15.47116933 45.60751313 -15.5360896 47.3525602 -15.59765625 49.09765625 C-19.88765625 49.09765625 -24.17765625 49.09765625 -28.59765625 49.09765625 C-28.59765625 33.25765625 -28.59765625 17.41765625 -28.59765625 1.09765625 C-24.30765625 1.09765625 -20.01765625 1.09765625 -15.59765625 1.09765625 C-15.26765625 5.71765625 -14.93765625 10.33765625 -14.59765625 15.09765625 C-13.88738281 14.09863281 -13.17710937 13.09960938 -12.4453125 12.0703125 C-11.5169768 10.76689167 -10.58858868 9.46350818 -9.66015625 8.16015625 C-9.19158203 7.50080078 -8.72300781 6.84144531 -8.24023438 6.16210938 C-3.92367597 0.10650586 -3.92367597 0.10650586 0 0 Z " fill="#272B2C" transform="translate(519.59765625,18.90234375)"/>
<path d="M0 0 C26.44736842 0 26.44736842 0 32.8125 5.375 C36.58049384 9.89659261 37.53561674 13.84955635 37.37109375 19.65625 C36.58938672 24.59334702 34.14520274 28.27704305 30.2734375 31.38671875 C24.67404937 34.67031056 19.3523283 34.31761641 13 34 C13 38.95 13 43.9 13 49 C8.71 49 4.42 49 0 49 C0 32.83 0 16.66 0 0 Z " fill="#2A2D2E" transform="translate(231,19)"/>
<path d="M0 0 C2.41346927 1.21188428 4.75086967 2.47725171 7.05859375 3.87890625 C7.05859375 9.18370559 5.52238805 10.06873252 2.05859375 13.87890625 C1.37796875 13.56953125 0.69734375 13.26015625 -0.00390625 12.94140625 C-3.31106537 11.74519976 -6.45686503 11.28885228 -9.94140625 10.87890625 C-9.94140625 12.19890625 -9.94140625 13.51890625 -9.94140625 14.87890625 C-8.8328125 15.38679688 -7.72421875 15.8946875 -6.58203125 16.41796875 C-5.11807562 17.11240924 -3.65455661 17.8077707 -2.19140625 18.50390625 C-1.46179688 18.83519531 -0.7321875 19.16648437 0.01953125 19.5078125 C4.84958092 21.83501825 7.52957791 23.95157307 10.05859375 28.87890625 C10.71159246 34.10289596 10.02136547 37.52733529 7.05859375 41.87890625 C3.69686994 45.82802803 0.64227754 47.6351296 -4.51953125 48.4296875 C-11.36600658 48.66835945 -16.8561306 48.4167193 -22.5234375 44.36328125 C-23.94140625 42.87890625 -23.94140625 42.87890625 -25.94140625 38.87890625 C-23.96140625 36.56890625 -21.98140625 34.25890625 -19.94140625 31.87890625 C-18.62140625 32.53890625 -17.30140625 33.19890625 -15.94140625 33.87890625 C-11.81542096 35.88614233 -8.51083978 36.05809972 -3.94140625 35.87890625 C-3.91815708 33.94419891 -3.91815708 33.94419891 -4.94140625 31.87890625 C-7.21135929 30.74392973 -9.31952042 29.85444758 -11.69140625 29.00390625 C-18.17682243 26.47659133 -21.77564254 24.21043368 -24.94140625 17.87890625 C-25.70405248 13.70168485 -25.79539896 10.26077907 -23.51953125 6.578125 C-17.03655508 -0.99919971 -9.75662171 -3.71865927 0 0 Z " fill="#282B2C" transform="translate(298.94140625,20.12109375)"/>
<path d="M0 0 C2.1584478 1.20027429 4.20697485 2.44977073 6.22265625 3.875 C6.22265625 7.27093478 5.70099677 7.94119881 3.72265625 10.5625 C3.0265625 11.49642578 3.0265625 11.49642578 2.31640625 12.44921875 C1.95546875 12.91972656 1.59453125 13.39023437 1.22265625 13.875 C-3.52734375 12 -3.52734375 12 -5.77734375 10.875 C-7.77694387 10.835008 -9.77781617 10.83153201 -11.77734375 10.875 C-12.10734375 12.195 -12.43734375 13.515 -12.77734375 14.875 C-10.12973267 15.94282104 -7.47833341 16.98698153 -4.8046875 17.98828125 C-3.78503906 18.38402344 -2.76539063 18.77976562 -1.71484375 19.1875 C-0.69261719 19.57550781 0.32960938 19.96351562 1.3828125 20.36328125 C4.69477502 22.12632044 6.24683842 23.69509555 8.22265625 26.875 C9.23779613 32.00294926 8.81645502 36.56864271 6.66015625 41.3125 C1.49541589 46.74209884 -2.1718317 48.14561072 -9.58984375 48.5 C-16.66271928 48.3335794 -21.24805654 46.15573849 -26.77734375 41.875 C-25.92990458 37.39428716 -23.75699386 35.23665653 -20.77734375 31.875 C-20.13796875 32.349375 -19.49859375 32.82375 -18.83984375 33.3125 C-14.85552856 35.34531387 -11.19240301 35.5960529 -6.77734375 35.875 C-6.44734375 34.555 -6.11734375 33.235 -5.77734375 31.875 C-6.71835937 31.52308594 -7.659375 31.17117187 -8.62890625 30.80859375 C-21.38685522 25.84375337 -21.38685522 25.84375337 -24.9140625 20.9296875 C-26.72707896 16.61454425 -26.68784492 12.41381412 -25.77734375 7.875 C-24.06565463 4.2999531 -21.38947571 2.32290143 -18.21484375 0 C-12.19751593 -1.96930729 -5.95075758 -2.41043345 0 0 Z " fill="#272A2B" transform="translate(563.77734375,20.125)"/>
<path d="M0 0 C0.4125 1.134375 0.825 2.26875 1.25 3.4375 C1.8275 4.613125 2.405 5.78875 3 7 C6.53941274 8.26673476 6.53941274 8.26673476 10 9 C2.63150151 25.36300643 2.63150151 25.36300643 -5.19140625 28.4140625 C-10.45755076 29.51270183 -15.657345 29.37683303 -21 29 C-21.58452387 14.79823492 -21.58452387 14.79823492 -18 8 C-13.97482341 3.73087331 -5.85740498 -1.95246833 0 0 Z " fill="#1EB283" transform="translate(47,36)"/>
<path d="M0 0 C3.34017242 1.13740666 6.2931168 2.98600139 9.32128906 4.76782227 C9.97097656 5.14487305 10.62066406 5.52192383 11.29003906 5.91040039 C12.88633997 6.83766342 14.47916435 7.77090683 16.07128906 8.70532227 C16.32519531 12.00219727 16.32519531 12.00219727 16.07128906 15.70532227 C14.34863281 17.59594727 14.34863281 17.59594727 12.00878906 18.95532227 C11.18378906 19.43743164 10.35878906 19.91954102 9.50878906 20.41625977 C8.70441406 20.84165039 7.90003906 21.26704102 7.07128906 21.70532227 C6.45253906 22.04821289 5.83378906 22.39110352 5.19628906 22.74438477 C0.22962104 25.20472494 -4.62953598 25.65626093 -9.92089844 24.13110352 C-13.37488913 22.77673787 -14.83831925 21.8409098 -16.92871094 18.70532227 C-15.18627793 12.78105004 -7.15137252 -1.09262109 0 0 Z " fill="#1FB284" transform="translate(29.9287109375,13.294677734375)"/>
<path d="M0 0 C3.10546875 0.51171875 3.10546875 0.51171875 5.40625 3.1796875 C6.09953788 4.33958595 6.76955204 5.5136521 7.41796875 6.69921875 C7.76408203 7.27736328 8.11019531 7.85550781 8.46679688 8.45117188 C10.36127897 11.71943047 11.96462892 14.70264154 12.10546875 18.51171875 C8.87310725 24.29709797 3.0512551 28.74903014 -2.89453125 31.51171875 C-6.39453125 32.32421875 -6.39453125 32.32421875 -8.89453125 32.51171875 C-12.8925962 26.68120736 -12.64932145 20.37192298 -11.89453125 13.51171875 C-10.14364103 7.61893769 -6.4137276 1.13387087 0 0 Z " fill="#1DB183" transform="translate(65.89453125,44.48828125)"/>
<path d="M0 0 C3.62245232 2.1580567 5.39024012 4.16188256 7 8 C7.74148241 12.74203866 7.43787689 16.16954383 5.1875 20.4375 C2.99382992 23.0072278 1.35486973 24.7548331 -2.05078125 25.37109375 C-6.27084768 25.49499898 -9.12711602 25.39887404 -12.5 22.6875 C-16.32949631 18.57079146 -16.3909356 14.91248823 -16.359375 9.515625 C-15.77622918 5.43360426 -13.98140974 3.7684519 -11 1 C-7.53749757 -0.73125121 -3.78591771 -0.47815224 0 0 Z " fill="#FAFAFA" transform="translate(415,31)"/>
<path d="M0 0 C3.62245232 2.1580567 5.39024012 4.16188256 7 8 C7.74148241 12.74203866 7.43787689 16.16954383 5.1875 20.4375 C2.99382992 23.0072278 1.35486973 24.7548331 -2.05078125 25.37109375 C-6.27084768 25.49499898 -9.12711602 25.39887404 -12.5 22.6875 C-16.32949631 18.57079146 -16.3909356 14.91248823 -16.359375 9.515625 C-15.77622918 5.43360426 -13.98140974 3.7684519 -11 1 C-7.53749757 -0.73125121 -3.78591771 -0.47815224 0 0 Z " fill="#FAFAFA" transform="translate(202,31)"/>
<path d="M0 0 C-0.20496094 0.53367188 -0.40992187 1.06734375 -0.62109375 1.6171875 C-2.49980764 6.81286515 -3.36629642 11.40422756 -3.49609375 16.93359375 C-4 19 -4 19 -5.72265625 20.2734375 C-8.27688787 21.08833815 -10.32216529 21.23240272 -13 21.1875 C-13.845625 21.18105469 -14.69125 21.17460938 -15.5625 21.16796875 C-17.83252477 21.01154076 -19.81961604 20.63089814 -22 20 C-22.33792175 14.48061147 -21.61481452 10.88098711 -19 6 C-18.46632813 4.99453125 -18.46632813 4.99453125 -17.921875 3.96875 C-13.39337 -2.90584795 -7.37853275 -1.30273798 0 0 Z " fill="#21B285" transform="translate(26,41)"/>
<path d="M0 0 C0.99 3.63 1.98 7.26 3 11 C-2.49881756 16.04058276 -8.15653157 21.21837311 -16 21.25 C-16.99 21.1675 -17.98 21.085 -19 21 C-20.52814822 15.26944418 -20.88136486 8.64409459 -19 3 C-18.18015625 2.86722656 -17.3603125 2.73445313 -16.515625 2.59765625 C-14.89914063 2.33275391 -14.89914063 2.33275391 -13.25 2.0625 C-12.18265625 1.88847656 -11.1153125 1.71445313 -10.015625 1.53515625 C-8.26506247 1.22449943 -6.51879281 0.87628539 -4.796875 0.43359375 C-3 0 -3 0 0 0 Z " fill="#1FB284" transform="translate(49,66)"/>
<path d="M0 0 C0.33 0.66 0.66 1.32 1 2 C1.99 2.33 2.98 2.66 4 3 C3.94014621 5.29240007 3.85140973 7.58406206 3.75 9.875 C3.68039063 11.78925781 3.68039063 11.78925781 3.609375 13.7421875 C3 17 3 17 1.4375 18.4375 C-1.9679815 19.22338035 -5.27958281 19.21028435 -8.75 19.125 C-9.44738281 19.11597656 -10.14476562 19.10695313 -10.86328125 19.09765625 C-12.57566958 19.07419888 -14.28788004 19.03833104 -16 19 C-16.3690205 6.33029613 -16.3690205 6.33029613 -14 1 C-12.04175306 0.83232136 -10.08339945 0.66588795 -8.125 0.5 C-6.48917969 0.36078125 -6.48917969 0.36078125 -4.8203125 0.21875 C-3.21670436 0.09437042 -1.60842449 0 0 0 Z " fill="#20B285" transform="translate(22,65)"/>
<path d="M0 0 C7.38804781 -0.36334661 7.38804781 -0.36334661 10 1.1875 C11.36703913 3.66525842 11.41826612 5.21155919 11 8 C10 9.8125 10 9.8125 8 11 C5.28125957 11.24667073 2.74116148 11.13481122 0 11 C0 7.37 0 3.74 0 0 Z " fill="#F3F3F3" transform="translate(457,31)"/>
<path d="M0 0 C6.40818182 -0.36272727 6.40818182 -0.36272727 8.9375 1.1875 C10.38718434 3.66049093 10.42317323 5.17884512 10 8 C8.9375 9.8125 8.9375 9.8125 7 11 C3.3125 11.1875 3.3125 11.1875 0 11 C0 7.37 0 3.74 0 0 Z " fill="#F6F6F6" transform="translate(244,31)"/>
<path d="M0 0 C0.66 0.33 1.32 0.66 2 1 C-0.31 3.31 -2.62 5.62 -5 8 C-5.66 7.67 -6.32 7.34 -7 7 C-2.25 1.125 -2.25 1.125 0 0 Z " fill="#303435" transform="translate(182,23)"/>
</svg>
