<svg version="1.1" id="Layer_1" xmlns="http://www.w3.org/2000/svg" xmlns:xlink="http://www.w3.org/1999/xlink" x="0px" y="0px"
	 width="100%" viewBox="0 0 1767 2048" enable-background="new 0 0 1767 2048" xml:space="preserve">
<path fill="#000000" opacity="1.000000" stroke="none" 
	d="
M1.000000,787.000000 
	C1.000000,524.666687 1.000000,262.833344 1.000000,1.000000 
	C590.000000,1.000000 1179.000000,1.000000 1768.000000,1.000000 
	C1768.000000,683.666687 1768.000000,1366.333374 1768.000000,2049.000000 
	C1179.000000,2049.000000 590.000000,2049.000000 1.000000,2049.000000 
	C1.000000,1628.500000 1.000000,1208.000000 1.000000,787.000000 
M723.234497,1764.079712 
	C733.123474,1766.051025 742.950073,1768.451294 752.914978,1769.900513 
	C771.200012,1772.559814 789.520996,1775.152588 807.912170,1776.849854 
	C825.813416,1778.501831 843.811340,1779.494751 861.785400,1779.855957 
	C878.702087,1780.195801 895.653870,1779.604736 912.569824,1778.919678 
	C927.711731,1778.306641 942.871216,1777.447998 957.940369,1775.896240 
	C975.831604,1774.054077 993.721924,1771.873169 1011.452576,1768.888550 
	C1031.173340,1765.568970 1050.910034,1761.954224 1070.282349,1757.054688 
	C1093.715454,1751.128174 1116.916138,1744.167114 1139.958740,1736.840210 
	C1169.589111,1727.418823 1198.163086,1715.173828 1226.221680,1701.842041 
	C1241.387573,1694.636353 1256.225830,1686.681152 1270.872437,1678.459229 
	C1286.043579,1669.942749 1301.020386,1661.034790 1315.697388,1651.693359 
	C1342.302124,1634.760376 1367.864868,1616.338379 1391.754517,1595.704590 
	C1406.202637,1583.225464 1420.879883,1570.949463 1434.568726,1557.669556 
	C1450.156616,1542.546997 1465.053711,1526.677246 1479.695312,1510.625488 
	C1491.078735,1498.145752 1502.216675,1485.345825 1512.373169,1471.866455 
	C1526.606079,1452.977173 1540.605469,1433.819214 1553.272095,1413.866821 
	C1567.399780,1391.612793 1580.844604,1368.813721 1592.888306,1345.379150 
	C1605.220703,1321.382812 1615.558960,1296.357666 1626.619507,1271.715210 
	C1628.804321,1266.847656 1630.305420,1261.673096 1632.121704,1256.640137 
	C1626.299683,1261.677490 1621.831543,1267.635986 1616.576660,1272.792847 
	C1599.986816,1289.073242 1583.657104,1305.688965 1566.164795,1320.958496 
	C1550.812866,1334.359741 1534.177246,1346.318115 1517.846680,1358.564209 
	C1487.650879,1381.207764 1455.234497,1400.374268 1421.879761,1417.871704 
	C1402.108887,1428.243286 1381.852539,1437.772949 1361.404907,1446.747681 
	C1341.172852,1455.627563 1320.674438,1464.039795 1299.842896,1471.379761 
	C1272.916748,1480.867188 1245.739258,1489.767456 1218.302612,1497.640137 
	C1195.840576,1504.085693 1172.890259,1508.879272 1150.062134,1513.983521 
	C1133.548706,1517.675903 1116.943481,1521.045532 1100.264160,1523.883911 
	C1083.681885,1526.705933 1066.971191,1528.800415 1050.288696,1531.000244 
	C1034.066284,1533.139526 1017.829590,1535.212036 1001.558655,1536.929443 
	C988.968445,1538.258423 976.328247,1539.216797 963.687378,1539.937134 
	C947.838379,1540.840088 931.969604,1541.446167 916.102112,1541.953003 
	C907.777954,1542.218994 899.436890,1542.097900 891.105896,1541.980103 
	C872.001526,1541.710083 852.894348,1541.489746 833.796692,1540.952393 
	C818.927246,1540.533936 804.065979,1539.751343 789.209473,1538.970459 
	C779.338989,1538.451904 769.455994,1537.918091 759.627625,1536.911743 
	C745.948975,1535.511230 732.311951,1533.696289 718.665039,1531.995361 
	C705.516479,1530.356567 692.302490,1529.079590 679.251404,1526.856079 
	C655.829285,1522.865845 632.255554,1519.321289 609.202271,1513.712158 
	C573.372620,1504.994507 537.800598,1495.137451 502.367676,1484.903442 
	C483.826508,1479.548340 465.636108,1472.823975 447.610565,1465.878906 
	C426.854950,1457.882202 406.228973,1449.461304 385.969391,1440.290649 
	C367.248138,1431.816284 348.863220,1422.522583 330.744263,1412.816650 
	C314.951599,1404.356934 299.354034,1395.404663 284.360016,1385.613770 
	C264.031158,1372.339233 244.062134,1358.462158 224.510651,1344.066895 
	C211.203796,1334.269531 198.802795,1323.229126 186.141678,1312.572388 
	C179.568100,1307.039551 173.139771,1301.308228 166.957993,1295.343018 
	C161.362106,1289.942993 156.178192,1284.114990 150.834457,1278.455200 
	C143.806686,1271.011719 136.800308,1263.548096 129.784744,1256.093140 
	C136.676086,1275.450684 144.216293,1294.430054 152.650146,1313.003662 
	C159.929489,1329.034668 167.763443,1344.856079 176.196991,1360.309082 
	C185.312881,1377.012085 194.965179,1393.462280 205.173721,1409.520386 
	C223.672363,1438.618896 243.568451,1466.757446 266.297607,1492.765869 
	C279.646606,1508.040771 292.604156,1523.736816 306.902161,1538.083130 
	C324.196381,1555.435669 342.517670,1571.789307 360.790283,1588.132812 
	C371.802246,1597.982178 383.151581,1607.561035 395.089325,1616.244019 
	C413.794464,1629.849365 432.711884,1643.254517 452.303772,1655.523926 
	C473.430573,1668.754761 495.284454,1680.857788 517.125366,1692.901123 
	C527.658447,1698.709106 538.738098,1703.610596 549.837097,1708.289429 
	C570.776917,1717.116333 591.680481,1726.118286 613.031189,1733.855103 
	C632.083252,1740.758789 651.589111,1746.521118 671.135010,1751.917236 
	C688.037048,1756.583618 705.276611,1760.027710 723.234497,1764.079712 
M423.969177,339.511444 
	C423.254333,339.904999 422.476288,340.215546 421.833862,340.704285 
	C406.344025,352.488831 390.597565,363.957092 375.468292,376.188477 
	C360.872406,387.988678 346.361877,399.999573 332.799652,412.950256 
	C308.099854,436.536316 284.059479,460.830963 262.843231,487.702576 
	C251.388763,502.210266 239.439407,516.415833 229.103714,531.698059 
	C212.488922,556.264526 196.306061,581.188171 181.317627,606.767700 
	C170.453247,625.309143 161.378143,644.952393 152.315155,664.480225 
	C143.934311,682.538208 136.630402,701.095947 128.852203,719.433594 
	C130.301605,719.736755 130.935806,719.562866 131.298889,719.150330 
	C135.764450,714.077087 139.868515,708.639771 144.686188,703.930969 
	C159.866241,689.094055 174.825165,673.972534 190.788788,660.012207 
	C206.660751,646.132019 223.410202,633.215637 240.191498,620.423157 
	C273.342285,595.152039 309.213135,574.144287 346.196960,555.114502 
	C366.475220,544.680481 387.139496,534.834534 408.224304,526.170410 
	C436.047607,514.737244 464.090973,503.592957 492.705811,494.397247 
	C525.760315,483.774841 559.290466,474.352722 593.078125,466.374481 
	C623.468933,459.198364 654.430786,454.347473 685.249756,449.112488 
	C704.735046,445.802673 724.386475,443.378906 744.026489,441.101898 
	C759.526001,439.304932 775.112244,438.211853 790.677795,437.044067 
	C802.360962,436.167511 814.067139,435.545227 825.772949,435.037140 
	C837.195496,434.541321 848.631470,434.035645 860.059875,434.071625 
	C876.325500,434.122803 892.593201,434.544495 908.853333,435.029724 
	C926.386475,435.552948 943.916748,436.229187 961.438843,437.041290 
	C970.647095,437.468048 979.849609,438.173096 989.029419,439.025665 
	C1005.689453,440.572968 1022.350647,442.147888 1038.973633,444.042023 
	C1054.570190,445.819153 1070.192627,447.575928 1085.668091,450.155060 
	C1104.612671,453.312378 1123.526367,456.829742 1142.255127,461.067413 
	C1170.598633,467.480530 1199.015869,473.789948 1226.945923,481.744171 
	C1253.925049,489.427673 1280.410400,498.895020 1306.960938,508.020477 
	C1338.987305,519.028076 1369.809692,532.981750 1400.225098,547.780212 
	C1414.429810,554.691406 1428.469971,562.056885 1442.036743,570.136597 
	C1464.134277,583.296997 1486.032593,596.829102 1507.561279,610.898743 
	C1539.561890,631.812073 1568.572754,656.564392 1596.187622,682.892090 
	C1607.818726,693.981018 1618.365112,706.207947 1629.396973,717.924683 
	C1630.023438,718.590027 1630.581421,719.319824 1631.171265,720.019714 
	C1631.577271,719.778564 1631.983276,719.537415 1632.389282,719.296265 
	C1625.548096,702.711853 1619.239014,685.881653 1611.724976,669.607971 
	C1603.179321,651.100586 1594.032104,632.831177 1584.270142,614.936279 
	C1574.374023,596.795532 1563.915039,578.914612 1552.794556,561.499756 
	C1535.302979,534.108154 1516.199585,507.826538 1494.787231,483.315887 
	C1481.666260,468.296143 1468.856812,452.945862 1454.910889,438.720978 
	C1439.856445,423.365784 1423.863525,408.901306 1407.858032,394.517822 
	C1395.910522,383.781097 1383.709351,373.234528 1370.870972,363.603302 
	C1353.275024,350.403137 1335.383911,337.499817 1316.855957,325.664337 
	C1296.294800,312.530182 1275.079346,300.372620 1253.752197,288.502563 
	C1240.645386,281.207642 1226.983398,274.819275 1213.232666,268.794891 
	C1194.943970,260.782257 1176.535645,252.948196 1157.792847,246.092468 
	C1137.981445,238.845871 1117.961426,231.915405 1097.589478,226.519089 
	C1071.048340,219.488602 1044.192383,213.482437 1017.238892,208.230713 
	C999.301575,204.735733 980.983215,203.097046 962.787109,201.059586 
	C947.765320,199.377625 932.685852,197.420914 917.608398,197.201080 
	C891.150757,196.815292 864.667908,197.398239 838.209961,198.109528 
	C824.726807,198.472015 811.250977,199.751068 797.815247,201.060593 
	C783.641296,202.442093 769.430847,203.824875 755.395508,206.162369 
	C736.466248,209.314911 717.530579,212.721008 698.881714,217.200684 
	C666.830994,224.899628 635.299316,234.385010 604.286743,245.737946 
	C568.458008,258.854004 533.878418,274.581055 500.204895,292.400909 
	C491.720093,296.891083 483.233490,301.436707 475.101471,306.522430 
	C458.109222,317.149170 441.352692,328.152863 423.969177,339.511444 
M265.710938,1732.003296 
	C256.976807,1734.002197 248.084412,1735.482788 239.536667,1738.092407 
	C206.958527,1748.037598 180.741379,1767.064331 160.854813,1794.699341 
	C140.556107,1822.907349 131.648468,1854.677612 132.082932,1889.193481 
	C132.152618,1894.728638 133.425156,1900.239990 133.968750,1905.779297 
	C135.415848,1920.525391 139.979721,1934.404053 146.018112,1947.784180 
	C156.847961,1971.781250 172.884857,1991.872803 194.081070,2007.366211 
	C217.444305,2024.443481 243.830170,2034.677490 272.777344,2036.796997 
	C286.868866,2037.828857 301.034485,2037.130371 315.144531,2034.208374 
	C348.954132,2027.206665 377.277618,2011.332886 400.230316,1985.419678 
	C416.481537,1967.072266 427.874664,1946.213135 433.504578,1922.550171 
	C436.516571,1909.890503 437.762207,1896.731567 438.812927,1883.717773 
	C439.345734,1877.119263 437.597687,1870.350098 437.021454,1863.645874 
	C435.751617,1848.872314 431.605591,1834.835938 425.668335,1821.372314 
	C414.909882,1796.975708 398.710266,1776.793335 377.327423,1760.834961 
	C352.292480,1742.151367 324.054657,1732.322388 292.918274,1731.103027 
	C284.177917,1730.760742 275.388641,1731.666992 265.710938,1732.003296 
M1572.489746,210.046310 
	C1573.601196,208.210403 1574.911743,206.464920 1575.792725,204.524368 
	C1583.339966,187.899277 1587.969482,170.734573 1588.192993,152.194839 
	C1588.432129,132.357208 1584.971924,113.544838 1576.299072,95.820442 
	C1565.830322,74.425751 1550.300171,57.524998 1529.786133,45.235203 
	C1505.093506,30.442007 1478.305298,25.523422 1450.086548,29.238815 
	C1434.640381,31.272512 1419.945068,36.359390 1406.247192,44.243248 
	C1385.812744,56.004272 1369.993530,72.216248 1359.118286,92.954147 
	C1346.020142,117.931053 1341.786377,144.555573 1347.074951,172.389694 
	C1351.705200,196.758621 1362.604858,217.963577 1380.143066,235.653870 
	C1391.267090,246.874405 1404.096924,255.602936 1418.585205,261.834595 
	C1439.159912,270.684113 1460.746582,273.701324 1482.823120,270.784851 
	C1503.432373,268.062256 1522.574341,260.638367 1539.169678,247.885071 
	C1552.475586,237.659653 1564.159790,225.765854 1572.489746,210.046310 
M539.065247,860.227844 
	C538.719788,861.424805 538.019287,862.641541 538.084595,863.815613 
	C538.644531,873.877075 539.888245,883.929504 539.912415,893.987000 
	C540.078430,963.135010 539.997864,1032.283569 539.997253,1101.432007 
	C539.996826,1142.421143 540.055054,1183.410645 539.911560,1224.399292 
	C539.896667,1228.657715 540.874268,1230.224487 545.429016,1230.106812 
	C557.584351,1229.792847 569.753174,1230.002563 581.916626,1229.999634 
	C589.027039,1229.997803 589.034668,1229.993774 589.035095,1223.083496 
	C589.037598,1180.927979 589.036377,1138.772339 589.036438,1096.616821 
	C589.036438,1094.734375 589.036438,1092.851929 589.036438,1090.378296 
	C590.319092,1091.211182 590.827271,1091.387329 591.104431,1091.743286 
	C602.047791,1105.804810 615.803223,1116.026733 632.516541,1122.273315 
	C651.888062,1129.513428 671.711548,1129.446289 691.731384,1125.973145 
	C718.690735,1121.295898 740.869019,1108.057251 758.155518,1087.135864 
	C777.824219,1063.331299 786.775757,1034.995605 788.765503,1004.718689 
	C790.475830,978.693542 788.959045,952.805359 779.215088,927.919922 
	C771.269653,907.627563 759.796326,889.861633 742.769714,876.432617 
	C723.670776,861.369202 701.310425,854.303772 676.949158,854.029602 
	C661.766602,853.858765 646.935364,856.114502 632.923523,862.172852 
	C619.597900,867.934448 607.512939,875.625732 597.820984,886.660339 
	C593.398132,891.695801 589.024414,896.774475 584.374878,902.125366 
	C583.574280,889.458069 582.640076,876.990479 582.091858,864.505920 
	C581.939270,861.032227 580.913025,859.897644 577.451721,859.947754 
	C564.957825,860.128418 552.460205,860.054260 539.065247,860.227844 
M1410.755249,1085.863037 
	C1391.309814,1079.200195 1375.795288,1067.582153 1364.907959,1049.935913 
	C1357.808716,1038.429565 1353.701782,1026.022949 1353.028931,1012.548523 
	C1352.502075,1002.001160 1352.640991,1001.994080 1363.400513,1001.994080 
	C1419.057739,1001.994019 1474.715088,1001.997009 1530.372314,1001.989990 
	C1536.970337,1001.989197 1537.284058,1001.947754 1536.933472,995.290649 
	C1536.159058,980.582397 1535.954956,965.760132 1533.860352,951.223328 
	C1529.810791,923.119019 1519.249146,897.957458 1497.242554,878.664673 
	C1487.083984,869.758728 1475.397461,863.910461 1462.638550,859.975952 
	C1448.400757,855.585510 1433.770874,855.393494 1419.047974,855.962646 
	C1407.356934,856.414734 1396.069214,858.801575 1385.229370,862.981934 
	C1367.188477,869.939270 1351.686035,880.443848 1338.938110,895.311096 
	C1329.531494,906.281494 1322.584595,918.516418 1317.060425,931.616577 
	C1310.658081,946.799622 1306.485718,962.703125 1306.030762,979.230164 
	C1305.584473,995.440002 1304.052368,1011.992554 1306.547729,1027.835449 
	C1312.254517,1064.067871 1331.845703,1091.970581 1363.085815,1111.489746 
	C1379.984131,1122.048218 1398.600342,1127.918213 1418.269043,1128.725220 
	C1434.623291,1129.396362 1451.101807,1128.066040 1467.476929,1126.926880 
	C1485.739258,1125.656372 1503.151855,1120.390625 1520.140015,1113.775269 
	C1521.252319,1113.342285 1522.701538,1111.295654 1522.491699,1110.323730 
	C1520.036133,1098.947021 1517.292236,1087.632568 1514.602905,1076.209595 
	C1507.328369,1078.593018 1500.727417,1081.502686 1493.821411,1082.858276 
	C1480.735962,1085.426025 1467.498047,1087.262817 1454.282104,1089.106323 
	C1439.849487,1091.119385 1425.535767,1090.541748 1410.755249,1085.863037 
M879.122314,1004.363708 
	C880.927368,1008.612976 882.799133,1012.835266 884.526794,1017.115784 
	C895.607666,1044.570923 906.503235,1072.102173 917.802368,1099.466919 
	C921.614807,1108.700195 921.388916,1116.918701 916.756531,1126.010864 
	C907.630127,1143.923340 896.617737,1160.177246 881.240845,1173.297363 
	C870.912781,1182.109741 860.384094,1190.541870 847.354309,1195.214600 
	C843.208252,1196.701538 839.283569,1198.805908 835.148621,1200.677002 
	C838.479370,1211.964233 841.866882,1222.994873 844.966492,1234.105957 
	C847.018066,1241.460083 846.982910,1241.593262 854.134827,1239.453369 
	C855.707825,1238.982910 857.324585,1238.653442 858.885681,1238.148926 
	C886.566284,1229.203003 908.555298,1212.102417 926.498535,1189.742310 
	C944.003479,1167.928467 956.363892,1142.943726 967.680908,1117.591919 
	C978.790527,1092.704712 988.761780,1067.302734 998.940491,1042.009033 
	C1006.840698,1022.377319 1014.322815,1002.576843 1021.934692,982.829773 
	C1035.135986,948.582214 1048.308960,914.323730 1061.456299,880.055359 
	C1063.922852,873.626160 1066.213623,867.129517 1068.829224,860.000183 
	C1053.133545,860.000183 1038.316650,860.290588 1023.522644,859.838806 
	C1018.511536,859.685791 1016.378418,861.710693 1014.984375,865.840637 
	C1010.334534,879.616089 1005.612915,893.367310 1000.973572,907.146301 
	C993.854431,928.290527 986.765198,949.444946 979.692017,970.604553 
	C972.403564,992.408447 965.084961,1014.202698 957.910583,1036.044189 
	C954.846497,1045.372559 952.114746,1054.810059 948.925659,1065.195435 
	C948.039612,1063.051758 947.462830,1061.922974 947.096985,1060.729492 
	C943.757202,1049.834351 940.791565,1038.811035 937.061768,1028.052124 
	C931.333374,1011.528320 925.153198,995.159485 919.047302,978.768616 
	C904.742859,940.369202 890.327209,902.011169 876.095520,863.584839 
	C874.854675,860.234497 873.203552,858.900879 869.602295,858.940430 
	C854.772705,859.103394 839.940247,858.998413 825.108948,859.029785 
	C823.853577,859.032471 822.598816,859.315125 820.662842,859.550537 
	C840.193420,907.897949 859.530396,955.766052 879.122314,1004.363708 
M402.998535,878.500488 
	C402.998566,923.992981 403.278503,969.488525 402.775085,1014.975403 
	C402.667419,1024.703857 400.946716,1034.819336 397.811951,1044.021606 
	C392.012268,1061.046875 379.865570,1072.874512 363.392792,1080.370117 
	C352.524109,1085.315552 341.217010,1086.740234 329.499054,1085.985474 
	C314.691193,1085.031982 302.204437,1079.237427 293.185394,1067.267212 
	C282.191101,1052.675171 278.427155,1035.371948 278.214935,1017.786072 
	C277.611786,967.801880 278.025146,917.805420 278.035522,867.813782 
	C278.037140,860.011780 278.030182,860.008789 269.997131,860.006897 
	C258.332306,860.004150 246.667480,859.995544 235.002701,860.017822 
	C233.216949,860.021240 231.431488,860.176758 229.000305,860.292725 
	C229.000305,862.777710 229.000305,864.891235 229.000305,867.004822 
	C229.000244,905.332092 228.898422,943.659729 229.044434,981.986450 
	C229.114090,1000.272766 229.159286,1018.583496 230.123001,1036.835205 
	C231.063522,1054.647461 235.752975,1071.600708 244.624954,1087.313110 
	C254.303040,1104.453247 268.161072,1116.513672 286.734131,1123.025879 
	C305.883698,1129.740356 325.592255,1130.137939 345.036591,1125.637817 
	C366.166107,1120.747681 384.259216,1110.027588 397.918030,1092.660400 
	C400.570587,1089.287720 403.363983,1086.025879 406.478394,1082.244263 
	C407.367889,1094.474365 408.385010,1105.693359 408.889496,1116.935547 
	C409.059845,1120.731079 409.916229,1122.173218 413.957703,1122.085449 
	C425.450470,1121.835693 436.952240,1122.013062 448.450287,1121.977051 
	C449.862946,1121.972656 451.274750,1121.693359 452.179504,1121.596069 
	C451.776337,1107.660645 451.118011,1094.277954 451.080444,1080.893555 
	C451.045044,1068.274048 451.927124,1055.653076 451.948944,1043.031860 
	C452.050598,984.208069 451.994110,925.383972 451.993378,866.559937 
	C451.993378,865.226868 451.909454,863.888916 451.994904,862.561707 
	C452.157257,860.039185 451.128082,858.973511 448.519928,858.986145 
	C434.522552,859.053955 420.524536,859.050598 406.527130,858.985474 
	C403.975708,858.973572 402.930725,859.924194 402.983734,862.503967 
	C403.086517,867.500854 403.004150,872.501648 402.998535,878.500488 
M132.785172,389.884399 
	C147.547699,395.255371 162.706238,396.504303 178.161942,394.005371 
	C202.393707,390.087463 221.615768,377.774445 235.840042,358.040894 
	C250.021683,338.366455 254.610825,316.219940 251.082367,292.233307 
	C248.445450,274.307526 240.672684,258.767090 228.284561,245.994583 
	C210.461792,227.618805 188.569412,218.306686 162.513992,218.901337 
	C135.848038,219.509888 113.814682,229.499084 96.722031,249.848450 
	C75.178963,275.496185 70.836258,304.598206 80.616745,336.158112 
	C84.643631,349.152130 91.915535,360.374664 101.489296,369.850739 
	C110.217690,378.490082 120.467239,385.175995 132.785172,389.884399 
M1181.796631,788.201965 
	C1170.619019,790.964966 1159.441406,793.727966 1148.003296,796.555359 
	C1148.003296,798.951416 1148.003418,800.933777 1148.003418,802.916138 
	C1148.003174,820.075867 1147.876343,837.237122 1148.092163,854.394165 
	C1148.145752,858.653625 1147.132812,860.253174 1142.572632,860.104919 
	C1132.254517,859.769470 1121.916016,860.107727 1111.589600,859.943176 
	C1108.200439,859.889160 1106.860718,860.870605 1106.937134,864.443115 
	C1107.136719,873.768311 1107.120361,883.102966 1106.942749,892.429138 
	C1106.877441,895.853577 1107.939819,897.122437 1111.477295,897.056030 
	C1121.469727,896.868286 1131.467896,896.987671 1141.463867,896.996460 
	C1147.983887,897.002136 1148.035156,897.010559 1147.991577,903.491089 
	C1147.673950,950.761963 1147.360474,998.032776 1146.985229,1045.303223 
	C1146.873901,1059.316650 1148.312744,1073.170532 1154.260254,1085.913208 
	C1158.212280,1094.380493 1162.532837,1103.368652 1168.983887,1109.832886 
	C1182.603516,1123.480347 1200.287109,1128.427124 1219.429810,1127.965210 
	C1224.876465,1127.833862 1230.385010,1127.762817 1235.739624,1126.891602 
	C1244.451416,1125.474121 1253.059692,1123.420288 1261.510864,1121.676514 
	C1260.811890,1108.430176 1260.181030,1096.472412 1259.623535,1085.906372 
	C1247.325439,1086.288574 1235.871460,1087.126953 1224.446167,1086.836182 
	C1216.353882,1086.630371 1209.743164,1082.586304 1204.873047,1075.759155 
	C1198.533325,1066.871582 1196.248779,1056.606323 1196.167358,1046.237427 
	C1195.791260,998.259888 1196.045532,950.277588 1195.918945,902.297363 
	C1195.908081,898.194031 1197.038696,896.868408 1201.232544,896.911560 
	C1220.556030,897.110718 1239.883301,896.915222 1259.207520,897.068054 
	C1262.895874,897.097168 1264.169922,896.015869 1264.072754,892.256165 
	C1263.840576,883.265869 1263.805176,874.259399 1264.084717,865.271729 
	C1264.213989,861.117798 1262.895142,859.870422 1258.738525,859.912903 
	C1239.581543,860.108826 1220.420532,859.887817 1201.263550,860.083496 
	C1197.111206,860.125854 1195.877197,858.879517 1195.913696,854.731262 
	C1196.099854,833.574768 1195.999023,812.415833 1195.998657,791.257751 
	C1195.998657,789.348083 1195.998657,787.438354 1195.998657,785.188843 
	C1190.985474,786.261902 1186.802246,787.157288 1181.796631,788.201965 
M83.884621,1160.308716 
	C76.986488,1178.949585 61.718662,1187.557373 44.058784,1192.848389 
	C37.056828,1194.946167 29.632401,1195.633667 22.224504,1196.995483 
	C23.906340,1208.836060 25.591413,1220.699463 27.486467,1234.041138 
	C39.047932,1232.254517 50.404175,1231.702393 61.024277,1228.616699 
	C85.796112,1221.419556 108.080956,1210.380005 121.585541,1186.291138 
	C133.290680,1165.412231 140.824631,1143.460083 141.853531,1119.586548 
	C142.360107,1107.832520 141.073288,1096.013062 141.045639,1084.222168 
	C140.935043,1037.060913 141.000168,989.899170 140.999939,942.737610 
	C140.999817,916.240479 140.915344,889.742798 141.084930,863.246765 
	C141.111664,859.071960 139.844894,857.838440 135.713715,857.913208 
	C122.719376,858.148438 109.716194,858.123779 96.720680,857.923889 
	C92.939613,857.865723 91.822739,859.133484 91.928970,862.808777 
	C92.159981,870.801208 92.094986,878.806274 91.983505,886.803894 
	C90.841843,968.703247 94.568184,1050.648926 89.807655,1132.502197 
	C89.278275,1141.604248 86.095421,1150.552124 83.884621,1160.308716 
M1655.001099,1043.500000 
	C1655.001099,1027.509155 1655.054199,1011.518005 1654.985229,995.527466 
	C1654.924438,981.437805 1655.247803,967.461975 1657.846802,953.474304 
	C1662.444580,928.731506 1681.618774,908.410156 1705.382202,902.187744 
	C1715.450684,899.551392 1726.153564,899.338013 1736.594238,898.020081 
	C1736.594238,883.909668 1736.594238,869.169495 1736.594238,853.777588 
	C1694.363159,852.364136 1665.960815,871.015198 1650.577026,910.079224 
	C1650.148926,908.306946 1650.011230,906.719849 1650.009033,905.132690 
	C1649.990967,892.140137 1649.720947,879.138794 1650.132935,866.159302 
	C1650.301025,860.865112 1648.489380,859.740540 1643.622681,859.894409 
	C1632.972778,860.231018 1622.304810,859.984192 1611.644287,860.013367 
	C1609.883423,860.018188 1608.123169,860.214417 1606.279175,860.327393 
	C1606.192505,862.050110 1606.021484,863.209961 1606.094238,864.354248 
	C1606.704102,873.930420 1607.852783,883.501526 1607.896362,893.078430 
	C1607.984985,912.566223 1607.468140,932.022888 1606.410645,951.526306 
	C1604.888794,979.594360 1606.021973,1007.806335 1606.022095,1035.956909 
	C1606.022095,1062.441772 1606.016235,1088.926636 1606.026733,1115.411499 
	C1606.029297,1121.968140 1606.053955,1121.977783 1612.786865,1121.991211 
	C1619.283203,1122.004272 1625.779419,1121.994629 1632.275757,1121.994751 
	C1639.712158,1121.994873 1647.148560,1121.994751 1655.001099,1121.994751 
	C1655.001099,1095.737061 1655.001099,1070.118530 1655.001099,1043.500000 
z"/>
<path fill="#F37726" opacity="1.000000" stroke="none" 
	d="
M722.800781,1764.045898 
	C705.276611,1760.027710 688.037048,1756.583618 671.135010,1751.917236 
	C651.589111,1746.521118 632.083252,1740.758789 613.031189,1733.855103 
	C591.680481,1726.118286 570.776917,1717.116333 549.837097,1708.289429 
	C538.738098,1703.610596 527.658447,1698.709106 517.125366,1692.901123 
	C495.284454,1680.857788 473.430573,1668.754761 452.303772,1655.523926 
	C432.711884,1643.254517 413.794464,1629.849365 395.089325,1616.244019 
	C383.151581,1607.561035 371.802246,1597.982178 360.790283,1588.132812 
	C342.517670,1571.789307 324.196381,1555.435669 306.902161,1538.083130 
	C292.604156,1523.736816 279.646606,1508.040771 266.297607,1492.765869 
	C243.568451,1466.757446 223.672363,1438.618896 205.173721,1409.520386 
	C194.965179,1393.462280 185.312881,1377.012085 176.196991,1360.309082 
	C167.763443,1344.856079 159.929489,1329.034668 152.650146,1313.003662 
	C144.216293,1294.430054 136.676086,1275.450684 129.784744,1256.093140 
	C136.800308,1263.548096 143.806686,1271.011719 150.834457,1278.455200 
	C156.178192,1284.114990 161.362106,1289.942993 166.957993,1295.343018 
	C173.139771,1301.308228 179.568100,1307.039551 186.141678,1312.572388 
	C198.802795,1323.229126 211.203796,1334.269531 224.510651,1344.066895 
	C244.062134,1358.462158 264.031158,1372.339233 284.360016,1385.613770 
	C299.354034,1395.404663 314.951599,1404.356934 330.744263,1412.816650 
	C348.863220,1422.522583 367.248138,1431.816284 385.969391,1440.290649 
	C406.228973,1449.461304 426.854950,1457.882202 447.610565,1465.878906 
	C465.636108,1472.823975 483.826508,1479.548340 502.367676,1484.903442 
	C537.800598,1495.137451 573.372620,1504.994507 609.202271,1513.712158 
	C632.255554,1519.321289 655.829285,1522.865845 679.251404,1526.856079 
	C692.302490,1529.079590 705.516479,1530.356567 718.665039,1531.995361 
	C732.311951,1533.696289 745.948975,1535.511230 759.627625,1536.911743 
	C769.455994,1537.918091 779.338989,1538.451904 789.209473,1538.970459 
	C804.065979,1539.751343 818.927246,1540.533936 833.796692,1540.952393 
	C852.894348,1541.489746 872.001526,1541.710083 891.105896,1541.980103 
	C899.436890,1542.097900 907.777954,1542.218994 916.102112,1541.953003 
	C931.969604,1541.446167 947.838379,1540.840088 963.687378,1539.937134 
	C976.328247,1539.216797 988.968445,1538.258423 1001.558655,1536.929443 
	C1017.829590,1535.212036 1034.066284,1533.139526 1050.288696,1531.000244 
	C1066.971191,1528.800415 1083.681885,1526.705933 1100.264160,1523.883911 
	C1116.943481,1521.045532 1133.548706,1517.675903 1150.062134,1513.983521 
	C1172.890259,1508.879272 1195.840576,1504.085693 1218.302612,1497.640137 
	C1245.739258,1489.767456 1272.916748,1480.867188 1299.842896,1471.379761 
	C1320.674438,1464.039795 1341.172852,1455.627563 1361.404907,1446.747681 
	C1381.852539,1437.772949 1402.108887,1428.243286 1421.879761,1417.871704 
	C1455.234497,1400.374268 1487.650879,1381.207764 1517.846680,1358.564209 
	C1534.177246,1346.318115 1550.812866,1334.359741 1566.164795,1320.958496 
	C1583.657104,1305.688965 1599.986816,1289.073242 1616.576660,1272.792847 
	C1621.831543,1267.635986 1626.299683,1261.677490 1632.121704,1256.640137 
	C1630.305420,1261.673096 1628.804321,1266.847656 1626.619507,1271.715210 
	C1615.558960,1296.357666 1605.220703,1321.382812 1592.888306,1345.379150 
	C1580.844604,1368.813721 1567.399780,1391.612793 1553.272095,1413.866821 
	C1540.605469,1433.819214 1526.606079,1452.977173 1512.373169,1471.866455 
	C1502.216675,1485.345825 1491.078735,1498.145752 1479.695312,1510.625488 
	C1465.053711,1526.677246 1450.156616,1542.546997 1434.568726,1557.669556 
	C1420.879883,1570.949463 1406.202637,1583.225464 1391.754517,1595.704590 
	C1367.864868,1616.338379 1342.302124,1634.760376 1315.697388,1651.693359 
	C1301.020386,1661.034790 1286.043579,1669.942749 1270.872437,1678.459229 
	C1256.225830,1686.681152 1241.387573,1694.636353 1226.221680,1701.842041 
	C1198.163086,1715.173828 1169.589111,1727.418823 1139.958740,1736.840210 
	C1116.916138,1744.167114 1093.715454,1751.128174 1070.282349,1757.054688 
	C1050.910034,1761.954224 1031.173340,1765.568970 1011.452576,1768.888550 
	C993.721924,1771.873169 975.831604,1774.054077 957.940369,1775.896240 
	C942.871216,1777.447998 927.711731,1778.306641 912.569824,1778.919678 
	C895.653870,1779.604736 878.702087,1780.195801 861.785400,1779.855957 
	C843.811340,1779.494751 825.813416,1778.501831 807.912170,1776.849854 
	C789.520996,1775.152588 771.200012,1772.559814 752.914978,1769.900513 
	C742.950073,1768.451294 733.123474,1766.051025 722.800781,1764.045898 
z"/>
<path fill="#F37726" opacity="1.000000" stroke="none" 
	d="
M424.234253,339.256592 
	C441.352692,328.152863 458.109222,317.149170 475.101471,306.522430 
	C483.233490,301.436707 491.720093,296.891083 500.204895,292.400909 
	C533.878418,274.581055 568.458008,258.854004 604.286743,245.737946 
	C635.299316,234.385010 666.830994,224.899628 698.881714,217.200684 
	C717.530579,212.721008 736.466248,209.314911 755.395508,206.162369 
	C769.430847,203.824875 783.641296,202.442093 797.815247,201.060593 
	C811.250977,199.751068 824.726807,198.472015 838.209961,198.109528 
	C864.667908,197.398239 891.150757,196.815292 917.608398,197.201080 
	C932.685852,197.420914 947.765320,199.377625 962.787109,201.059586 
	C980.983215,203.097046 999.301575,204.735733 1017.238892,208.230713 
	C1044.192383,213.482437 1071.048340,219.488602 1097.589478,226.519089 
	C1117.961426,231.915405 1137.981445,238.845871 1157.792847,246.092468 
	C1176.535645,252.948196 1194.943970,260.782257 1213.232666,268.794891 
	C1226.983398,274.819275 1240.645386,281.207642 1253.752197,288.502563 
	C1275.079346,300.372620 1296.294800,312.530182 1316.855957,325.664337 
	C1335.383911,337.499817 1353.275024,350.403137 1370.870972,363.603302 
	C1383.709351,373.234528 1395.910522,383.781097 1407.858032,394.517822 
	C1423.863525,408.901306 1439.856445,423.365784 1454.910889,438.720978 
	C1468.856812,452.945862 1481.666260,468.296143 1494.787231,483.315887 
	C1516.199585,507.826538 1535.302979,534.108154 1552.794556,561.499756 
	C1563.915039,578.914612 1574.374023,596.795532 1584.270142,614.936279 
	C1594.032104,632.831177 1603.179321,651.100586 1611.724976,669.607971 
	C1619.239014,685.881653 1625.548096,702.711853 1632.389282,719.296265 
	C1631.983276,719.537415 1631.577271,719.778564 1631.171265,720.019714 
	C1630.581421,719.319824 1630.023438,718.590027 1629.396973,717.924683 
	C1618.365112,706.207947 1607.818726,693.981018 1596.187622,682.892090 
	C1568.572754,656.564392 1539.561890,631.812073 1507.561279,610.898743 
	C1486.032593,596.829102 1464.134277,583.296997 1442.036743,570.136597 
	C1428.469971,562.056885 1414.429810,554.691406 1400.225098,547.780212 
	C1369.809692,532.981750 1338.987305,519.028076 1306.960938,508.020477 
	C1280.410400,498.895020 1253.925049,489.427673 1226.945923,481.744171 
	C1199.015869,473.789948 1170.598633,467.480530 1142.255127,461.067413 
	C1123.526367,456.829742 1104.612671,453.312378 1085.668091,450.155060 
	C1070.192627,447.575928 1054.570190,445.819153 1038.973633,444.042023 
	C1022.350647,442.147888 1005.689453,440.572968 989.029419,439.025665 
	C979.849609,438.173096 970.647095,437.468048 961.438843,437.041290 
	C943.916748,436.229187 926.386475,435.552948 908.853333,435.029724 
	C892.593201,434.544495 876.325500,434.122803 860.059875,434.071625 
	C848.631470,434.035645 837.195496,434.541321 825.772949,435.037140 
	C814.067139,435.545227 802.360962,436.167511 790.677795,437.044067 
	C775.112244,438.211853 759.526001,439.304932 744.026489,441.101898 
	C724.386475,443.378906 704.735046,445.802673 685.249756,449.112488 
	C654.430786,454.347473 623.468933,459.198364 593.078125,466.374481 
	C559.290466,474.352722 525.760315,483.774841 492.705811,494.397247 
	C464.090973,503.592957 436.047607,514.737244 408.224304,526.170410 
	C387.139496,534.834534 366.475220,544.680481 346.196960,555.114502 
	C309.213135,574.144287 273.342285,595.152039 240.191498,620.423157 
	C223.410202,633.215637 206.660751,646.132019 190.788788,660.012207 
	C174.825165,673.972534 159.866241,689.094055 144.686188,703.930969 
	C139.868515,708.639771 135.764450,714.077087 131.298889,719.150330 
	C130.935806,719.562866 130.301605,719.736755 128.852203,719.433594 
	C136.630402,701.095947 143.934311,682.538208 152.315155,664.480225 
	C161.378143,644.952393 170.453247,625.309143 181.317627,606.767700 
	C196.306061,581.188171 212.488922,556.264526 229.103714,531.698059 
	C239.439407,516.415833 251.388763,502.210266 262.843231,487.702576 
	C284.059479,460.830963 308.099854,436.536316 332.799652,412.950256 
	C346.361877,399.999573 360.872406,387.988678 375.468292,376.188477 
	C390.597565,363.957092 406.344025,352.488831 421.833862,340.704285 
	C422.476288,340.215546 423.254333,339.904999 424.234253,339.256592 
z"/>
<path fill="#9E9E9E" opacity="1.000000" stroke="none" 
	d="
M266.166382,1732.001953 
	C275.388641,1731.666992 284.177917,1730.760742 292.918274,1731.103027 
	C324.054657,1732.322388 352.292480,1742.151367 377.327423,1760.834961 
	C398.710266,1776.793335 414.909882,1796.975708 425.668335,1821.372314 
	C431.605591,1834.835938 435.751617,1848.872314 437.021454,1863.645874 
	C437.597687,1870.350098 439.345734,1877.119263 438.812927,1883.717773 
	C437.762207,1896.731567 436.516571,1909.890503 433.504578,1922.550171 
	C427.874664,1946.213135 416.481537,1967.072266 400.230316,1985.419678 
	C377.277618,2011.332886 348.954132,2027.206665 315.144531,2034.208374 
	C301.034485,2037.130371 286.868866,2037.828857 272.777344,2036.796997 
	C243.830170,2034.677490 217.444305,2024.443481 194.081070,2007.366211 
	C172.884857,1991.872803 156.847961,1971.781250 146.018112,1947.784180 
	C139.979721,1934.404053 135.415848,1920.525391 133.968750,1905.779297 
	C133.425156,1900.239990 132.152618,1894.728638 132.082932,1889.193481 
	C131.648468,1854.677612 140.556107,1822.907349 160.854813,1794.699341 
	C180.741379,1767.064331 206.958527,1748.037598 239.536667,1738.092407 
	C248.084412,1735.482788 256.976807,1734.002197 266.166382,1732.001953 
z"/>
<path fill="#767677" opacity="1.000000" stroke="none" 
	d="
M1572.290161,210.359070 
	C1564.159790,225.765854 1552.475586,237.659653 1539.169678,247.885071 
	C1522.574341,260.638367 1503.432373,268.062256 1482.823120,270.784851 
	C1460.746582,273.701324 1439.159912,270.684113 1418.585205,261.834595 
	C1404.096924,255.602936 1391.267090,246.874405 1380.143066,235.653870 
	C1362.604858,217.963577 1351.705200,196.758621 1347.074951,172.389694 
	C1341.786377,144.555573 1346.020142,117.931053 1359.118286,92.954147 
	C1369.993530,72.216248 1385.812744,56.004272 1406.247192,44.243248 
	C1419.945068,36.359390 1434.640381,31.272512 1450.086548,29.238815 
	C1478.305298,25.523422 1505.093506,30.442007 1529.786133,45.235203 
	C1550.300171,57.524998 1565.830322,74.425751 1576.299072,95.820442 
	C1584.971924,113.544838 1588.432129,132.357208 1588.192993,152.194839 
	C1587.969482,170.734573 1583.339966,187.899277 1575.792725,204.524368 
	C1574.911743,206.464920 1573.601196,208.210403 1572.290161,210.359070 
z"/>
<path fill="#4E4E4E" opacity="1.000000" stroke="none" 
	d="
M539.514648,860.152100 
	C552.460205,860.054260 564.957825,860.128418 577.451721,859.947754 
	C580.913025,859.897644 581.939270,861.032227 582.091858,864.505920 
	C582.640076,876.990479 583.574280,889.458069 584.374878,902.125366 
	C589.024414,896.774475 593.398132,891.695801 597.820984,886.660339 
	C607.512939,875.625732 619.597900,867.934448 632.923523,862.172852 
	C646.935364,856.114502 661.766602,853.858765 676.949158,854.029602 
	C701.310425,854.303772 723.670776,861.369202 742.769714,876.432617 
	C759.796326,889.861633 771.269653,907.627563 779.215088,927.919922 
	C788.959045,952.805359 790.475830,978.693542 788.765503,1004.718689 
	C786.775757,1034.995605 777.824219,1063.331299 758.155518,1087.135864 
	C740.869019,1108.057251 718.690735,1121.295898 691.731384,1125.973145 
	C671.711548,1129.446289 651.888062,1129.513428 632.516541,1122.273315 
	C615.803223,1116.026733 602.047791,1105.804810 591.104431,1091.743286 
	C590.827271,1091.387329 590.319092,1091.211182 589.036438,1090.378296 
	C589.036438,1092.851929 589.036438,1094.734375 589.036438,1096.616821 
	C589.036377,1138.772339 589.037598,1180.927979 589.035095,1223.083496 
	C589.034668,1229.993774 589.027039,1229.997803 581.916626,1229.999634 
	C569.753174,1230.002563 557.584351,1229.792847 545.429016,1230.106812 
	C540.874268,1230.224487 539.896667,1228.657715 539.911560,1224.399292 
	C540.055054,1183.410645 539.996826,1142.421143 539.997253,1101.432007 
	C539.997864,1032.283569 540.078430,963.135010 539.912415,893.987000 
	C539.888245,883.929504 538.644531,873.877075 538.084595,863.815613 
	C538.019287,862.641541 538.719788,861.424805 539.514648,860.152100 
M598.510742,936.031067 
	C591.410583,948.983093 588.355103,962.750305 588.919739,977.588135 
	C589.451477,991.559326 588.921875,1005.568237 589.051941,1019.558777 
	C589.093262,1023.999817 589.155518,1028.586670 590.234863,1032.846680 
	C594.759216,1050.704102 604.060181,1065.500732 619.384827,1076.161133 
	C635.572937,1087.422363 653.304871,1091.853394 672.985657,1089.088501 
	C693.053894,1086.269043 708.995178,1076.787964 721.077271,1060.725220 
	C733.922058,1043.648560 739.199707,1023.715149 740.793274,1002.954468 
	C742.320801,983.054565 740.772156,963.268311 733.236206,944.337646 
	C728.591797,932.670654 722.264099,922.111389 713.535583,913.149353 
	C706.420166,905.843445 697.787842,900.274597 688.109619,897.369812 
	C679.991577,894.933289 671.272400,893.243042 662.863220,893.411743 
	C655.480835,893.559753 647.894348,896.050049 640.862549,898.726379 
	C622.466431,905.727661 608.221313,917.835876 598.510742,936.031067 
z"/>
<path fill="#4E4E4E" opacity="1.000000" stroke="none" 
	d="
M1411.149902,1085.934204 
	C1425.535767,1090.541748 1439.849487,1091.119385 1454.282104,1089.106323 
	C1467.498047,1087.262817 1480.735962,1085.426025 1493.821411,1082.858276 
	C1500.727417,1081.502686 1507.328369,1078.593018 1514.602905,1076.209595 
	C1517.292236,1087.632568 1520.036133,1098.947021 1522.491699,1110.323730 
	C1522.701538,1111.295654 1521.252319,1113.342285 1520.140015,1113.775269 
	C1503.151855,1120.390625 1485.739258,1125.656372 1467.476929,1126.926880 
	C1451.101807,1128.066040 1434.623291,1129.396362 1418.269043,1128.725220 
	C1398.600342,1127.918213 1379.984131,1122.048218 1363.085815,1111.489746 
	C1331.845703,1091.970581 1312.254517,1064.067871 1306.547729,1027.835449 
	C1304.052368,1011.992554 1305.584473,995.440002 1306.030762,979.230164 
	C1306.485718,962.703125 1310.658081,946.799622 1317.060425,931.616577 
	C1322.584595,918.516418 1329.531494,906.281494 1338.938110,895.311096 
	C1351.686035,880.443848 1367.188477,869.939270 1385.229370,862.981934 
	C1396.069214,858.801575 1407.356934,856.414734 1419.047974,855.962646 
	C1433.770874,855.393494 1448.400757,855.585510 1462.638550,859.975952 
	C1475.397461,863.910461 1487.083984,869.758728 1497.242554,878.664673 
	C1519.249146,897.957458 1529.810791,923.119019 1533.860352,951.223328 
	C1535.954956,965.760132 1536.159058,980.582397 1536.933472,995.290649 
	C1537.284058,1001.947754 1536.970337,1001.989197 1530.372314,1001.989990 
	C1474.715088,1001.997009 1419.057739,1001.994019 1363.400513,1001.994080 
	C1352.640991,1001.994080 1352.502075,1002.001160 1353.028931,1012.548523 
	C1353.701782,1026.022949 1357.808716,1038.429565 1364.907959,1049.935913 
	C1375.795288,1067.582153 1391.309814,1079.200195 1411.149902,1085.934204 
M1353.072266,960.486389 
	C1353.609985,964.669250 1356.931152,962.914185 1358.969849,962.919678 
	C1401.257935,963.033508 1443.546387,963.009094 1485.834839,962.993469 
	C1487.764648,962.992737 1489.694458,962.816467 1491.612549,962.722534 
	C1493.832520,950.214539 1491.785278,938.891602 1486.994995,927.914612 
	C1480.818970,913.762451 1470.822144,902.946228 1457.531250,895.412109 
	C1447.477295,889.712891 1436.310303,886.447449 1424.768921,887.255310 
	C1412.488770,888.114868 1400.864990,892.160156 1390.374268,898.890686 
	C1376.666748,907.685181 1365.659790,918.994019 1359.939941,934.448059 
	C1356.934937,942.566895 1355.334839,951.205688 1353.072266,960.486389 
z"/>
<path fill="#4E4E4E" opacity="1.000000" stroke="none" 
	d="
M878.994873,1003.998901 
	C859.530396,955.766052 840.193420,907.897949 820.662842,859.550537 
	C822.598816,859.315125 823.853577,859.032471 825.108948,859.029785 
	C839.940247,858.998413 854.772705,859.103394 869.602295,858.940430 
	C873.203552,858.900879 874.854675,860.234497 876.095520,863.584839 
	C890.327209,902.011169 904.742859,940.369202 919.047302,978.768616 
	C925.153198,995.159485 931.333374,1011.528320 937.061768,1028.052124 
	C940.791565,1038.811035 943.757202,1049.834351 947.096985,1060.729492 
	C947.462830,1061.922974 948.039612,1063.051758 948.925659,1065.195435 
	C952.114746,1054.810059 954.846497,1045.372559 957.910583,1036.044189 
	C965.084961,1014.202698 972.403564,992.408447 979.692017,970.604553 
	C986.765198,949.444946 993.854431,928.290527 1000.973572,907.146301 
	C1005.612915,893.367310 1010.334534,879.616089 1014.984375,865.840637 
	C1016.378418,861.710693 1018.511536,859.685791 1023.522644,859.838806 
	C1038.316650,860.290588 1053.133545,860.000183 1068.829224,860.000183 
	C1066.213623,867.129517 1063.922852,873.626160 1061.456299,880.055359 
	C1048.308960,914.323730 1035.135986,948.582214 1021.934692,982.829773 
	C1014.322815,1002.576843 1006.840698,1022.377319 998.940491,1042.009033 
	C988.761780,1067.302734 978.790527,1092.704712 967.680908,1117.591919 
	C956.363892,1142.943726 944.003479,1167.928467 926.498535,1189.742310 
	C908.555298,1212.102417 886.566284,1229.203003 858.885681,1238.148926 
	C857.324585,1238.653442 855.707825,1238.982910 854.134827,1239.453369 
	C846.982910,1241.593262 847.018066,1241.460083 844.966492,1234.105957 
	C841.866882,1222.994873 838.479370,1211.964233 835.148621,1200.677002 
	C839.283569,1198.805908 843.208252,1196.701538 847.354309,1195.214600 
	C860.384094,1190.541870 870.912781,1182.109741 881.240845,1173.297363 
	C896.617737,1160.177246 907.630127,1143.923340 916.756531,1126.010864 
	C921.388916,1116.918701 921.614807,1108.700195 917.802368,1099.466919 
	C906.503235,1072.102173 895.607666,1044.570923 884.526794,1017.115784 
	C882.799133,1012.835266 880.927368,1008.612976 878.994873,1003.998901 
z"/>
<path fill="#4E4E4E" opacity="1.000000" stroke="none" 
	d="
M402.998535,878.000610 
	C403.004150,872.501648 403.086517,867.500854 402.983734,862.503967 
	C402.930725,859.924194 403.975708,858.973572 406.527130,858.985474 
	C420.524536,859.050598 434.522552,859.053955 448.519928,858.986145 
	C451.128082,858.973511 452.157257,860.039185 451.994904,862.561707 
	C451.909454,863.888916 451.993378,865.226868 451.993378,866.559937 
	C451.994110,925.383972 452.050598,984.208069 451.948944,1043.031860 
	C451.927124,1055.653076 451.045044,1068.274048 451.080444,1080.893555 
	C451.118011,1094.277954 451.776337,1107.660645 452.179504,1121.596069 
	C451.274750,1121.693359 449.862946,1121.972656 448.450287,1121.977051 
	C436.952240,1122.013062 425.450470,1121.835693 413.957703,1122.085449 
	C409.916229,1122.173218 409.059845,1120.731079 408.889496,1116.935547 
	C408.385010,1105.693359 407.367889,1094.474365 406.478394,1082.244263 
	C403.363983,1086.025879 400.570587,1089.287720 397.918030,1092.660400 
	C384.259216,1110.027588 366.166107,1120.747681 345.036591,1125.637817 
	C325.592255,1130.137939 305.883698,1129.740356 286.734131,1123.025879 
	C268.161072,1116.513672 254.303040,1104.453247 244.624954,1087.313110 
	C235.752975,1071.600708 231.063522,1054.647461 230.123001,1036.835205 
	C229.159286,1018.583496 229.114090,1000.272766 229.044434,981.986450 
	C228.898422,943.659729 229.000244,905.332092 229.000305,867.004822 
	C229.000305,864.891235 229.000305,862.777710 229.000305,860.292725 
	C231.431488,860.176758 233.216949,860.021240 235.002701,860.017822 
	C246.667480,859.995544 258.332306,860.004150 269.997131,860.006897 
	C278.030182,860.008789 278.037140,860.011780 278.035522,867.813782 
	C278.025146,917.805420 277.611786,967.801880 278.214935,1017.786072 
	C278.427155,1035.371948 282.191101,1052.675171 293.185394,1067.267212 
	C302.204437,1079.237427 314.691193,1085.031982 329.499054,1085.985474 
	C341.217010,1086.740234 352.524109,1085.315552 363.392792,1080.370117 
	C379.865570,1072.874512 392.012268,1061.046875 397.811951,1044.021606 
	C400.946716,1034.819336 402.667419,1024.703857 402.775085,1014.975403 
	C403.278503,969.488525 402.998566,923.992981 402.998535,878.000610 
z"/>
<path fill="#616262" opacity="1.000000" stroke="none" 
	d="
M132.430145,389.716431 
	C120.467239,385.175995 110.217690,378.490082 101.489296,369.850739 
	C91.915535,360.374664 84.643631,349.152130 80.616745,336.158112 
	C70.836258,304.598206 75.178963,275.496185 96.722031,249.848450 
	C113.814682,229.499084 135.848038,219.509888 162.513992,218.901337 
	C188.569412,218.306686 210.461792,227.618805 228.284561,245.994583 
	C240.672684,258.767090 248.445450,274.307526 251.082367,292.233307 
	C254.610825,316.219940 250.021683,338.366455 235.840042,358.040894 
	C221.615768,377.774445 202.393707,390.087463 178.161942,394.005371 
	C162.706238,396.504303 147.547699,395.255371 132.430145,389.716431 
z"/>
<path fill="#4E4E4E" opacity="1.000000" stroke="none" 
	d="
M1182.207764,788.127319 
	C1186.802246,787.157288 1190.985474,786.261902 1195.998657,785.188843 
	C1195.998657,787.438354 1195.998657,789.348083 1195.998657,791.257751 
	C1195.999023,812.415833 1196.099854,833.574768 1195.913696,854.731262 
	C1195.877197,858.879517 1197.111206,860.125854 1201.263550,860.083496 
	C1220.420532,859.887817 1239.581543,860.108826 1258.738525,859.912903 
	C1262.895142,859.870422 1264.213989,861.117798 1264.084717,865.271729 
	C1263.805176,874.259399 1263.840576,883.265869 1264.072754,892.256165 
	C1264.169922,896.015869 1262.895874,897.097168 1259.207520,897.068054 
	C1239.883301,896.915222 1220.556030,897.110718 1201.232544,896.911560 
	C1197.038696,896.868408 1195.908081,898.194031 1195.918945,902.297363 
	C1196.045532,950.277588 1195.791260,998.259888 1196.167358,1046.237427 
	C1196.248779,1056.606323 1198.533325,1066.871582 1204.873047,1075.759155 
	C1209.743164,1082.586304 1216.353882,1086.630371 1224.446167,1086.836182 
	C1235.871460,1087.126953 1247.325439,1086.288574 1259.623535,1085.906372 
	C1260.181030,1096.472412 1260.811890,1108.430176 1261.510864,1121.676514 
	C1253.059692,1123.420288 1244.451416,1125.474121 1235.739624,1126.891602 
	C1230.385010,1127.762817 1224.876465,1127.833862 1219.429810,1127.965210 
	C1200.287109,1128.427124 1182.603516,1123.480347 1168.983887,1109.832886 
	C1162.532837,1103.368652 1158.212280,1094.380493 1154.260254,1085.913208 
	C1148.312744,1073.170532 1146.873901,1059.316650 1146.985229,1045.303223 
	C1147.360474,998.032776 1147.673950,950.761963 1147.991577,903.491089 
	C1148.035156,897.010559 1147.983887,897.002136 1141.463867,896.996460 
	C1131.467896,896.987671 1121.469727,896.868286 1111.477295,897.056030 
	C1107.939819,897.122437 1106.877441,895.853577 1106.942749,892.429138 
	C1107.120361,883.102966 1107.136719,873.768311 1106.937134,864.443115 
	C1106.860718,860.870605 1108.200439,859.889160 1111.589600,859.943176 
	C1121.916016,860.107727 1132.254517,859.769470 1142.572632,860.104919 
	C1147.132812,860.253174 1148.145752,858.653625 1148.092163,854.394165 
	C1147.876343,837.237122 1148.003174,820.075867 1148.003418,802.916138 
	C1148.003418,800.933777 1148.003296,798.951416 1148.003296,796.555359 
	C1159.441406,793.727966 1170.619019,790.964966 1182.207764,788.127319 
z"/>
<path fill="#4E4E4E" opacity="1.000000" stroke="none" 
	d="
M84.013885,1159.940063 
	C86.095421,1150.552124 89.278275,1141.604248 89.807655,1132.502197 
	C94.568184,1050.648926 90.841843,968.703247 91.983505,886.803894 
	C92.094986,878.806274 92.159981,870.801208 91.928970,862.808777 
	C91.822739,859.133484 92.939613,857.865723 96.720680,857.923889 
	C109.716194,858.123779 122.719376,858.148438 135.713715,857.913208 
	C139.844894,857.838440 141.111664,859.071960 141.084930,863.246765 
	C140.915344,889.742798 140.999817,916.240479 140.999939,942.737610 
	C141.000168,989.899170 140.935043,1037.060913 141.045639,1084.222168 
	C141.073288,1096.013062 142.360107,1107.832520 141.853531,1119.586548 
	C140.824631,1143.460083 133.290680,1165.412231 121.585541,1186.291138 
	C108.080956,1210.380005 85.796112,1221.419556 61.024277,1228.616699 
	C50.404175,1231.702393 39.047932,1232.254517 27.486467,1234.041138 
	C25.591413,1220.699463 23.906340,1208.836060 22.224504,1196.995483 
	C29.632401,1195.633667 37.056828,1194.946167 44.058784,1192.848389 
	C61.718662,1187.557373 76.986488,1178.949585 84.013885,1159.940063 
z"/>
<path fill="#4E4E4E" opacity="1.000000" stroke="none" 
	d="
M1655.001099,1044.000000 
	C1655.001099,1070.118530 1655.001099,1095.737061 1655.001099,1121.994751 
	C1647.148560,1121.994751 1639.712158,1121.994873 1632.275757,1121.994751 
	C1625.779419,1121.994629 1619.283203,1122.004272 1612.786865,1121.991211 
	C1606.053955,1121.977783 1606.029297,1121.968140 1606.026733,1115.411499 
	C1606.016235,1088.926636 1606.022095,1062.441772 1606.022095,1035.956909 
	C1606.021973,1007.806335 1604.888794,979.594360 1606.410645,951.526306 
	C1607.468140,932.022888 1607.984985,912.566223 1607.896362,893.078430 
	C1607.852783,883.501526 1606.704102,873.930420 1606.094238,864.354248 
	C1606.021484,863.209961 1606.192505,862.050110 1606.279175,860.327393 
	C1608.123169,860.214417 1609.883423,860.018188 1611.644287,860.013367 
	C1622.304810,859.984192 1632.972778,860.231018 1643.622681,859.894409 
	C1648.489380,859.740540 1650.301025,860.865112 1650.132935,866.159302 
	C1649.720947,879.138794 1649.990967,892.140137 1650.009033,905.132690 
	C1650.011230,906.719849 1650.148926,908.306946 1650.577026,910.079224 
	C1665.960815,871.015198 1694.363159,852.364136 1736.594238,853.777588 
	C1736.594238,869.169495 1736.594238,883.909668 1736.594238,898.020081 
	C1726.153564,899.338013 1715.450684,899.551392 1705.382202,902.187744 
	C1681.618774,908.410156 1662.444580,928.731506 1657.846802,953.474304 
	C1655.247803,967.461975 1654.924438,981.437805 1654.985229,995.527466 
	C1655.054199,1011.518005 1655.001099,1027.509155 1655.001099,1044.000000 
z"/>
<path fill="#000000" opacity="1.000000" stroke="none" 
	d="
M598.700439,935.711060 
	C608.221313,917.835876 622.466431,905.727661 640.862549,898.726379 
	C647.894348,896.050049 655.480835,893.559753 662.863220,893.411743 
	C671.272400,893.243042 679.991577,894.933289 688.109619,897.369812 
	C697.787842,900.274597 706.420166,905.843445 713.535583,913.149353 
	C722.264099,922.111389 728.591797,932.670654 733.236206,944.337646 
	C740.772156,963.268311 742.320801,983.054565 740.793274,1002.954468 
	C739.199707,1023.715149 733.922058,1043.648560 721.077271,1060.725220 
	C708.995178,1076.787964 693.053894,1086.269043 672.985657,1089.088501 
	C653.304871,1091.853394 635.572937,1087.422363 619.384827,1076.161133 
	C604.060181,1065.500732 594.759216,1050.704102 590.234863,1032.846680 
	C589.155518,1028.586670 589.093262,1023.999817 589.051941,1019.558777 
	C588.921875,1005.568237 589.451477,991.559326 588.919739,977.588135 
	C588.355103,962.750305 591.410583,948.983093 598.700439,935.711060 
z"/>
<path fill="#000000" opacity="1.000000" stroke="none" 
	d="
M1353.086304,960.048096 
	C1355.334839,951.205688 1356.934937,942.566895 1359.939941,934.448059 
	C1365.659790,918.994019 1376.666748,907.685181 1390.374268,898.890686 
	C1400.864990,892.160156 1412.488770,888.114868 1424.768921,887.255310 
	C1436.310303,886.447449 1447.477295,889.712891 1457.531250,895.412109 
	C1470.822144,902.946228 1480.818970,913.762451 1486.994995,927.914612 
	C1491.785278,938.891602 1493.832520,950.214539 1491.612549,962.722534 
	C1489.694458,962.816467 1487.764648,962.992737 1485.834839,962.993469 
	C1443.546387,963.009094 1401.257935,963.033508 1358.969849,962.919678 
	C1356.931152,962.914185 1353.609985,964.669250 1353.086304,960.048096 
z"/>
</svg>