<?xml version="1.0" standalone="no"?>
<!DOCTYPE svg PUBLIC "-//W3C//DTD SVG 20010904//EN"
 "http://www.w3.org/TR/2001/REC-SVG-20010904/DTD/svg10.dtd">
<svg version="1.0" xmlns="http://www.w3.org/2000/svg"
 width="200.000000pt" height="200.000000pt" viewBox="0 0 200.000000 200.000000"
 preserveAspectRatio="xMidYMid meet">

<g transform="translate(0.000000,200.000000) scale(0.100000,-0.100000)"
fill="#000000" stroke="none">
<path d="M925 1971 c-39 -17 -90 -41 -330 -156 -66 -32 -178 -86 -250 -120
-71 -34 -138 -71 -148 -83 -18 -20 -53 -148 -126 -467 -18 -77 -41 -177 -52
-222 -10 -45 -19 -113 -19 -150 0 -72 1 -74 71 -157 26 -31 258 -320 314 -392
78 -99 149 -176 172 -185 32 -12 864 -12 896 0 14 6 76 74 139 151 62 78 138
172 168 209 30 37 76 94 102 127 26 32 68 85 93 116 l45 57 0 81 c0 45 -9 117
-20 163 -10 45 -33 145 -50 222 -46 206 -90 386 -102 418 -14 37 -35 49 -223
139 -88 42 -227 109 -310 148 -277 133 -289 137 -370 101z m368 -359 c34 -16
79 -44 100 -62 81 -72 155 -227 173 -358 6 -49 7 -51 44 -57 44 -7 110 -60
144 -114 13 -20 31 -67 41 -106 40 -160 -19 -330 -139 -400 l-44 -25 -614 2
-615 3 -41 28 c-91 64 -139 158 -149 292 -5 71 13 169 42 225 23 45 104 118
150 136 25 9 45 20 45 25 0 5 9 32 20 62 56 151 199 220 314 153 l44 -25 37
59 c106 170 287 235 448 162z m-443 -1237 c21 -11 30 -23 30 -40 0 -31 -26
-34 -35 -4 -6 17 -14 20 -48 17 -34 -2 -42 -7 -42 -22 0 -15 12 -22 54 -32 77
-17 102 -60 65 -112 -12 -18 -25 -22 -70 -22 -59 0 -94 22 -94 60 0 26 30 26
37 0 6 -22 37 -34 74 -28 38 5 33 49 -6 60 -86 25 -117 57 -95 98 21 39 81 50
130 25z m-300 -42 l0 -47 48 47 c30 30 56 47 72 47 23 0 21 -3 -19 -44 l-44
-45 18 -28 c10 -15 32 -45 48 -66 l30 -39 -28 4 c-20 2 -37 16 -60 48 -42 59
-59 59 -63 -2 -3 -40 -6 -48 -23 -48 -18 0 -19 8 -19 110 0 103 1 110 20 110
17 0 20 -7 20 -47z m499 -39 c12 -15 21 -35 21 -45 0 -16 -8 -19 -60 -19 -46
0 -60 -3 -60 -15 0 -12 28 -35 44 -35 3 0 14 10 25 21 12 14 26 19 37 15 15
-6 15 -9 1 -29 -11 -17 -26 -23 -63 -25 -40 -3 -51 0 -66 20 -24 31 -23 79 3
112 16 20 29 26 59 26 30 0 43 -6 59 -26z m186 -25 c9 -28 20 -47 23 -44 4 3
14 25 22 48 9 23 23 43 33 45 23 5 22 -6 -10 -89 -36 -92 -57 -92 -93 1 -23
61 -27 66 -50 60 -23 -5 -25 -11 -28 -68 -3 -54 -6 -62 -22 -62 -18 0 -20 7
-20 80 l0 80 64 0 64 0 17 -51z m244 25 c12 -15 21 -35 21 -45 0 -16 -8 -19
-60 -19 -62 0 -71 -7 -44 -34 20 -21 29 -20 53 5 12 14 26 19 37 15 15 -6 15
-9 1 -29 -21 -33 -97 -36 -126 -6 -27 29 -27 79 0 113 16 20 29 26 59 26 30 0
43 -6 59 -26z"/>
<path d="M1100 1551 c-58 -19 -110 -53 -147 -96 -45 -53 -63 -87 -94 -172 -12
-35 -24 -63 -28 -63 -3 0 -19 22 -36 47 -34 54 -86 93 -123 93 -14 0 -44 -11
-67 -25 -48 -28 -84 -96 -94 -180 -6 -47 -8 -50 -33 -47 -40 5 -112 -31 -142
-71 -73 -96 -76 -296 -6 -387 l19 -25 196 195 195 194 78 -77 78 -78 145 144
c208 208 191 179 138 233 l-44 46 105 -7 c148 -9 150 -9 151 -48 0 -17 4 -71
7 -119 4 -49 5 -88 2 -88 -2 0 -23 18 -45 40 l-41 40 -210 -210 -211 -211 -84
86 -84 86 -140 -141 -140 -140 568 0 c401 0 575 3 590 11 72 37 117 127 117
233 0 96 -22 156 -75 205 -41 37 -49 41 -98 41 l-54 0 -7 72 c-13 142 -59 258
-135 341 -56 61 -183 101 -251 78z"/>
<path d="M957 283 c-16 -15 -5 -23 33 -23 31 0 38 3 34 15 -6 15 -55 21 -67 8z"/>
<path d="M1386 275 c-4 -12 3 -15 34 -15 31 0 38 3 34 15 -4 8 -18 15 -34 15
-16 0 -30 -7 -34 -15z"/>
</g>
</svg>
