<?xml version="1.0" standalone="no"?>
<!DOCTYPE svg PUBLIC "-//W3C//DTD SVG 20010904//EN"
 "http://www.w3.org/TR/2001/REC-SVG-20010904/DTD/svg10.dtd">
<svg version="1.0" xmlns="http://www.w3.org/2000/svg"
 width="439.000000pt" height="115.000000pt" viewBox="0 0 439.000000 115.000000"
 preserveAspectRatio="xMidYMid meet">

<g transform="translate(0.000000,115.000000) scale(0.100000,-0.100000)"
fill="#000000" stroke="none">
<path d="M498 1138 c-9 -7 -18 -26 -21 -41 -2 -15 -2 -25 1 -22 3 2 11 0 18
-6 20 -16 61 -3 67 22 3 13 -2 28 -14 40 -22 22 -30 23 -51 7z"/>
<path d="M620 1046 c0 -3 9 -10 20 -16 11 -6 20 -8 20 -6 0 3 -9 10 -20 16
-11 6 -20 8 -20 6z"/>
<path d="M272 1012 c-13 -9 -35 -73 -24 -70 4 1 16 -3 27 -9 47 -26 87 47 41
74 -25 15 -27 15 -44 5z"/>
<path d="M727 1009 c-9 -5 -23 -7 -30 -3 -8 5 -8 2 2 -9 7 -9 11 -25 9 -35 -7
-25 38 -43 67 -28 24 13 22 54 -3 74 -19 14 -22 14 -45 1z"/>
<path d="M3490 685 l0 -295 25 0 25 0 0 295 0 295 -25 0 -25 0 0 -295z"/>
<path d="M3610 765 c0 -199 2 -219 21 -257 109 -215 420 -142 419 98 -1 98
-50 174 -137 211 -68 28 -170 11 -220 -36 -12 -12 -25 -21 -28 -21 -3 0 -5 50
-5 110 l0 110 -25 0 -25 0 0 -215z m283 1 c44 -18 95 -78 103 -121 15 -79 -23
-156 -96 -193 -73 -38 -159 -14 -204 56 -32 49 -40 91 -26 141 27 102 131 156
223 117z"/>
<path d="M4110 930 c0 -47 2 -50 25 -50 23 0 25 3 25 50 0 47 -2 50 -25 50
-23 0 -25 -3 -25 -50z"/>
<path d="M2860 865 l0 -105 -43 31 c-90 63 -211 48 -285 -37 -63 -71 -78 -174
-37 -253 20 -40 79 -94 118 -108 51 -18 133 -16 176 6 50 26 107 91 120 138 6
21 11 127 11 236 l0 197 -30 0 -30 0 0 -105z m-125 -96 c109 -29 158 -156 100
-255 -27 -46 -90 -84 -141 -84 -53 1 -110 35 -138 82 -67 115 -2 244 134 267
3 1 23 -4 45 -10z"/>
<path d="M4230 723 c0 -177 4 -255 13 -272 18 -35 56 -60 105 -67 42 -7 44 -6
40 16 -2 16 -12 26 -32 31 -62 17 -66 27 -66 191 l0 148 50 0 c47 0 50 2 50
25 0 23 -3 25 -50 25 l-50 0 0 75 0 75 -30 0 -30 0 0 -247z"/>
<path d="M664 924 c-18 -14 -18 -15 4 -4 12 6 22 13 22 15 0 8 -5 6 -26 -11z"/>
<path d="M830 926 c0 -3 9 -10 20 -16 11 -6 20 -8 20 -6 0 3 -9 10 -20 16 -11
6 -20 8 -20 6z"/>
<path d="M24 875 c-28 -28 -26 -60 7 -84 15 -11 19 -26 19 -82 0 -59 -3 -71
-25 -93 -32 -32 -32 -50 0 -82 22 -22 25 -34 25 -95 0 -54 -3 -71 -16 -76 -23
-8 -35 -49 -24 -78 11 -29 49 -41 79 -26 31 17 130 -44 145 -90 14 -42 53 -59
90 -40 14 8 30 10 38 5 11 -6 11 -5 -1 9 -7 9 -11 30 -9 46 2 17 2 29 -1 29
-3 -1 -14 2 -23 6 -15 7 -18 21 -18 86 0 96 10 103 88 57 43 -25 58 -40 64
-65 11 -43 47 -60 86 -42 15 7 30 13 33 12 3 0 3 12 1 28 -4 25 2 31 59 65 82
48 93 42 97 -49 3 -62 1 -70 -23 -91 -34 -33 -34 -78 0 -93 14 -7 34 -12 45
-12 21 0 50 35 50 61 0 10 25 32 61 53 47 28 64 34 79 26 28 -15 48 -12 70 10
27 27 25 56 -5 84 -22 20 -25 32 -25 91 0 60 3 69 25 87 32 25 32 61 0 86 -22
18 -25 27 -25 87 0 59 3 71 25 91 30 28 32 57 5 84 -24 24 -49 25 -76 6 -15
-11 -22 -12 -34 -3 -13 10 -13 10 -2 -5 25 -32 10 -60 -50 -95 -48 -28 -61
-31 -83 -23 -19 7 -33 6 -54 -5 -16 -8 -30 -12 -33 -10 -2 2 -2 -10 0 -28 3
-30 -1 -34 -57 -65 -49 -26 -64 -30 -85 -22 -18 6 -34 6 -50 -1 -21 -10 -33
-6 -85 25 -65 40 -77 66 -43 93 16 13 16 14 -2 5 -12 -6 -28 -5 -46 5 -21 10
-34 11 -52 3 -21 -10 -33 -6 -87 26 -57 34 -62 40 -59 66 3 15 2 26 0 23 -3
-2 -14 2 -26 10 -29 21 -43 19 -72 -10z m198 -144 c5 -4 9 -19 10 -34 3 -35
48 -59 86 -45 23 9 36 5 84 -23 57 -33 77 -65 54 -90 -8 -9 -8 -10 1 -5 7 4
23 0 37 -9 22 -15 27 -15 55 0 23 12 31 22 31 43 0 23 9 32 60 60 50 28 65 32
88 24 38 -13 82 13 82 48 0 21 11 32 62 62 84 48 98 40 98 -57 0 -60 -3 -72
-20 -83 -12 -7 -24 -11 -28 -8 -4 2 -7 -15 -7 -39 0 -24 3 -41 7 -39 4 3 16
-1 28 -8 17 -11 20 -23 20 -85 0 -63 -3 -74 -21 -83 -11 -7 -28 -9 -37 -5 -14
5 -15 4 -4 -6 28 -29 14 -57 -49 -94 -83 -49 -99 -40 -99 55 0 59 3 71 22 84
12 8 24 13 27 11 4 -2 5 14 3 34 -3 28 -11 42 -31 54 -24 14 -30 14 -59 0 -17
-8 -31 -18 -30 -22 4 -38 -6 -51 -64 -84 -55 -31 -65 -33 -82 -22 -16 12 -23
12 -45 1 -24 -13 -31 -11 -88 23 -50 29 -63 41 -63 61 0 17 -9 31 -28 42 -25
15 -31 15 -59 2 -26 -13 -31 -21 -29 -46 1 -18 12 -38 24 -49 19 -15 22 -27
22 -88 0 -95 -13 -102 -98 -54 -69 39 -81 67 -39 97 22 16 22 16 -5 4 -45 -18
-58 2 -58 86 0 60 3 73 20 84 28 17 28 77 0 94 -17 11 -20 24 -20 83 0 96 9
103 79 64 31 -17 59 -34 63 -38z"/>
<path d="M144 624 c-18 -14 -18 -15 4 -4 12 6 22 13 22 15 0 8 -5 6 -26 -11z"/>
<path d="M130 536 c0 -3 9 -10 20 -16 11 -6 20 -8 20 -6 0 3 -9 10 -20 16 -11
6 -20 8 -20 6z"/>
<path d="M394 504 c-18 -14 -18 -15 4 -4 12 6 22 13 22 15 0 8 -5 6 -26 -11z"/>
<path d="M458 874 c25 -18 28 -43 10 -63 -9 -9 -9 -12 -1 -7 6 3 22 2 35 -3
15 -5 31 -5 41 0 11 7 25 6 39 -1 23 -11 23 -11 3 7 -11 10 -20 27 -20 38 1
28 -33 46 -61 33 -15 -7 -29 -6 -45 1 l-24 12 23 -17z"/>
<path d="M3162 828 c-48 -8 -86 -32 -130 -83 -96 -108 -46 -292 95 -352 88
-37 212 3 265 86 l29 46 -27 3 c-21 3 -33 -4 -51 -27 -64 -81 -190 -86 -259
-9 -26 28 -44 62 -44 82 0 14 25 16 196 16 l197 0 -5 48 c-12 123 -137 213
-266 190z m100 -58 c41 -12 108 -81 108 -112 0 -17 -12 -18 -166 -18 l-165 0
7 23 c12 40 43 74 86 96 48 23 76 26 130 11z"/>
<path d="M1390 819 c-14 -6 -36 -20 -48 -32 -47 -44 -52 -66 -52 -237 l0 -160
25 0 25 0 0 143 c0 117 4 149 19 183 33 73 119 84 177 23 l29 -30 3 -160 3
-159 30 0 29 0 0 161 0 161 29 28 c54 55 128 50 168 -9 21 -32 23 -44 23 -187
l0 -154 30 0 30 0 0 153 c0 139 -2 157 -22 197 -51 101 -216 121 -273 34 l-16
-25 -20 26 c-40 50 -123 70 -189 44z"/>
<path d="M2103 809 c-86 -42 -127 -117 -121 -220 6 -114 80 -195 190 -206 70
-7 119 9 171 56 126 113 92 310 -66 379 -44 19 -126 15 -174 -9z m192 -63 c48
-37 69 -80 68 -143 -2 -189 -252 -233 -319 -57 -32 83 5 174 87 217 48 25 118
18 164 -17z"/>
<path d="M4110 605 l0 -215 25 0 25 0 0 215 0 215 -25 0 -25 0 0 -215z"/>
<path d="M384 234 c-18 -14 -18 -15 4 -4 12 6 22 13 22 15 0 8 -5 6 -26 -11z"/>
<path d="M634 114 c-18 -14 -18 -15 4 -4 12 6 22 13 22 15 0 8 -5 6 -26 -11z"/>
<path d="M495 80 c-4 -6 -10 -8 -14 -6 -4 3 -5 -8 -3 -25 5 -36 34 -54 62 -39
20 11 24 22 20 50 -4 27 -52 42 -65 20z"/>
</g>
</svg>
