<?xml version="1.0" standalone="no"?>
<!DOCTYPE svg PUBLIC "-//W3C//DTD SVG 20010904//EN"
 "http://www.w3.org/TR/2001/REC-SVG-20010904/DTD/svg10.dtd">
<svg version="1.0" xmlns="http://www.w3.org/2000/svg"
 width="200.000000pt" height="200.000000pt" viewBox="0 0 200.000000 200.000000"
 preserveAspectRatio="xMidYMid meet">

<g transform="translate(0.000000,200.000000) scale(0.100000,-0.100000)"
fill="#000000" stroke="none">
<path d="M908 1690 c-248 -32 -480 -220 -563 -457 -54 -156 -54 -310 -1 -463
104 -298 419 -498 726 -462 170 21 314 92 433 215 259 269 256 694 -6 960
-114 114 -228 175 -383 202 -92 16 -116 17 -206 5z m-111 -407 c26 -35 56
-132 84 -278 32 -162 45 -203 59 -189 5 5 20 72 35 149 14 77 33 161 40 188 8
26 15 51 16 55 5 25 42 83 58 92 28 15 73 12 98 -5 28 -20 63 -130 103 -319
17 -82 33 -153 36 -158 12 -19 24 9 39 92 21 116 28 130 64 130 49 0 57 -20
42 -108 -30 -178 -66 -242 -137 -242 -69 0 -94 49 -144 284 -21 100 -42 189
-45 199 -12 30 -23 19 -35 -35 -6 -29 -21 -105 -34 -168 -46 -222 -74 -280
-137 -280 -78 0 -99 42 -154 305 -20 99 -41 184 -46 189 -11 12 -23 -21 -44
-124 -20 -98 -27 -110 -66 -110 -47 0 -52 25 -30 136 23 110 60 196 93 212 30
15 90 7 105 -15z m-167 -485 c42 -45 12 -121 -48 -121 -43 0 -72 28 -72 70 0
65 76 98 120 51z"/>
</g>
</svg>
