<svg version="1.1" id="Layer_1" xmlns="http://www.w3.org/2000/svg" xmlns:xlink="http://www.w3.org/1999/xlink" x="0px" y="0px"
	 width="100%" viewBox="0 0 1280 517" enable-background="new 0 0 1280 517" xml:space="preserve">
<path fill="#000000" opacity="1.000000" stroke="none" 
	d="
M887.000000,518.000000 
	C591.333374,518.000000 296.166687,518.000000 1.000040,518.000000 
	C1.000026,345.666687 1.000026,173.333389 1.000013,1.000063 
	C427.666626,1.000042 854.333252,1.000042 1281.000000,1.000021 
	C1281.000000,173.333267 1281.000000,345.666534 1281.000000,517.999878 
	C1149.833374,518.000000 1018.666687,518.000000 887.000000,518.000000 
M381.000000,340.499969 
	C381.001160,346.495148 381.157196,352.495819 380.944824,358.483429 
	C380.819275,362.021515 382.191437,363.137604 385.610504,363.052979 
	C392.933411,362.871765 400.278900,362.714722 407.586121,363.099182 
	C412.512207,363.358307 414.218567,362.022125 414.126770,356.786682 
	C413.802734,338.307312 414.000793,319.818787 414.000854,301.333740 
	C414.000885,299.586639 414.000885,297.839508 414.000885,295.993103 
	C414.962738,296.136475 415.381653,296.068298 415.564789,296.244812 
	C428.480133,308.691376 444.031464,313.340210 461.673889,312.012299 
	C475.644653,310.960693 487.643585,305.149719 496.442261,294.691498 
	C512.950073,275.070007 516.309631,252.089645 509.676117,227.795334 
	C501.287170,197.071991 473.251312,179.506546 441.942108,187.020782 
	C430.298828,189.815186 420.692017,196.077347 412.070831,205.553116 
	C411.664185,201.026764 411.051636,197.315704 411.079742,193.609512 
	C411.105591,190.197128 410.026428,188.826553 406.486572,188.944321 
	C400.165405,189.154633 393.832153,188.994385 387.503937,189.002380 
	C381.014709,189.010590 381.002472,189.017578 381.001984,195.616394 
	C380.998322,243.577591 381.000000,291.538788 381.000000,340.499969 
M921.000000,176.500000 
	C921.000000,185.225983 921.000000,193.951965 921.000000,203.525803 
	C907.156982,189.743286 891.496582,184.162399 872.953796,185.900726 
	C853.317505,187.741562 839.373840,198.001831 830.293335,214.697571 
	C822.832520,228.415207 820.736084,243.371414 822.789246,259.108093 
	C824.645508,273.335571 829.994751,285.674103 839.637817,296.065796 
	C860.240295,318.267853 898.814148,317.202667 918.052002,296.473206 
	C919.324463,295.101990 920.782043,293.902588 922.472351,292.325867 
	C923.044067,296.981384 923.899780,300.755554 923.863708,304.521179 
	C923.824890,308.586456 925.787476,309.136536 929.130920,309.049286 
	C935.626221,308.879822 942.137756,308.795593 948.625488,309.074310 
	C952.709106,309.249756 954.153259,307.967987 954.084900,303.743011 
	C953.858582,289.747406 953.999939,275.745850 953.999939,261.746582 
	C954.000061,223.915222 953.898010,186.083282 954.119263,148.253220 
	C954.149597,143.083771 952.612976,141.616608 947.619019,141.897186 
	C940.475281,142.298538 933.286560,142.169449 926.128174,141.932251 
	C922.281860,141.804810 920.810120,142.957474 920.919312,147.003708 
	C921.175537,156.496277 921.000488,166.000504 921.000000,176.500000 
M1063.900024,300.477203 
	C1066.548950,297.549408 1069.197754,294.621582 1071.846680,291.693756 
	C1073.022461,296.306183 1072.989990,300.238831 1073.032837,304.170624 
	C1073.067139,307.313263 1074.351685,309.097748 1077.864746,309.034729 
	C1085.193359,308.903259 1092.527100,308.916351 1099.856201,309.033264 
	C1102.782593,309.079956 1104.040283,308.113861 1104.035034,305.019714 
	C1103.970825,267.698730 1103.972778,230.377579 1104.033813,193.056580 
	C1104.038696,190.041901 1102.939697,188.910828 1099.932373,188.964432 
	C1092.770386,189.092087 1085.600586,189.145386 1078.441772,188.945618 
	C1074.519531,188.836151 1072.967773,190.553329 1073.005005,194.252502 
	C1073.043335,198.067108 1073.013550,201.882431 1073.013550,206.773743 
	C1059.186890,191.000549 1043.075806,184.351746 1023.450134,185.922913 
	C1001.447205,187.684433 987.091248,199.835144 977.933838,218.977753 
	C970.926575,233.625641 970.242371,249.265823 973.354248,264.821228 
	C977.009644,283.093964 986.427063,298.298798 1003.560608,306.538544 
	C1024.185303,316.457184 1044.474854,314.247314 1063.900024,300.477203 
M533.045288,230.674240 
	C530.450317,241.308060 530.012939,252.067154 532.101501,262.776062 
	C536.111816,283.338928 546.083069,300.177917 566.250854,307.974121 
	C588.848022,316.709534 609.952148,313.237610 627.795166,295.719513 
	C628.880676,294.653778 630.066223,293.690033 631.500732,292.416443 
	C632.000732,297.196869 632.607361,301.131836 632.766846,305.084869 
	C632.906006,308.533142 634.737976,309.093384 637.648132,309.038147 
	C644.306702,308.911743 650.977661,308.797424 657.627136,309.073853 
	C661.704468,309.243317 663.162781,307.973206 663.084961,303.748016 
	C662.848938,290.930023 663.000122,278.104889 663.000122,265.282532 
	C663.000061,241.636124 662.917053,217.989136 663.078491,194.343826 
	C663.106445,190.244278 661.917297,188.729568 657.718750,188.922501 
	C651.237976,189.220337 644.723755,189.214005 638.242737,188.919525 
	C634.463623,188.747818 632.725525,190.020432 632.545105,193.785675 
	C632.366516,197.513702 631.953613,201.230484 631.643494,204.952194 
	C631.021484,205.458832 630.399475,205.965469 629.777527,206.472092 
	C628.664856,204.628113 627.878784,202.450577 626.388916,200.991882 
	C612.075562,186.978027 594.682922,182.678024 575.563049,186.807388 
	C552.352112,191.820312 539.552612,207.857880 533.045288,230.674240 
M265.449158,87.001068 
	C258.115814,87.001099 250.782471,86.994118 243.449158,87.003281 
	C237.013626,87.011322 237.002090,87.019318 237.001816,93.682213 
	C236.998917,163.348389 236.999939,233.014557 237.000092,302.680725 
	C237.000122,315.847290 237.105850,329.015228 236.934677,342.179535 
	C236.886581,345.877899 238.099747,347.146393 241.811905,347.065491 
	C251.140747,346.862244 260.482971,346.801910 269.807587,347.086243 
	C274.128143,347.217926 275.072754,345.541016 275.068359,341.559448 
	C274.976746,258.560150 274.967804,175.560684 275.087494,92.561447 
	C275.093842,88.157280 273.824280,86.343658 269.427124,86.980728 
	C268.447693,87.122612 267.430176,87.001228 265.449158,87.001068 
M58.000008,319.500000 
	C58.000111,354.998535 58.092632,390.497620 57.893345,425.995026 
	C57.865784,430.904205 59.374065,432.299347 64.131386,432.097198 
	C72.449364,431.743805 80.793205,432.002594 89.126205,431.997589 
	C95.987801,431.993439 95.998161,431.988770 95.998383,425.242889 
	C96.000885,348.245941 96.000023,271.249023 95.999916,194.252090 
	C95.999908,188.418991 95.816139,182.578140 96.063248,176.755554 
	C96.223900,172.969940 94.755569,171.856445 91.121651,171.937439 
	C82.293076,172.134262 73.457115,171.994919 64.624146,172.001907 
	C58.017281,172.007126 58.003036,172.014709 58.002434,178.505569 
	C57.998119,225.170380 58.000053,271.835205 58.000008,319.500000 
M688.000000,211.500061 
	C688.000061,241.997498 688.106140,272.495667 687.892456,302.991608 
	C687.858093,307.895111 689.358826,309.347290 694.126038,309.094940 
	C701.105896,308.725494 708.130981,308.761017 715.115295,309.085480 
	C719.617126,309.294617 721.164062,307.966461 721.104553,303.253937 
	C720.856140,283.592072 721.536255,263.905365 720.808472,244.267303 
	C720.335876,231.514099 729.572815,218.881027 741.521729,214.303375 
	C756.744873,208.471375 768.832458,213.780258 772.504272,228.187866 
	C773.437256,231.848541 773.912109,235.722397 773.935730,239.502426 
	C774.069153,260.833130 774.122070,282.166351 773.903381,303.495636 
	C773.857300,307.988678 775.303101,309.274017 779.629822,309.084747 
	C786.782227,308.771851 793.969116,308.761322 801.120361,309.086517 
	C805.633423,309.291718 807.155090,307.945648 807.103088,303.245850 
	C806.867004,281.916901 807.177002,260.581635 806.905151,239.253571 
	C806.808411,231.665359 806.405151,223.914444 804.745911,216.552414 
	C802.349854,205.920807 796.922729,196.714676 787.051514,191.104813 
	C780.765686,187.532547 773.871521,186.227463 766.555298,185.698257 
	C756.073303,184.940048 746.275146,186.710800 737.571106,192.166306 
	C730.855164,196.375641 725.022583,201.994461 719.177368,206.681763 
	C718.832947,202.638229 718.246582,197.699692 718.054443,192.745865 
	C717.945129,189.928772 716.843933,188.942947 714.125488,188.976852 
	C706.793884,189.068329 699.457520,189.128601 692.129028,188.953156 
	C688.684143,188.870682 687.884888,190.452469 687.962158,193.502640 
	C688.105591,199.165161 688.001221,204.833969 688.000000,211.500061 
M1129.220703,284.771423 
	C1128.326172,288.483734 1127.152588,292.160614 1126.674072,295.925812 
	C1126.482300,297.435211 1127.416626,299.557831 1128.556885,300.653931 
	C1130.183105,302.216980 1132.370972,303.327026 1134.490967,304.224243 
	C1151.452393,311.402924 1168.970337,315.175171 1187.422852,311.943665 
	C1199.150146,309.889862 1210.114990,305.775085 1216.917358,295.352295 
	C1224.802246,283.271057 1227.549561,270.158173 1220.247559,256.721619 
	C1213.835938,244.923309 1202.334473,239.951996 1190.301514,236.049225 
	C1182.112793,233.393250 1173.750977,231.214432 1165.714722,228.167831 
	C1161.561279,226.593262 1158.560669,223.099228 1159.091431,218.045578 
	C1159.596802,213.233170 1163.124146,210.429123 1167.240234,209.634018 
	C1172.688599,208.581543 1178.590332,207.711655 1183.927490,208.719940 
	C1193.562866,210.540222 1202.923950,213.811386 1212.979858,216.639847 
	C1214.408936,211.075485 1216.205444,204.563690 1217.627319,197.971069 
	C1217.819214,197.081741 1216.369263,195.287781 1215.270264,194.752167 
	C1195.105957,184.923752 1174.202026,181.357391 1152.648315,189.361801 
	C1128.014771,198.509995 1123.970459,226.233521 1136.313721,243.273758 
	C1143.056641,252.582260 1153.311646,256.796631 1163.970825,259.993378 
	C1171.592163,262.279053 1179.282227,264.358032 1186.820068,266.890808 
	C1191.112793,268.333191 1194.475098,271.432739 1194.821533,276.153961 
	C1195.164307,280.823822 1192.695923,285.097656 1188.422607,286.502014 
	C1182.710327,288.379272 1176.467041,289.964630 1170.559570,289.649902 
	C1157.999512,288.980774 1146.188110,284.920410 1135.400635,278.270905 
	C1132.383301,276.410889 1130.786377,277.308441 1130.121338,280.569763 
	C1129.889526,281.706879 1129.706299,282.853912 1129.220703,284.771423 
M192.504242,250.997009 
	C198.836838,250.995819 205.171600,250.896530 211.501099,251.035889 
	C214.552231,251.103073 216.060944,250.309769 216.046234,246.871017 
	C215.944931,223.207550 215.969971,199.543411 216.021774,175.879623 
	C216.027725,173.162018 215.077530,171.955750 212.250015,171.977722 
	C201.751907,172.059311 191.252396,172.059113 180.754272,171.977692 
	C177.930298,171.955795 176.972931,173.154892 176.978928,175.875931 
	C177.031021,199.539719 177.037704,223.203751 176.970261,246.867447 
	C176.961868,249.810486 177.928009,251.164871 181.009323,251.026245 
	C184.501724,250.869110 188.006821,250.994461 192.504242,250.997009 
M156.999878,163.499939 
	C156.999329,146.334503 156.966476,129.168945 157.028839,112.003738 
	C157.039703,109.013268 156.828766,106.869995 152.869293,106.942451 
	C142.540161,107.131462 132.204941,107.054199 121.872963,106.975739 
	C119.150322,106.955063 117.971001,107.926567 117.977570,110.750786 
	C118.033012,134.582245 118.032784,158.413971 117.978081,182.245422 
	C117.971596,185.067474 119.150963,186.043610 121.874191,186.023087 
	C132.206177,185.945160 142.540527,185.896255 152.870895,186.047638 
	C156.313171,186.098083 157.114838,184.548096 157.037567,181.497574 
	C156.894104,175.834976 156.998611,170.166107 156.999878,163.499939 
M156.999969,325.499878 
	C156.999405,308.001221 156.967300,290.502472 157.028671,273.004028 
	C157.039139,270.016907 156.837036,267.869324 152.873108,267.942291 
	C142.544083,268.132507 132.208893,268.054016 121.876953,267.976288 
	C119.156487,267.955780 117.971519,268.926025 117.978027,271.750916 
	C118.032875,295.582245 118.032822,319.413849 117.977852,343.245178 
	C117.971344,346.067078 119.148743,347.043243 121.872856,347.022583 
	C132.204788,346.944183 142.539062,346.895599 152.869385,347.046814 
	C156.310425,347.097137 157.120728,345.549194 157.037079,342.497437 
	C156.891037,337.168549 156.998657,331.832733 156.999969,325.499878 
M216.000000,361.500000 
	C215.999481,353.334137 215.873978,345.165497 216.057022,337.003754 
	C216.135498,333.505005 215.311691,331.839325 211.369293,331.928467 
	C201.375397,332.154480 191.371887,332.087952 181.374634,331.956787 
	C178.192200,331.915039 176.943298,332.958191 176.956482,336.257599 
	C177.050247,359.754852 177.050537,383.252899 176.956100,406.750153 
	C176.942825,410.056458 178.203781,411.087952 181.379898,411.044586 
	C191.043777,410.912689 200.716400,410.804169 210.373718,411.089203 
	C214.697906,411.216827 216.182220,409.989624 216.098419,405.493896 
	C215.831360,391.166962 215.999786,376.831909 216.000000,361.500000 
M145.480698,208.000198 
	C136.403183,208.000198 127.325661,208.000198 118.307953,208.000198 
	C118.307953,220.993423 118.307953,233.369949 118.307953,245.692261 
	C131.327148,245.692261 144.036453,245.692261 156.690735,245.692261 
	C156.690735,233.005585 156.690735,220.629196 156.690735,208.000198 
	C153.080780,208.000198 149.777237,208.000198 145.480698,208.000198 
M177.001007,302.426025 
	C177.001007,304.855835 177.001007,307.285614 177.001007,309.624756 
	C190.375168,309.624756 203.093369,309.624756 215.770264,309.624756 
	C215.770264,296.979675 215.770264,284.711304 215.770264,272.284149 
	C202.819412,272.284149 190.100449,272.284149 177.001007,272.284149 
	C177.001007,282.190582 177.001007,291.818237 177.001007,302.426025 
z"/>
<path fill="#130754" opacity="1.000000" stroke="none" 
	d="
M381.000000,340.000000 
	C381.000000,291.538788 380.998322,243.577591 381.001984,195.616394 
	C381.002472,189.017578 381.014709,189.010590 387.503937,189.002380 
	C393.832153,188.994385 400.165405,189.154633 406.486572,188.944321 
	C410.026428,188.826553 411.105591,190.197128 411.079742,193.609512 
	C411.051636,197.315704 411.664185,201.026764 412.070831,205.553116 
	C420.692017,196.077347 430.298828,189.815186 441.942108,187.020782 
	C473.251312,179.506546 501.287170,197.071991 509.676117,227.795334 
	C516.309631,252.089645 512.950073,275.070007 496.442261,294.691498 
	C487.643585,305.149719 475.644653,310.960693 461.673889,312.012299 
	C444.031464,313.340210 428.480133,308.691376 415.564789,296.244812 
	C415.381653,296.068298 414.962738,296.136475 414.000885,295.993103 
	C414.000885,297.839508 414.000885,299.586639 414.000854,301.333740 
	C414.000793,319.818787 413.802734,338.307312 414.126770,356.786682 
	C414.218567,362.022125 412.512207,363.358307 407.586121,363.099182 
	C400.278900,362.714722 392.933411,362.871765 385.610504,363.052979 
	C382.191437,363.137604 380.819275,362.021515 380.944824,358.483429 
	C381.157196,352.495819 381.001160,346.495148 381.000000,340.000000 
M413.730225,238.435974 
	C411.583466,254.014282 412.623566,268.628998 425.473328,280.044495 
	C438.699524,291.794373 458.731293,289.884369 470.009399,276.838074 
	C478.746124,266.731598 480.056244,254.536057 479.002228,241.769592 
	C477.543732,224.104202 462.479340,209.476898 445.414032,210.096405 
	C430.859924,210.624741 417.922516,219.590073 413.730225,238.435974 
z"/>
<path fill="#130754" opacity="1.000000" stroke="none" 
	d="
M921.000000,176.000000 
	C921.000488,166.000504 921.175537,156.496277 920.919312,147.003708 
	C920.810120,142.957474 922.281860,141.804810 926.128174,141.932251 
	C933.286560,142.169449 940.475281,142.298538 947.619019,141.897186 
	C952.612976,141.616608 954.149597,143.083771 954.119263,148.253220 
	C953.898010,186.083282 954.000061,223.915222 953.999939,261.746582 
	C953.999939,275.745850 953.858582,289.747406 954.084900,303.743011 
	C954.153259,307.967987 952.709106,309.249756 948.625488,309.074310 
	C942.137756,308.795593 935.626221,308.879822 929.130920,309.049286 
	C925.787476,309.136536 923.824890,308.586456 923.863708,304.521179 
	C923.899780,300.755554 923.044067,296.981384 922.472351,292.325867 
	C920.782043,293.902588 919.324463,295.101990 918.052002,296.473206 
	C898.814148,317.202667 860.240295,318.267853 839.637817,296.065796 
	C829.994751,285.674103 824.645508,273.335571 822.789246,259.108093 
	C820.736084,243.371414 822.832520,228.415207 830.293335,214.697571 
	C839.373840,198.001831 853.317505,187.741562 872.953796,185.900726 
	C891.496582,184.162399 907.156982,189.743286 921.000000,203.525803 
	C921.000000,193.951965 921.000000,185.225983 921.000000,176.000000 
M914.479919,223.119324 
	C912.855103,221.449417 911.288086,219.718369 909.596252,218.119354 
	C896.805359,206.030228 874.279846,208.284164 863.780396,222.496994 
	C853.549194,236.346725 852.739014,251.481293 858.611694,266.831787 
	C867.264771,289.450073 894.998474,294.723511 911.995300,277.498291 
	C924.388489,264.938568 925.706238,240.412903 914.479919,223.119324 
z"/>
<path fill="#130754" opacity="1.000000" stroke="none" 
	d="
M1063.599365,300.672455 
	C1044.474854,314.247314 1024.185303,316.457184 1003.560608,306.538544 
	C986.427063,298.298798 977.009644,283.093964 973.354248,264.821228 
	C970.242371,249.265823 970.926575,233.625641 977.933838,218.977753 
	C987.091248,199.835144 1001.447205,187.684433 1023.450134,185.922913 
	C1043.075806,184.351746 1059.186890,191.000549 1073.013550,206.773743 
	C1073.013550,201.882431 1073.043335,198.067108 1073.005005,194.252502 
	C1072.967773,190.553329 1074.519531,188.836151 1078.441772,188.945618 
	C1085.600586,189.145386 1092.770386,189.092087 1099.932373,188.964432 
	C1102.939697,188.910828 1104.038696,190.041901 1104.033813,193.056580 
	C1103.972778,230.377579 1103.970825,267.698730 1104.035034,305.019714 
	C1104.040283,308.113861 1102.782593,309.079956 1099.856201,309.033264 
	C1092.527100,308.916351 1085.193359,308.903259 1077.864746,309.034729 
	C1074.351685,309.097748 1073.067139,307.313263 1073.032837,304.170624 
	C1072.989990,300.238831 1073.022461,296.306183 1071.846680,291.693756 
	C1069.197754,294.621582 1066.548950,297.549408 1063.599365,300.672455 
M1045.198486,286.942352 
	C1052.875854,284.746490 1059.849854,281.413177 1064.313477,274.392700 
	C1074.058594,259.065643 1074.543213,243.195175 1066.489746,227.098373 
	C1060.478394,215.083145 1049.791504,209.834183 1037.082886,210.240646 
	C1023.532227,210.674057 1013.545410,218.095749 1008.341675,230.709595 
	C1003.397400,242.694290 1003.674011,255.042572 1008.211853,267.188232 
	C1013.501770,281.346680 1029.772827,290.200104 1045.198486,286.942352 
z"/>
<path fill="#130754" opacity="1.000000" stroke="none" 
	d="
M533.122253,230.266510 
	C539.552612,207.857880 552.352112,191.820312 575.563049,186.807388 
	C594.682922,182.678024 612.075562,186.978027 626.388916,200.991882 
	C627.878784,202.450577 628.664856,204.628113 629.777527,206.472092 
	C630.399475,205.965469 631.021484,205.458832 631.643494,204.952194 
	C631.953613,201.230484 632.366516,197.513702 632.545105,193.785675 
	C632.725525,190.020432 634.463623,188.747818 638.242737,188.919525 
	C644.723755,189.214005 651.237976,189.220337 657.718750,188.922501 
	C661.917297,188.729568 663.106445,190.244278 663.078491,194.343826 
	C662.917053,217.989136 663.000061,241.636124 663.000122,265.282532 
	C663.000122,278.104889 662.848938,290.930023 663.084961,303.748016 
	C663.162781,307.973206 661.704468,309.243317 657.627136,309.073853 
	C650.977661,308.797424 644.306702,308.911743 637.648132,309.038147 
	C634.737976,309.093384 632.906006,308.533142 632.766846,305.084869 
	C632.607361,301.131836 632.000732,297.196869 631.500732,292.416443 
	C630.066223,293.690033 628.880676,294.653778 627.795166,295.719513 
	C609.952148,313.237610 588.848022,316.709534 566.250854,307.974121 
	C546.083069,300.177917 536.111816,283.338928 532.101501,262.776062 
	C530.012939,252.067154 530.450317,241.308060 533.122253,230.266510 
M580.580444,214.941727 
	C579.132324,216.050156 577.568481,217.036804 576.253967,218.285797 
	C562.351929,231.494827 559.832336,256.240723 570.634766,273.017273 
	C581.637268,290.104553 605.911072,292.706238 620.245911,278.212250 
	C629.032776,269.327881 631.365662,258.197083 631.026001,246.129364 
	C630.267517,219.186905 605.684692,201.414215 580.580444,214.941727 
z"/>
<path fill="#130754" opacity="1.000000" stroke="none" 
	d="
M265.939667,87.001068 
	C267.430176,87.001228 268.447693,87.122612 269.427124,86.980728 
	C273.824280,86.343658 275.093842,88.157280 275.087494,92.561447 
	C274.967804,175.560684 274.976746,258.560150 275.068359,341.559448 
	C275.072754,345.541016 274.128143,347.217926 269.807587,347.086243 
	C260.482971,346.801910 251.140747,346.862244 241.811905,347.065491 
	C238.099747,347.146393 236.886581,345.877899 236.934677,342.179535 
	C237.105850,329.015228 237.000122,315.847290 237.000092,302.680725 
	C236.999939,233.014557 236.998917,163.348389 237.001816,93.682213 
	C237.002090,87.019318 237.013626,87.011322 243.449158,87.003281 
	C250.782471,86.994118 258.115814,87.001099 265.939667,87.001068 
z"/>
<path fill="#130754" opacity="1.000000" stroke="none" 
	d="
M58.000008,319.000000 
	C58.000053,271.835205 57.998119,225.170380 58.002434,178.505569 
	C58.003036,172.014709 58.017281,172.007126 64.624146,172.001907 
	C73.457115,171.994919 82.293076,172.134262 91.121651,171.937439 
	C94.755569,171.856445 96.223900,172.969940 96.063248,176.755554 
	C95.816139,182.578140 95.999908,188.418991 95.999916,194.252090 
	C96.000023,271.249023 96.000885,348.245941 95.998383,425.242889 
	C95.998161,431.988770 95.987801,431.993439 89.126205,431.997589 
	C80.793205,432.002594 72.449364,431.743805 64.131386,432.097198 
	C59.374065,432.299347 57.865784,430.904205 57.893345,425.995026 
	C58.092632,390.497620 58.000111,354.998535 58.000008,319.000000 
z"/>
<path fill="#130754" opacity="1.000000" stroke="none" 
	d="
M688.000000,211.000107 
	C688.001221,204.833969 688.105591,199.165161 687.962158,193.502640 
	C687.884888,190.452469 688.684143,188.870682 692.129028,188.953156 
	C699.457520,189.128601 706.793884,189.068329 714.125488,188.976852 
	C716.843933,188.942947 717.945129,189.928772 718.054443,192.745865 
	C718.246582,197.699692 718.832947,202.638229 719.177368,206.681763 
	C725.022583,201.994461 730.855164,196.375641 737.571106,192.166306 
	C746.275146,186.710800 756.073303,184.940048 766.555298,185.698257 
	C773.871521,186.227463 780.765686,187.532547 787.051514,191.104813 
	C796.922729,196.714676 802.349854,205.920807 804.745911,216.552414 
	C806.405151,223.914444 806.808411,231.665359 806.905151,239.253571 
	C807.177002,260.581635 806.867004,281.916901 807.103088,303.245850 
	C807.155090,307.945648 805.633423,309.291718 801.120361,309.086517 
	C793.969116,308.761322 786.782227,308.771851 779.629822,309.084747 
	C775.303101,309.274017 773.857300,307.988678 773.903381,303.495636 
	C774.122070,282.166351 774.069153,260.833130 773.935730,239.502426 
	C773.912109,235.722397 773.437256,231.848541 772.504272,228.187866 
	C768.832458,213.780258 756.744873,208.471375 741.521729,214.303375 
	C729.572815,218.881027 720.335876,231.514099 720.808472,244.267303 
	C721.536255,263.905365 720.856140,283.592072 721.104553,303.253937 
	C721.164062,307.966461 719.617126,309.294617 715.115295,309.085480 
	C708.130981,308.761017 701.105896,308.725494 694.126038,309.094940 
	C689.358826,309.347290 687.858093,307.895111 687.892456,302.991608 
	C688.106140,272.495667 688.000061,241.997498 688.000000,211.000107 
z"/>
<path fill="#130754" opacity="1.000000" stroke="none" 
	d="
M1129.360840,284.383911 
	C1129.706299,282.853912 1129.889526,281.706879 1130.121338,280.569763 
	C1130.786377,277.308441 1132.383301,276.410889 1135.400635,278.270905 
	C1146.188110,284.920410 1157.999512,288.980774 1170.559570,289.649902 
	C1176.467041,289.964630 1182.710327,288.379272 1188.422607,286.502014 
	C1192.695923,285.097656 1195.164307,280.823822 1194.821533,276.153961 
	C1194.475098,271.432739 1191.112793,268.333191 1186.820068,266.890808 
	C1179.282227,264.358032 1171.592163,262.279053 1163.970825,259.993378 
	C1153.311646,256.796631 1143.056641,252.582260 1136.313721,243.273758 
	C1123.970459,226.233521 1128.014771,198.509995 1152.648315,189.361801 
	C1174.202026,181.357391 1195.105957,184.923752 1215.270264,194.752167 
	C1216.369263,195.287781 1217.819214,197.081741 1217.627319,197.971069 
	C1216.205444,204.563690 1214.408936,211.075485 1212.979858,216.639847 
	C1202.923950,213.811386 1193.562866,210.540222 1183.927490,208.719940 
	C1178.590332,207.711655 1172.688599,208.581543 1167.240234,209.634018 
	C1163.124146,210.429123 1159.596802,213.233170 1159.091431,218.045578 
	C1158.560669,223.099228 1161.561279,226.593262 1165.714722,228.167831 
	C1173.750977,231.214432 1182.112793,233.393250 1190.301514,236.049225 
	C1202.334473,239.951996 1213.835938,244.923309 1220.247559,256.721619 
	C1227.549561,270.158173 1224.802246,283.271057 1216.917358,295.352295 
	C1210.114990,305.775085 1199.150146,309.889862 1187.422852,311.943665 
	C1168.970337,315.175171 1151.452393,311.402924 1134.490967,304.224243 
	C1132.370972,303.327026 1130.183105,302.216980 1128.556885,300.653931 
	C1127.416626,299.557831 1126.482300,297.435211 1126.674072,295.925812 
	C1127.152588,292.160614 1128.326172,288.483734 1129.360840,284.383911 
z"/>
<path fill="#130754" opacity="1.000000" stroke="none" 
	d="
M192.005325,250.997009 
	C188.006821,250.994461 184.501724,250.869110 181.009323,251.026245 
	C177.928009,251.164871 176.961868,249.810486 176.970261,246.867447 
	C177.037704,223.203751 177.031021,199.539719 176.978928,175.875931 
	C176.972931,173.154892 177.930298,171.955795 180.754272,171.977692 
	C191.252396,172.059113 201.751907,172.059311 212.250015,171.977722 
	C215.077530,171.955750 216.027725,173.162018 216.021774,175.879623 
	C215.969971,199.543411 215.944931,223.207550 216.046234,246.871017 
	C216.060944,250.309769 214.552231,251.103073 211.501099,251.035889 
	C205.171600,250.896530 198.836838,250.995819 192.005325,250.997009 
z"/>
<path fill="#130754" opacity="1.000000" stroke="none" 
	d="
M156.999878,163.999893 
	C156.998611,170.166107 156.894104,175.834976 157.037567,181.497574 
	C157.114838,184.548096 156.313171,186.098083 152.870895,186.047638 
	C142.540527,185.896255 132.206177,185.945160 121.874191,186.023087 
	C119.150963,186.043610 117.971596,185.067474 117.978081,182.245422 
	C118.032784,158.413971 118.033012,134.582245 117.977570,110.750786 
	C117.971001,107.926567 119.150322,106.955063 121.872963,106.975739 
	C132.204941,107.054199 142.540161,107.131462 152.869293,106.942451 
	C156.828766,106.869995 157.039703,109.013268 157.028839,112.003738 
	C156.966476,129.168945 156.999329,146.334503 156.999878,163.999893 
z"/>
<path fill="#130754" opacity="1.000000" stroke="none" 
	d="
M156.999969,325.999847 
	C156.998657,331.832733 156.891037,337.168549 157.037079,342.497437 
	C157.120728,345.549194 156.310425,347.097137 152.869385,347.046814 
	C142.539062,346.895599 132.204788,346.944183 121.872856,347.022583 
	C119.148743,347.043243 117.971344,346.067078 117.977852,343.245178 
	C118.032822,319.413849 118.032875,295.582245 117.978027,271.750916 
	C117.971519,268.926025 119.156487,267.955780 121.876953,267.976288 
	C132.208893,268.054016 142.544083,268.132507 152.873108,267.942291 
	C156.837036,267.869324 157.039139,270.016907 157.028671,273.004028 
	C156.967300,290.502472 156.999405,308.001221 156.999969,325.999847 
z"/>
<path fill="#130754" opacity="1.000000" stroke="none" 
	d="
M216.000000,362.000000 
	C215.999786,376.831909 215.831360,391.166962 216.098419,405.493896 
	C216.182220,409.989624 214.697906,411.216827 210.373718,411.089203 
	C200.716400,410.804169 191.043777,410.912689 181.379898,411.044586 
	C178.203781,411.087952 176.942825,410.056458 176.956100,406.750153 
	C177.050537,383.252899 177.050247,359.754852 176.956482,336.257599 
	C176.943298,332.958191 178.192200,331.915039 181.374634,331.956787 
	C191.371887,332.087952 201.375397,332.154480 211.369293,331.928467 
	C215.311691,331.839325 216.135498,333.505005 216.057022,337.003754 
	C215.873978,345.165497 215.999481,353.334137 216.000000,362.000000 
z"/>
<path fill="#FFCA00" opacity="1.000000" stroke="none" 
	d="
M145.977203,208.000198 
	C149.777237,208.000198 153.080780,208.000198 156.690735,208.000198 
	C156.690735,220.629196 156.690735,233.005585 156.690735,245.692261 
	C144.036453,245.692261 131.327148,245.692261 118.307953,245.692261 
	C118.307953,233.369949 118.307953,220.993423 118.307953,208.000198 
	C127.325661,208.000198 136.403183,208.000198 145.977203,208.000198 
z"/>
<path fill="#E70488" opacity="1.000000" stroke="none" 
	d="
M177.001007,301.935974 
	C177.001007,291.818237 177.001007,282.190582 177.001007,272.284149 
	C190.100449,272.284149 202.819412,272.284149 215.770264,272.284149 
	C215.770264,284.711304 215.770264,296.979675 215.770264,309.624756 
	C203.093369,309.624756 190.375168,309.624756 177.001007,309.624756 
	C177.001007,307.285614 177.001007,304.855835 177.001007,301.935974 
z"/>
<path fill="#000000" opacity="1.000000" stroke="none" 
	d="
M413.819824,238.018280 
	C417.922516,219.590073 430.859924,210.624741 445.414032,210.096405 
	C462.479340,209.476898 477.543732,224.104202 479.002228,241.769592 
	C480.056244,254.536057 478.746124,266.731598 470.009399,276.838074 
	C458.731293,289.884369 438.699524,291.794373 425.473328,280.044495 
	C412.623566,268.628998 411.583466,254.014282 413.819824,238.018280 
z"/>
<path fill="#000000" opacity="1.000000" stroke="none" 
	d="
M914.682495,223.418335 
	C925.706238,240.412903 924.388489,264.938568 911.995300,277.498291 
	C894.998474,294.723511 867.264771,289.450073 858.611694,266.831787 
	C852.739014,251.481293 853.549194,236.346725 863.780396,222.496994 
	C874.279846,208.284164 896.805359,206.030228 909.596252,218.119354 
	C911.288086,219.718369 912.855103,221.449417 914.682495,223.418335 
z"/>
<path fill="#000000" opacity="1.000000" stroke="none" 
	d="
M1044.781860,286.977844 
	C1029.772827,290.200104 1013.501770,281.346680 1008.211853,267.188232 
	C1003.674011,255.042572 1003.397400,242.694290 1008.341675,230.709595 
	C1013.545410,218.095749 1023.532227,210.674057 1037.082886,210.240646 
	C1049.791504,209.834183 1060.478394,215.083145 1066.489746,227.098373 
	C1074.543213,243.195175 1074.058594,259.065643 1064.313477,274.392700 
	C1059.849854,281.413177 1052.875854,284.746490 1044.781860,286.977844 
z"/>
<path fill="#000000" opacity="1.000000" stroke="none" 
	d="
M580.872803,214.716797 
	C605.684692,201.414215 630.267517,219.186905 631.026001,246.129364 
	C631.365662,258.197083 629.032776,269.327881 620.245911,278.212250 
	C605.911072,292.706238 581.637268,290.104553 570.634766,273.017273 
	C559.832336,256.240723 562.351929,231.494827 576.253967,218.285797 
	C577.568481,217.036804 579.132324,216.050156 580.872803,214.716797 
z"/>
</svg>