<?xml version="1.0" standalone="no"?>
<!DOCTYPE svg PUBLIC "-//W3C//DTD SVG 20010904//EN"
 "http://www.w3.org/TR/2001/REC-SVG-20010904/DTD/svg10.dtd">
<svg version="1.0" xmlns="http://www.w3.org/2000/svg"
 width="2066.000000pt" height="2048.000000pt" viewBox="0 0 2066.000000 2048.000000"
 preserveAspectRatio="xMidYMid meet">

<g transform="translate(0.000000,2048.000000) scale(0.100000,-0.100000)"
fill="#000000" stroke="none">
<path d="M9815 20350 c-2819 -106 -5427 -1346 -7290 -3467 -630 -718 -1182
-1564 -1580 -2422 -905 -1956 -1166 -4151 -745 -6273 377 -1900 1291 -3649
2640 -5052 1423 -1481 3220 -2482 5220 -2910 1107 -236 2311 -284 3450 -135
1701 221 3341 884 4716 1904 1915 1422 3271 3451 3834 5740 318 1291 381 2642
184 3958 -422 2833 -2032 5364 -4428 6960 -1509 1006 -3249 1586 -5056 1686
-267 15 -700 20 -945 11z m405 -1262 c-152 -285 -187 -595 -109 -968 50 -245
119 -444 381 -1105 244 -615 337 -864 454 -1209 175 -519 214 -740 304 -1741
22 -247 50 -526 60 -620 19 -158 78 -536 85 -543 2 -2 6 43 9 100 51 880 94
1312 186 1873 216 1319 580 2208 1094 2673 38 34 70 61 72 59 2 -1 -13 -41
-31 -88 -142 -352 -176 -832 -94 -1324 45 -273 140 -601 260 -898 91 -224 188
-420 354 -712 174 -308 399 -760 484 -972 247 -617 361 -1251 361 -2020 0
-256 -11 -414 -45 -636 -100 -652 -387 -1311 -794 -1825 -97 -123 -96 -121
-74 -116 10 2 110 22 223 44 232 46 446 91 730 155 107 24 359 76 560 115 374
73 1010 197 1500 293 151 30 276 50 278 46 5 -12 -102 -323 -161 -469 -284
-700 -708 -1364 -1248 -1956 l-123 -134 -4757 0 -4756 0 -40 43 c-63 68 -315
386 -453 572 -395 529 -659 976 -853 1445 -73 176 -188 492 -182 499 11 10
509 -95 1610 -340 776 -173 1462 -314 1473 -304 2 2 -27 41 -65 87 -278 341
-535 804 -681 1228 -299 871 -281 1699 63 2834 76 251 155 481 340 986 250
683 332 933 405 1235 74 304 100 500 100 755 0 240 -35 462 -99 631 -11 29
-19 55 -17 57 8 7 132 -29 182 -53 319 -155 625 -673 804 -1360 102 -391 171
-870 187 -1293 4 -118 10 -171 17 -169 18 6 130 190 205 337 240 469 429 1119
530 1825 49 343 65 542 81 990 10 289 28 425 85 643 51 191 115 364 205 547
226 460 516 762 820 852 41 12 87 22 102 22 l28 1 -50 -92z m4750 -13738 l0
-870 -4790 0 -4790 0 0 870 0 870 4790 0 4790 0 0 -870z m-1894 -1767 c-44
-785 -555 -1503 -1361 -1915 -945 -483 -2115 -485 -3055 -7 -786 400 -1286
1069 -1369 1831 -6 54 -11 122 -11 153 l0 55 2902 0 2901 0 -7 -117z"/>
</g>
</svg>
