<?xml version="1.0" standalone="no"?>
<!DOCTYPE svg PUBLIC "-//W3C//DTD SVG 20010904//EN"
 "http://www.w3.org/TR/2001/REC-SVG-20010904/DTD/svg10.dtd">
<svg version="1.0" xmlns="http://www.w3.org/2000/svg"
 width="479.000000pt" height="105.000000pt" viewBox="0 0 479.000000 105.000000"
 preserveAspectRatio="xMidYMid meet">

<g transform="translate(0.000000,105.000000) scale(0.100000,-0.100000)"
fill="#000000" stroke="none">
<path d="M627 1036 c-26 -10 -67 -45 -127 -108 -48 -51 -85 -96 -82 -99 4 -4
60 -19 125 -34 128 -29 168 -28 211 6 123 97 20 287 -127 235z m73 -76 c16 0
32 -41 26 -66 -9 -35 -46 -46 -106 -32 -28 6 -50 15 -50 18 0 17 92 91 106 86
9 -3 20 -6 24 -6z"/>
<path d="M3772 782 c-71 -26 -118 -66 -156 -132 -27 -48 -31 -65 -31 -125 1
-60 5 -79 31 -125 92 -163 305 -198 444 -73 65 58 90 112 90 194 0 80 -30 149
-88 201 -79 72 -192 95 -290 60z m186 -91 c64 -33 112 -104 112 -166 0 -96
-95 -185 -198 -185 -158 0 -253 155 -173 281 52 83 172 115 259 70z"/>
<path d="M1184 774 c-39 -19 -64 -62 -64 -112 0 -64 34 -89 223 -166 192 -79
230 -100 225 -124 -3 -15 -23 -17 -208 -20 -172 -2 -207 -5 -222 -19 -23 -21
-23 -36 1 -57 17 -15 42 -17 229 -14 240 3 254 8 282 86 13 37 12 45 -3 77
-21 45 -52 63 -212 127 -147 58 -221 93 -230 108 -4 6 -1 17 5 25 10 12 49 15
207 15 115 0 202 4 214 10 11 6 19 21 19 35 0 14 -8 29 -19 35 -12 6 -100 10
-218 10 -156 0 -204 -4 -229 -16z"/>
<path d="M1779 773 c-11 -13 -14 -66 -14 -248 0 -182 3 -235 14 -248 12 -15
41 -17 233 -17 132 0 227 4 239 10 11 6 19 21 19 35 0 14 -8 29 -19 35 -12 6
-98 10 -210 10 l-191 0 0 70 0 70 131 0 c139 0 169 8 169 43 0 42 -16 47 -162
47 l-138 0 0 60 0 60 183 0 c192 0 207 3 207 45 0 42 -13 45 -236 45 -185 0
-213 -2 -225 -17z"/>
<path d="M2392 778 c-17 -17 -17 -489 0 -506 17 -17 449 -17 466 0 18 18 14
56 -7 68 -12 6 -96 10 -205 10 l-186 0 0 208 c0 213 -3 232 -40 232 -9 0 -21
-5 -28 -12z"/>
<path d="M2988 780 c-16 -10 -18 -33 -18 -255 0 -239 0 -245 21 -256 15 -7 67
-10 158 -7 114 3 144 8 186 27 106 47 159 126 159 236 0 110 -53 189 -159 237
-43 19 -71 23 -190 25 -88 2 -146 0 -157 -7z m317 -99 c68 -31 105 -86 105
-156 0 -70 -37 -125 -105 -156 -31 -14 -64 -19 -142 -19 l-103 0 0 175 0 175
103 0 c78 0 111 -5 142 -19z"/>
<path d="M4266 774 c-23 -22 -24 -410 -2 -453 20 -38 62 -64 106 -64 75 0 98
32 201 286 58 143 76 172 102 162 15 -7 17 -26 17 -210 0 -172 2 -206 16 -219
20 -20 38 -20 58 0 24 23 23 400 0 450 -20 42 -59 64 -113 64 -54 0 -90 -38
-131 -137 -126 -308 -134 -321 -165 -309 -13 4 -15 36 -15 203 0 164 -3 202
-16 221 -18 26 -37 28 -58 6z"/>
<path d="M123 260 c-89 -54 -83 -199 10 -243 45 -22 84 -21 124 1 45 25 208
201 191 207 -36 12 -240 55 -265 55 -15 0 -42 -9 -60 -20z m140 -75 c20 -4 37
-9 37 -11 0 -2 -17 -22 -38 -45 -41 -44 -77 -54 -107 -29 -38 32 1 107 50 96
11 -3 37 -8 58 -11z"/>
</g>
</svg>
