<svg version="1.1" id="Layer_1" xmlns="http://www.w3.org/2000/svg" xmlns:xlink="http://www.w3.org/1999/xlink" x="0px" y="0px"
	 width="100%" viewBox="0 0 312 162" enable-background="new 0 0 312 162" xml:space="preserve">
<path fill="#FEFDFD" opacity="1.000000" stroke="none" 
	d="
M0.999999,130.000000 
	C1.000000,87.050209 1.000000,44.100414 1.000000,1.000000 
	C82.687500,1.000000 164.375092,1.000000 246.404404,1.321682 
	C241.940353,3.363521 239.968689,7.382627 239.000092,11.869190 
	C237.460373,19.001179 236.000046,26.174736 235.060364,33.402760 
	C234.489029,37.797623 232.768982,39.933266 228.337311,41.046638 
	C220.785461,42.943901 213.388931,45.517960 206.029037,48.098312 
	C201.739731,49.602135 197.391724,51.687180 197.151047,57.060112 
	C196.921677,62.180859 200.367981,65.307198 204.549698,67.401527 
	C209.739410,70.000694 215.064224,72.348862 220.432205,74.558838 
	C221.613129,75.045021 223.494354,74.967506 224.583694,74.337692 
	C228.804092,71.897667 232.834930,69.129776 237.673859,66.008217 
	C230.028854,62.954075 223.320465,60.274105 215.676575,57.220409 
	C224.392029,54.408657 232.206955,51.735622 240.123932,49.410126 
	C243.169754,48.515457 244.747574,47.353790 245.216095,43.857140 
	C246.278992,35.924656 248.020370,28.083084 249.703491,19.034796 
	C254.129791,26.290831 258.039978,32.416618 261.632843,38.723152 
	C263.182159,41.442673 264.568604,42.421082 267.895355,41.388966 
	C275.338684,39.079670 282.965973,37.363182 290.718933,35.649849 
	C291.064301,36.047729 291.209137,36.201015 291.211670,36.657700 
	C285.781281,43.165058 280.578369,49.444843 275.158417,55.531387 
	C273.291046,57.628403 273.201508,59.252186 274.596710,61.651897 
	C277.517395,66.675255 280.120026,71.885483 282.788513,77.052399 
	C283.690552,78.798988 284.397369,80.646423 285.216003,82.498856 
	C278.077179,81.480141 272.189056,77.438065 265.130798,78.782539 
	C265.502960,81.321465 265.892365,83.103813 266.002930,84.903297 
	C266.284271,89.482224 268.477905,92.022263 273.102844,93.023689 
	C278.119476,94.109924 283.011993,95.792892 287.927246,97.316818 
	C292.505188,98.736145 296.566315,97.991646 299.707703,94.323341 
	C303.005524,90.472404 302.156525,86.320816 299.973999,82.231644 
	C296.375977,75.490425 292.877289,68.694115 289.155518,62.022099 
	C287.815918,59.620609 287.921082,57.896538 289.829895,55.836781 
	C293.333649,52.055908 296.597870,48.050220 299.904358,44.090187 
	C303.528595,39.749603 307.522522,35.623798 310.472809,30.858063 
	C311.748535,28.797338 311.915375,24.502651 310.578217,22.792952 
	C309.147552,20.963686 305.113770,19.866207 302.630615,20.395069 
	C293.048828,22.435804 283.618164,25.201628 274.163971,27.815893 
	C271.523132,28.546141 269.905548,28.008396 268.492096,25.499660 
	C265.229614,19.709131 261.953186,13.883084 258.103882,8.483918 
	C256.014374,5.553101 252.739944,3.467084 250.000000,1.000004 
	C270.980743,1.000000 291.961456,1.000000 312.971100,1.000000 
	C312.971100,54.931164 312.971100,108.862350 312.971100,163.000000 
	C229.312546,163.000000 145.624939,163.000000 61.641953,162.657257 
	C62.235691,161.001923 63.669872,159.784210 63.917831,158.360001 
	C64.897041,152.735672 65.504128,147.046539 66.265999,141.254059 
	C87.588158,151.095779 108.376839,143.411743 115.407761,122.795708 
	C121.902557,103.751686 111.737045,88.511238 94.095573,86.182304 
	C76.740746,83.891228 59.559380,97.874901 56.978344,115.282486 
	C55.589497,124.649445 54.194805,134.022980 53.165058,143.433182 
	C52.455181,149.920258 52.366375,156.475327 52.000000,163.000000 
	C35.090115,163.000000 18.180227,163.000000 1.000000,163.000000 
	C1.000000,152.647339 1.000000,142.292328 1.301887,131.651550 
	C3.955789,138.345490 7.943925,143.836472 15.410100,145.880920 
	C28.171415,149.375305 41.898365,143.555344 48.293472,132.064865 
	C54.211021,121.432434 51.925453,111.757439 41.383526,101.400032 
	C37.499817,97.584297 33.914600,93.437584 30.452547,89.228554 
	C27.747759,85.940170 28.539261,82.557526 32.242352,80.520660 
	C36.249363,78.316628 39.969650,79.032318 43.133362,82.222649 
	C44.502842,83.603653 45.576374,85.278137 46.981525,87.070900 
	C50.322960,84.628647 53.440956,82.176826 56.738640,79.996834 
	C59.163162,78.394058 59.111778,76.986801 57.473003,74.748413 
	C51.373749,66.417503 43.837765,64.018089 31.704418,66.825584 
	C15.611825,70.549202 9.056096,89.713226 19.710381,102.113518 
	C24.048208,107.162224 28.756159,111.893173 33.087818,116.946884 
	C39.009819,123.856056 36.668598,130.677780 27.784885,132.869614 
	C23.279388,133.981232 20.039938,132.234787 16.954210,126.469162 
	C15.442119,123.643845 13.879619,123.059700 11.103814,124.690453 
	C7.827054,126.615501 4.375676,128.243317 0.999999,130.000000 
M175.311371,144.138474 
	C177.533630,144.347244 178.880554,144.034256 179.154816,141.138443 
	C179.954285,132.697739 181.224686,124.302643 182.241226,115.881310 
	C185.024139,92.826370 165.935989,81.496376 145.850922,87.466286 
	C134.855804,90.734367 127.442001,98.571152 123.744370,109.517014 
	C120.174698,120.084122 121.306641,129.990479 129.437973,138.175217 
	C137.559097,146.349686 147.441177,147.523407 158.045624,144.102173 
	C159.608185,143.598053 161.721405,142.283249 162.056396,140.958313 
	C163.110565,136.789246 163.438721,132.436600 164.183578,127.201805 
	C161.717987,128.685013 160.423798,129.805252 158.923462,130.298584 
	C155.222290,131.515549 150.808334,134.230911 147.775604,133.181229 
	C134.510056,128.589722 132.290573,118.581802 137.809143,108.529999 
	C142.054199,100.797806 151.706818,96.881691 159.631805,99.256371 
	C166.456528,101.301361 170.100952,108.291771 169.135574,118.083710 
	C168.293381,126.626076 167.166962,135.140427 166.110794,144.138504 
	C169.112000,144.138504 171.744766,144.138504 175.311371,144.138474 
M228.208878,145.074677 
	C232.284683,145.575974 231.628128,142.345871 231.939194,140.126663 
	C233.120743,131.697281 234.159958,123.247925 235.397736,113.682739 
	C241.244995,122.535736 247.079773,130.062073 251.428833,138.366486 
	C254.936432,145.064117 259.911713,145.838272 266.127960,145.029495 
	C267.975311,144.789154 269.760315,144.069382 272.123993,143.417572 
	C263.463501,131.184097 255.100494,119.370834 246.666214,107.456902 
	C251.537521,102.319733 256.169556,97.552773 260.635773,92.635231 
	C261.647644,91.521080 262.773865,89.821724 262.654480,88.499451 
	C262.308319,84.665459 261.355713,80.886208 260.477814,76.217125 
	C252.458252,85.074066 245.045700,93.260620 236.915253,102.240021 
	C238.435806,90.479988 239.808243,79.865341 241.371506,67.774948 
	C237.081039,70.551872 234.097809,72.918915 230.752335,74.537048 
	C226.618774,76.536324 225.251755,79.639908 224.891449,83.967194 
	C224.354446,90.416885 223.278809,96.821579 222.438385,103.246193 
	C220.635605,117.027832 218.836700,130.809967 216.973099,145.075012 
	C220.679306,145.075012 223.976028,145.075012 228.208878,145.074677 
M197.788239,144.546646 
	C198.153854,143.838516 198.752197,143.161057 198.850143,142.417648 
	C200.303101,131.388931 201.757584,120.359528 203.068436,109.313278 
	C203.955307,101.839813 204.952927,100.811760 212.271988,100.721260 
	C213.732330,100.703194 215.191238,100.570236 216.635056,100.491119 
	C217.022614,98.034393 217.218994,95.879562 217.721161,93.798523 
	C218.720291,89.657936 217.833252,87.271866 212.956909,87.979645 
	C210.448654,88.343697 207.924438,88.618149 205.399368,88.842049 
	C198.158249,89.484116 192.203705,94.241913 191.128525,101.252037 
	C188.941727,115.510056 187.182327,129.833633 185.167572,144.715317 
	C189.358871,144.715317 193.138199,144.715317 197.788239,144.546646 
M157.752121,61.323818 
	C157.315643,60.531273 156.879166,59.738728 156.442688,58.946178 
	C155.742783,59.691624 154.593582,60.344719 154.418213,61.197983 
	C153.499954,65.665527 152.828568,70.183823 152.071365,74.684471 
	C152.627350,74.934647 153.183319,75.184814 153.739304,75.434982 
	C154.851730,73.253349 155.964172,71.071724 157.133774,68.777969 
	C158.882706,68.777969 160.907852,68.777969 163.021027,68.777969 
	C162.880112,71.077850 162.765320,72.951393 162.650528,74.824928 
	C163.176651,74.985512 163.702789,75.146095 164.228928,75.306679 
	C167.397629,72.173157 166.598343,67.402184 167.574463,63.425690 
	C167.918427,62.024387 167.112442,60.340801 166.831497,58.786102 
	C166.343582,58.848995 165.855652,58.911888 165.367722,58.974777 
	C164.835983,60.983673 164.304245,62.992569 163.575226,65.746758 
	C161.701538,63.468437 156.969269,68.430809 157.752121,61.323818 
M119.465393,71.408905 
	C120.976013,72.753838 122.486626,74.098778 123.997246,75.443710 
	C124.543045,75.034302 125.088844,74.624886 125.634636,74.215469 
	C122.078499,69.836090 126.540146,61.980099 118.470497,59.006859 
	C115.513031,64.539230 112.863701,69.495201 110.214363,74.451172 
	C112.034401,74.714050 113.301704,74.124847 114.548744,73.495491 
	C115.902061,72.812508 117.236504,72.092133 119.465393,71.408905 
M73.252441,74.973747 
	C76.896721,68.615280 80.879059,71.830856 84.888847,75.823944 
	C85.016083,75.380280 85.143318,74.936623 85.270546,74.492958 
	C84.411133,69.651306 83.551720,64.809654 82.559441,59.219456 
	C80.590500,60.061600 78.303215,60.304592 77.482162,61.529999 
	C75.090805,65.099045 73.230309,69.033783 71.330940,72.908119 
	C71.124336,73.329552 72.021011,74.291847 73.252441,74.973747 
M94.448318,68.724281 
	C94.168167,70.645897 93.888023,72.567513 93.607880,74.489136 
	C94.136803,74.741501 94.665718,74.993866 95.194641,75.246231 
	C96.239639,73.354904 97.284645,71.463577 98.465172,69.326965 
	C103.848030,68.537643 106.739006,66.213745 105.822342,62.704277 
	C104.402084,57.266781 99.960861,59.390690 96.227097,58.945702 
	C95.669586,62.157543 95.168953,65.041740 94.448318,68.724281 
M185.140213,66.571869 
	C183.740067,65.793564 182.339905,65.015259 179.819092,63.614002 
	C182.566422,62.591385 184.704330,61.795612 186.842224,60.999840 
	C186.802689,60.745358 186.763153,60.490879 186.723618,60.236397 
	C183.925812,59.998207 181.128021,59.760014 178.124603,59.504318 
	C177.280640,64.455437 176.425797,69.470474 175.569641,74.493126 
	C183.205383,75.589951 183.450653,75.518364 184.285645,72.056465 
	C182.741241,71.753555 181.199432,71.451157 179.657639,71.148750 
	C179.528229,70.649750 179.398819,70.150749 179.269409,69.651749 
	C181.179047,68.921700 183.088699,68.191650 185.140213,66.571869 
M136.183014,64.736710 
	C138.689209,63.268730 141.195404,61.800751 143.694870,60.336712 
	C138.997162,58.928787 134.953354,59.188465 132.702911,64.349411 
	C131.236481,67.712334 131.239258,71.183708 134.206039,73.342430 
	C136.100159,74.720650 139.062454,74.630859 141.545837,75.199249 
	C141.705017,74.665810 141.864197,74.132370 142.023376,73.598930 
	C137.716095,72.474884 133.982376,70.946098 136.183014,64.736710 
z"/>
<path fill="#E25C1E" opacity="1.000000" stroke="none" 
	d="
M249.625000,1.000004 
	C252.739944,3.467084 256.014374,5.553101 258.103882,8.483918 
	C261.953186,13.883084 265.229614,19.709131 268.492096,25.499660 
	C269.905548,28.008396 271.523132,28.546141 274.163971,27.815893 
	C283.618164,25.201628 293.048828,22.435804 302.630615,20.395069 
	C305.113770,19.866207 309.147552,20.963686 310.578217,22.792952 
	C311.915375,24.502651 311.748535,28.797338 310.472809,30.858063 
	C307.522522,35.623798 303.528595,39.749603 299.904358,44.090187 
	C296.597870,48.050220 293.333649,52.055908 289.829895,55.836781 
	C287.921082,57.896538 287.815918,59.620609 289.155518,62.022099 
	C292.877289,68.694115 296.375977,75.490425 299.973999,82.231644 
	C302.156525,86.320816 303.005524,90.472404 299.707703,94.323341 
	C296.566315,97.991646 292.505188,98.736145 287.927246,97.316818 
	C283.011993,95.792892 278.119476,94.109924 273.102844,93.023689 
	C268.477905,92.022263 266.284271,89.482224 266.002930,84.903297 
	C265.892365,83.103813 265.502960,81.321465 265.130798,78.782539 
	C272.189056,77.438065 278.077179,81.480141 285.216003,82.498856 
	C284.397369,80.646423 283.690552,78.798988 282.788513,77.052399 
	C280.120026,71.885483 277.517395,66.675255 274.596710,61.651897 
	C273.201508,59.252186 273.291046,57.628403 275.158417,55.531387 
	C280.578369,49.444843 285.781281,43.165058 291.445129,36.486481 
	C291.386749,35.809662 290.952545,35.607456 290.518341,35.405251 
	C282.965973,37.363182 275.338684,39.079670 267.895355,41.388966 
	C264.568604,42.421082 263.182159,41.442673 261.632843,38.723152 
	C258.039978,32.416618 254.129791,26.290831 249.703491,19.034796 
	C248.020370,28.083084 246.278992,35.924656 245.216095,43.857140 
	C244.747574,47.353790 243.169754,48.515457 240.123932,49.410126 
	C232.206955,51.735622 224.392029,54.408657 215.676575,57.220409 
	C223.320465,60.274105 230.028854,62.954075 237.673859,66.008217 
	C232.834930,69.129776 228.804092,71.897667 224.583694,74.337692 
	C223.494354,74.967506 221.613129,75.045021 220.432205,74.558838 
	C215.064224,72.348862 209.739410,70.000694 204.549698,67.401527 
	C200.367981,65.307198 196.921677,62.180859 197.151047,57.060112 
	C197.391724,51.687180 201.739731,49.602135 206.029037,48.098312 
	C213.388931,45.517960 220.785461,42.943901 228.337311,41.046638 
	C232.768982,39.933266 234.489029,37.797623 235.060364,33.402760 
	C236.000046,26.174736 237.460373,19.001179 239.000092,11.869190 
	C239.968689,7.382627 241.940353,3.363521 246.873062,1.321682 
	C247.750000,1.000000 248.500000,1.000000 249.625000,1.000004 
z"/>
<path fill="#3E3C40" opacity="1.000000" stroke="none" 
	d="
M52.449982,163.000000 
	C52.366375,156.475327 52.455181,149.920258 53.165058,143.433182 
	C54.194805,134.022980 55.589497,124.649445 56.978344,115.282486 
	C59.559380,97.874901 76.740746,83.891228 94.095573,86.182304 
	C111.737045,88.511238 121.902557,103.751686 115.407761,122.795708 
	C108.376839,143.411743 87.588158,151.095779 66.265999,141.254059 
	C65.504128,147.046539 64.897041,152.735672 63.917831,158.360001 
	C63.669872,159.784210 62.235691,161.001923 61.173294,162.657257 
	C58.299988,163.000000 55.599972,163.000000 52.449982,163.000000 
M101.574402,105.155251 
	C93.196808,93.387489 74.979065,99.595230 70.937897,112.035225 
	C69.089073,117.726494 69.079140,123.352798 73.319748,127.958092 
	C77.146957,132.114471 81.714699,134.302231 87.916695,132.927673 
	C100.525436,130.133163 107.426712,117.242973 101.574402,105.155251 
z"/>
<path fill="#3E3C40" opacity="1.000000" stroke="none" 
	d="
M0.999999,130.250000 
	C4.375676,128.243317 7.827054,126.615501 11.103814,124.690453 
	C13.879619,123.059700 15.442119,123.643845 16.954210,126.469162 
	C20.039938,132.234787 23.279388,133.981232 27.784885,132.869614 
	C36.668598,130.677780 39.009819,123.856056 33.087818,116.946884 
	C28.756159,111.893173 24.048208,107.162224 19.710381,102.113518 
	C9.056096,89.713226 15.611825,70.549202 31.704418,66.825584 
	C43.837765,64.018089 51.373749,66.417503 57.473003,74.748413 
	C59.111778,76.986801 59.163162,78.394058 56.738640,79.996834 
	C53.440956,82.176826 50.322960,84.628647 46.981525,87.070900 
	C45.576374,85.278137 44.502842,83.603653 43.133362,82.222649 
	C39.969650,79.032318 36.249363,78.316628 32.242352,80.520660 
	C28.539261,82.557526 27.747759,85.940170 30.452547,89.228554 
	C33.914600,93.437584 37.499817,97.584297 41.383526,101.400032 
	C51.925453,111.757439 54.211021,121.432434 48.293472,132.064865 
	C41.898365,143.555344 28.171415,149.375305 15.410100,145.880920 
	C7.943925,143.836472 3.955789,138.345490 1.301887,131.182892 
	C1.000000,131.000000 1.000000,130.500000 0.999999,130.250000 
z"/>
<path fill="#3E3C40" opacity="1.000000" stroke="none" 
	d="
M174.844452,144.138489 
	C171.744766,144.138504 169.112000,144.138504 166.110794,144.138504 
	C167.166962,135.140427 168.293381,126.626076 169.135574,118.083710 
	C170.100952,108.291771 166.456528,101.301361 159.631805,99.256371 
	C151.706818,96.881691 142.054199,100.797806 137.809143,108.529999 
	C132.290573,118.581802 134.510056,128.589722 147.775604,133.181229 
	C150.808334,134.230911 155.222290,131.515549 158.923462,130.298584 
	C160.423798,129.805252 161.717987,128.685013 164.183578,127.201805 
	C163.438721,132.436600 163.110565,136.789246 162.056396,140.958313 
	C161.721405,142.283249 159.608185,143.598053 158.045624,144.102173 
	C147.441177,147.523407 137.559097,146.349686 129.437973,138.175217 
	C121.306641,129.990479 120.174698,120.084122 123.744370,109.517014 
	C127.442001,98.571152 134.855804,90.734367 145.850922,87.466286 
	C165.935989,81.496376 185.024139,92.826370 182.241226,115.881310 
	C181.224686,124.302643 179.954285,132.697739 179.154816,141.138443 
	C178.880554,144.034256 177.533630,144.347244 174.844452,144.138489 
z"/>
<path fill="#3E3C40" opacity="1.000000" stroke="none" 
	d="
M227.740814,145.074844 
	C223.976028,145.075012 220.679306,145.075012 216.973099,145.075012 
	C218.836700,130.809967 220.635605,117.027832 222.438385,103.246193 
	C223.278809,96.821579 224.354446,90.416885 224.891449,83.967194 
	C225.251755,79.639908 226.618774,76.536324 230.752335,74.537048 
	C234.097809,72.918915 237.081039,70.551872 241.371506,67.774948 
	C239.808243,79.865341 238.435806,90.479988 236.915253,102.240021 
	C245.045700,93.260620 252.458252,85.074066 260.477814,76.217125 
	C261.355713,80.886208 262.308319,84.665459 262.654480,88.499451 
	C262.773865,89.821724 261.647644,91.521080 260.635773,92.635231 
	C256.169556,97.552773 251.537521,102.319733 246.666214,107.456902 
	C255.100494,119.370834 263.463501,131.184097 272.123993,143.417572 
	C269.760315,144.069382 267.975311,144.789154 266.127960,145.029495 
	C259.911713,145.838272 254.936432,145.064117 251.428833,138.366486 
	C247.079773,130.062073 241.244995,122.535736 235.397736,113.682739 
	C234.159958,123.247925 233.120743,131.697281 231.939194,140.126663 
	C231.628128,142.345871 232.284683,145.575974 227.740814,145.074844 
z"/>
<path fill="#403E42" opacity="1.000000" stroke="none" 
	d="
M197.352875,144.630981 
	C193.138199,144.715317 189.358871,144.715317 185.167572,144.715317 
	C187.182327,129.833633 188.941727,115.510056 191.128525,101.252037 
	C192.203705,94.241913 198.158249,89.484116 205.399368,88.842049 
	C207.924438,88.618149 210.448654,88.343697 212.956909,87.979645 
	C217.833252,87.271866 218.720291,89.657936 217.721161,93.798523 
	C217.218994,95.879562 217.022614,98.034393 216.635056,100.491119 
	C215.191238,100.570236 213.732330,100.703194 212.271988,100.721260 
	C204.952927,100.811760 203.955307,101.839813 203.068436,109.313278 
	C201.757584,120.359528 200.303101,131.388931 198.850143,142.417648 
	C198.752197,143.161057 198.153854,143.838516 197.352875,144.630981 
z"/>
<path fill="#434145" opacity="1.000000" stroke="none" 
	d="
M157.630951,61.728523 
	C156.969269,68.430809 161.701538,63.468437 163.575226,65.746758 
	C164.304245,62.992569 164.835983,60.983673 165.367722,58.974777 
	C165.855652,58.911888 166.343582,58.848995 166.831497,58.786102 
	C167.112442,60.340801 167.918427,62.024387 167.574463,63.425690 
	C166.598343,67.402184 167.397629,72.173157 164.228928,75.306679 
	C163.702789,75.146095 163.176651,74.985512 162.650528,74.824928 
	C162.765320,72.951393 162.880112,71.077850 163.021027,68.777969 
	C160.907852,68.777969 158.882706,68.777969 157.133774,68.777969 
	C155.964172,71.071724 154.851730,73.253349 153.739304,75.434982 
	C153.183319,75.184814 152.627350,74.934647 152.071365,74.684471 
	C152.828568,70.183823 153.499954,65.665527 154.418213,61.197983 
	C154.593582,60.344719 155.742783,59.691624 156.442688,58.946182 
	C156.879166,59.738728 157.315643,60.531273 157.630951,61.728523 
z"/>
<path fill="#474549" opacity="1.000000" stroke="none" 
	d="
M119.022285,71.398483 
	C117.236504,72.092133 115.902061,72.812508 114.548744,73.495491 
	C113.301704,74.124847 112.034401,74.714050 110.214363,74.451172 
	C112.863701,69.495201 115.513031,64.539230 118.470497,59.006859 
	C126.540146,61.980099 122.078499,69.836090 125.634636,74.215469 
	C125.088844,74.624886 124.543045,75.034302 123.997246,75.443710 
	C122.486626,74.098778 120.976013,72.753838 119.022285,71.398483 
z"/>
<path fill="#444246" opacity="1.000000" stroke="none" 
	d="
M72.829193,74.988510 
	C72.021011,74.291847 71.124336,73.329552 71.330940,72.908119 
	C73.230309,69.033783 75.090805,65.099045 77.482162,61.529999 
	C78.303215,60.304592 80.590500,60.061600 82.559441,59.219456 
	C83.551720,64.809654 84.411133,69.651306 85.270546,74.492958 
	C85.143318,74.936623 85.016083,75.380280 84.888847,75.823944 
	C80.879059,71.830856 76.896721,68.615280 72.829193,74.988510 
z"/>
<path fill="#403E42" opacity="1.000000" stroke="none" 
	d="
M94.558319,68.325104 
	C95.168953,65.041740 95.669586,62.157543 96.227097,58.945702 
	C99.960861,59.390690 104.402084,57.266781 105.822342,62.704277 
	C106.739006,66.213745 103.848030,68.537643 98.465172,69.326965 
	C97.284645,71.463577 96.239639,73.354904 95.194641,75.246231 
	C94.665718,74.993866 94.136803,74.741501 93.607880,74.489136 
	C93.888023,72.567513 94.168167,70.645897 94.558319,68.325104 
z"/>
<path fill="#413F43" opacity="1.000000" stroke="none" 
	d="
M185.069275,67.016739 
	C183.088699,68.191650 181.179047,68.921700 179.269409,69.651749 
	C179.398819,70.150749 179.528229,70.649750 179.657639,71.148750 
	C181.199432,71.451157 182.741241,71.753555 184.285645,72.056465 
	C183.450653,75.518364 183.205383,75.589951 175.569641,74.493126 
	C176.425797,69.470474 177.280640,64.455437 178.124603,59.504318 
	C181.128021,59.760014 183.925812,59.998207 186.723618,60.236397 
	C186.763153,60.490879 186.802689,60.745358 186.842224,60.999840 
	C184.704330,61.795612 182.566422,62.591385 179.819092,63.614002 
	C182.339905,65.015259 183.740067,65.793564 185.069275,67.016739 
z"/>
<path fill="#3C3A3E" opacity="1.000000" stroke="none" 
	d="
M136.039215,65.084671 
	C133.982376,70.946098 137.716095,72.474884 142.023376,73.598930 
	C141.864197,74.132370 141.705017,74.665810 141.545837,75.199249 
	C139.062454,74.630859 136.100159,74.720650 134.206039,73.342430 
	C131.239258,71.183708 131.236481,67.712334 132.702911,64.349411 
	C134.953354,59.188465 138.997162,58.928787 143.694870,60.336712 
	C141.195404,61.800751 138.689209,63.268730 136.039215,65.084671 
z"/>
<path fill="#FEFDFD" opacity="1.000000" stroke="none" 
	d="
M290.718933,35.649849 
	C290.952545,35.607456 291.386749,35.809662 291.587463,36.183086 
	C291.209137,36.201015 291.064301,36.047729 290.718933,35.649849 
z"/>
<path fill="#FDFDFD" opacity="1.000000" stroke="none" 
	d="
M101.759964,105.489502 
	C107.426712,117.242973 100.525436,130.133163 87.916695,132.927673 
	C81.714699,134.302231 77.146957,132.114471 73.319748,127.958092 
	C69.079140,123.352798 69.089073,117.726494 70.937897,112.035225 
	C74.979065,99.595230 93.196808,93.387489 101.759964,105.489502 
z"/>
</svg>